<?xml version="1.0" encoding="UTF-8" standalone="no"?>
<!DOCTYPE svg PUBLIC "-//W3C//DTD SVG 1.1//EN" "http://www.w3.org/Graphics/SVG/1.1/DTD/svg11.dtd">
<svg xmlns="http://www.w3.org/2000/svg" version="1.1" viewBox="0.00 0.00 100.00 100.00">
<g stroke-width="2.00" fill="none" stroke-linecap="butt">
<path stroke="#e79350" vector-effect="non-scaling-stroke" d="
  M 71.37 27.43
  Q 72.22 27.82 72.87 27.53"
/>
<path stroke="#926a4d" vector-effect="non-scaling-stroke" d="
  M 72.87 27.53
  Q 74.50 28.10 76.31 27.29"
/>
<path stroke="#e79350" vector-effect="non-scaling-stroke" d="
  M 76.31 27.29
  Q 77.24 27.56 78.03 26.86
  Q 78.43 26.50 78.01 26.16
  Q 76.65 25.05 74.35 25.92"
/>
<path stroke="#926a4d" vector-effect="non-scaling-stroke" d="
  M 74.35 25.92
  L 73.48 26.24"
/>
<path stroke="#e79350" vector-effect="non-scaling-stroke" d="
  M 73.48 26.24
  Q 72.69 26.00 71.94 26.22"
/>
<path stroke="#7c431b" vector-effect="non-scaling-stroke" d="
  M 71.94 26.22
  Q 71.12 26.03 70.50 26.57
  Q 66.42 30.12 62.06 32.69
  A 1.02 1.02 0.0 0 1 60.79 32.50
  Q 57.68 29.14 54.42 25.52
  C 53.68 24.69 52.73 24.22 51.68 23.89
  A 1.67 1.66 9.6 0 1 50.52 22.27
  L 50.53 21.76
  Q 50.55 20.73 51.55 20.95
  Q 54.99 21.68 57.65 23.89
  C 58.80 24.83 60.19 25.09 61.61 24.67
  Q 62.09 24.53 62.13 24.06
  Q 62.20 23.41 61.54 23.36
  Q 59.08 23.20 58.39 21.05
  Q 58.21 20.51 58.49 20.02
  C 60.10 17.16 58.67 15.68 57.11 13.43
  C 55.99 11.82 53.71 12.14 52.12 12.62
  A 1.48 1.45 -79.7 0 0 51.33 13.18
  C 50.01 14.99 49.13 17.28 47.20 18.52
  Q 45.68 19.50 44.61 20.94
  A 1.11 1.10 19.3 0 1 43.66 21.39
  L 41.50 21.30
  A 1.60 1.54 -55.1 0 0 40.75 21.45
  Q 36.66 23.38 33.04 25.53
  C 30.81 26.85 28.73 31.08 31.16 33.25
  C 32.85 34.76 37.98 34.04 39.99 33.80
  A 0.76 0.76 0.0 0 1 40.82 34.73
  Q 40.37 36.54 39.69 38.32
  Q 38.17 42.26 36.49 46.01
  C 35.53 48.14 36.62 51.26 38.50 52.68
  Q 40.71 54.34 41.18 56.95
  Q 41.92 61.11 44.09 64.90
  A 1.52 1.50 -54.4 0 1 44.26 65.97
  Q 43.61 69.23 44.10 72.39
  Q 44.14 72.64 44.29 72.84
  Q 44.47 73.08 44.76 73.17
  A 0.80 0.79 -88.8 0 1 45.30 73.74
  Q 46.60 78.61 48.90 83.23
  C 49.42 84.29 49.55 85.60 49.25 86.75
  Q 49.04 87.54 49.86 87.49
  C 51.57 87.37 53.17 87.38 54.83 87.93
  Q 58.03 88.97 60.78 89.36
  Q 63.01 89.68 61.07 88.52
  Q 57.52 86.40 53.86 85.07
  C 52.32 84.51 51.43 82.99 50.99 81.50
  Q 48.15 71.91 49.28 62.48
  C 49.46 61.01 49.34 58.84 49.01 57.42
  Q 47.51 51.01 45.97 44.63
  Q 45.53 42.81 44.70 41.91
  Q 43.66 40.77 42.88 39.23
  Q 42.86 39.17 42.89 39.13
  L 43.26 38.74
  Q 43.53 38.45 43.75 38.78
  L 46.80 43.65
  A 0.77 0.77 0.0 0 0 48.15 43.55
  Q 49.94 39.53 49.33 35.72
  Q 49.16 34.64 48.28 35.29
  C 46.99 36.23 45.76 36.21 44.19 36.38
  Q 43.67 36.44 43.28 36.08
  Q 42.82 35.65 43.44 35.54
  Q 45.36 35.22 45.05 33.08
  A 0.63 0.63 0.0 0 1 45.81 32.38
  Q 46.82 32.61 47.76 33.22
  A 1.75 1.75 0.0 0 0 50.27 32.57
  Q 50.77 31.61 51.90 31.51
  Q 52.45 31.45 52.84 31.85
  Q 55.21 34.22 58.14 36.40
  Q 62.25 39.47 65.19 35.17
  Q 66.58 33.14 71.37 27.43"
/>
<path stroke="#6d533a" vector-effect="non-scaling-stroke" d="
  M 71.94 26.22
  Q 71.88 27.07 71.37 27.43"
/>
<path stroke="#837a6c" vector-effect="non-scaling-stroke" d="
  M 72.87 27.53
  Q 72.78 26.82 73.48 26.24"
/>
<path stroke="#837a6c" vector-effect="non-scaling-stroke" d="
  M 76.31 27.29
  Q 76.68 26.00 74.35 25.92"
/>
<path stroke="#7c431b" vector-effect="non-scaling-stroke" d="
  M 35.40 62.18
  C 37.80 66.26 39.35 71.20 40.61 76.00
  Q 40.62 76.06 40.69 76.05
  L 40.93 75.99
  Q 41.05 75.96 41.03 75.84
  Q 39.52 66.78 34.53 57.16
  Q 30.59 49.56 36.01 43.05
  Q 36.14 42.89 36.18 42.69
  Q 36.23 42.47 36.14 42.26
  A 0.59 0.59 0.0 0 0 35.34 42.00
  C 26.15 46.80 31.66 55.81 35.40 62.18"
/>
<path stroke="#926a4d" vector-effect="non-scaling-stroke" d="
  M 62.23 53.76
  Q 63.29 52.55 63.44 51.60
  Q 63.60 50.61 62.34 49.84
  Q 61.27 49.20 60.02 48.90"
/>
<path stroke="#7c431b" vector-effect="non-scaling-stroke" d="
  M 60.02 48.90
  Q 55.48 45.97 50.09 44.77
  Q 49.62 44.67 49.39 45.08
  Q 49.28 45.26 49.33 45.49
  C 49.53 46.37 50.62 47.12 50.94 48.16
  A 1.05 1.05 0.0 0 1 50.57 49.30
  Q 47.64 51.52 50.23 54.43
  C 51.21 55.54 53.13 55.89 54.51 56.16
  A 0.82 0.81 -78.8 0 1 55.14 57.11
  Q 54.28 61.66 54.24 66.61
  C 54.22 67.83 53.66 69.11 53.26 70.27
  Q 53.02 70.95 53.59 71.41
  L 56.27 73.59
  Q 56.69 73.93 56.87 74.44
  Q 58.01 77.67 59.98 79.69
  Q 61.22 80.97 60.69 79.27
  C 59.84 76.54 57.47 74.98 57.04 72.09
  Q 55.96 64.89 59.00 60.02
  Q 61.75 55.61 62.23 53.76"
/>
<path stroke="#172a37" vector-effect="non-scaling-stroke" d="
  M 60.02 48.90
  L 62.23 53.76"
/>
<path stroke="#6d533a" vector-effect="non-scaling-stroke" d="
  M 54.15 16.32
  L 56.84 19.28
  A 0.12 0.12 0.0 0 0 57.01 19.29
  L 57.01 19.29
  A 1.98 1.94 47.8 0 0 57.12 16.52
  L 56.93 16.31
  A 1.98 1.94 47.8 0 0 54.16 16.15
  L 54.16 16.15
  A 0.12 0.12 0.0 0 0 54.15 16.32"
/>
<path stroke="#6d533a" vector-effect="non-scaling-stroke" d="
  M 50.50 19.28
  Q 52.53 19.12 53.29 16.97
  Q 53.56 16.19 52.75 16.34
  L 51.81 16.51
  A 1.62 1.62 0.0 0 0 50.67 17.37
  Q 50.01 18.71 48.91 19.76
  C 47.22 21.37 47.02 23.59 45.44 25.31
  Q 44.05 26.83 43.73 28.96
  A 2.03 2.03 0.0 0 1 42.96 30.27
  Q 41.06 31.72 38.54 30.22
  A 0.91 0.91 0.0 0 1 38.10 29.46
  L 38.04 27.41
  A 0.63 0.63 0.0 0 0 37.18 26.84
  Q 35.80 27.41 35.24 28.89
  A 1.40 1.39 -72.4 0 0 36.19 30.73
  Q 40.01 31.75 43.82 31.72
  A 0.65 0.65 0.0 0 0 44.47 31.10
  Q 44.62 27.58 47.01 25.14
  Q 47.36 24.79 47.49 24.31
  Q 48.18 21.80 49.68 19.74
  Q 49.99 19.32 50.50 19.28"
/>
<path stroke="#6d533a" vector-effect="non-scaling-stroke" d="
  M 46.86 71.79
  Q 47.00 71.41 46.72 71.05
  Q 46.43 70.68 46.35 71.14
  Q 46.29 71.42 46.31 71.71
  Q 46.39 73.05 46.86 71.79"
/>
</g>
<path fill="#f68330" d="
  M 0.00 0.00
  L 100.00 0.00
  L 100.00 100.00
  L 0.00 100.00
  L 0.00 0.00
  Z
  M 71.37 27.43
  Q 72.22 27.82 72.87 27.53
  Q 74.50 28.10 76.31 27.29
  Q 77.24 27.56 78.03 26.86
  Q 78.43 26.50 78.01 26.16
  Q 76.65 25.05 74.35 25.92
  L 73.48 26.24
  Q 72.69 26.00 71.94 26.22
  Q 71.12 26.03 70.50 26.57
  Q 66.42 30.12 62.06 32.69
  A 1.02 1.02 0.0 0 1 60.79 32.50
  Q 57.68 29.14 54.42 25.52
  C 53.68 24.69 52.73 24.22 51.68 23.89
  A 1.67 1.66 9.6 0 1 50.52 22.27
  L 50.53 21.76
  Q 50.55 20.73 51.55 20.95
  Q 54.99 21.68 57.65 23.89
  C 58.80 24.83 60.19 25.09 61.61 24.67
  Q 62.09 24.53 62.13 24.06
  Q 62.20 23.41 61.54 23.36
  Q 59.08 23.20 58.39 21.05
  Q 58.21 20.51 58.49 20.02
  C 60.10 17.16 58.67 15.68 57.11 13.43
  C 55.99 11.82 53.71 12.14 52.12 12.62
  A 1.48 1.45 -79.7 0 0 51.33 13.18
  C 50.01 14.99 49.13 17.28 47.20 18.52
  Q 45.68 19.50 44.61 20.94
  A 1.11 1.10 19.3 0 1 43.66 21.39
  L 41.50 21.30
  A 1.60 1.54 -55.1 0 0 40.75 21.45
  Q 36.66 23.38 33.04 25.53
  C 30.81 26.85 28.73 31.08 31.16 33.25
  C 32.85 34.76 37.98 34.04 39.99 33.80
  A 0.76 0.76 0.0 0 1 40.82 34.73
  Q 40.37 36.54 39.69 38.32
  Q 38.17 42.26 36.49 46.01
  C 35.53 48.14 36.62 51.26 38.50 52.68
  Q 40.71 54.34 41.18 56.95
  Q 41.92 61.11 44.09 64.90
  A 1.52 1.50 -54.4 0 1 44.26 65.97
  Q 43.61 69.23 44.10 72.39
  Q 44.14 72.64 44.29 72.84
  Q 44.47 73.08 44.76 73.17
  A 0.80 0.79 -88.8 0 1 45.30 73.74
  Q 46.60 78.61 48.90 83.23
  C 49.42 84.29 49.55 85.60 49.25 86.75
  Q 49.04 87.54 49.86 87.49
  C 51.57 87.37 53.17 87.38 54.83 87.93
  Q 58.03 88.97 60.78 89.36
  Q 63.01 89.68 61.07 88.52
  Q 57.52 86.40 53.86 85.07
  C 52.32 84.51 51.43 82.99 50.99 81.50
  Q 48.15 71.91 49.28 62.48
  C 49.46 61.01 49.34 58.84 49.01 57.42
  Q 47.51 51.01 45.97 44.63
  Q 45.53 42.81 44.70 41.91
  Q 43.66 40.77 42.88 39.23
  Q 42.86 39.17 42.89 39.13
  L 43.26 38.74
  Q 43.53 38.45 43.75 38.78
  L 46.80 43.65
  A 0.77 0.77 0.0 0 0 48.15 43.55
  Q 49.94 39.53 49.33 35.72
  Q 49.16 34.64 48.28 35.29
  C 46.99 36.23 45.76 36.21 44.19 36.38
  Q 43.67 36.44 43.28 36.08
  Q 42.82 35.65 43.44 35.54
  Q 45.36 35.22 45.05 33.08
  A 0.63 0.63 0.0 0 1 45.81 32.38
  Q 46.82 32.61 47.76 33.22
  A 1.75 1.75 0.0 0 0 50.27 32.57
  Q 50.77 31.61 51.90 31.51
  Q 52.45 31.45 52.84 31.85
  Q 55.21 34.22 58.14 36.40
  Q 62.25 39.47 65.19 35.17
  Q 66.58 33.14 71.37 27.43
  Z
  M 35.40 62.18
  C 37.80 66.26 39.35 71.20 40.61 76.00
  Q 40.62 76.06 40.69 76.05
  L 40.93 75.99
  Q 41.05 75.96 41.03 75.84
  Q 39.52 66.78 34.53 57.16
  Q 30.59 49.56 36.01 43.05
  Q 36.14 42.89 36.18 42.69
  Q 36.23 42.47 36.14 42.26
  A 0.59 0.59 0.0 0 0 35.34 42.00
  C 26.15 46.80 31.66 55.81 35.40 62.18
  Z
  M 62.23 53.76
  Q 63.29 52.55 63.44 51.60
  Q 63.60 50.61 62.34 49.84
  Q 61.27 49.20 60.02 48.90
  Q 55.48 45.97 50.09 44.77
  Q 49.62 44.67 49.39 45.08
  Q 49.28 45.26 49.33 45.49
  C 49.53 46.37 50.62 47.12 50.94 48.16
  A 1.05 1.05 0.0 0 1 50.57 49.30
  Q 47.64 51.52 50.23 54.43
  C 51.21 55.54 53.13 55.89 54.51 56.16
  A 0.82 0.81 -78.8 0 1 55.14 57.11
  Q 54.28 61.66 54.24 66.61
  C 54.22 67.83 53.66 69.11 53.26 70.27
  Q 53.02 70.95 53.59 71.41
  L 56.27 73.59
  Q 56.69 73.93 56.87 74.44
  Q 58.01 77.67 59.98 79.69
  Q 61.22 80.97 60.69 79.27
  C 59.84 76.54 57.47 74.98 57.04 72.09
  Q 55.96 64.89 59.00 60.02
  Q 61.75 55.61 62.23 53.76
  Z"
/>
<path fill="#010305" d="
  M 71.94 26.22
  Q 71.88 27.07 71.37 27.43
  Q 66.58 33.14 65.19 35.17
  Q 62.25 39.47 58.14 36.40
  Q 55.21 34.22 52.84 31.85
  Q 52.45 31.45 51.90 31.51
  Q 50.77 31.61 50.27 32.57
  A 1.75 1.75 0.0 0 1 47.76 33.22
  Q 46.82 32.61 45.81 32.38
  A 0.63 0.63 0.0 0 0 45.05 33.08
  Q 45.36 35.22 43.44 35.54
  Q 42.82 35.65 43.28 36.08
  Q 43.67 36.44 44.19 36.38
  C 45.76 36.21 46.99 36.23 48.28 35.29
  Q 49.16 34.64 49.33 35.72
  Q 49.94 39.53 48.15 43.55
  A 0.77 0.77 0.0 0 1 46.80 43.65
  L 43.75 38.78
  Q 43.53 38.45 43.26 38.74
  L 42.89 39.13
  Q 42.86 39.17 42.88 39.23
  Q 43.66 40.77 44.70 41.91
  Q 45.53 42.81 45.97 44.63
  Q 47.51 51.01 49.01 57.42
  C 49.34 58.84 49.46 61.01 49.28 62.48
  Q 48.15 71.91 50.99 81.50
  C 51.43 82.99 52.32 84.51 53.86 85.07
  Q 57.52 86.40 61.07 88.52
  Q 63.01 89.68 60.78 89.36
  Q 58.03 88.97 54.83 87.93
  C 53.17 87.38 51.57 87.37 49.86 87.49
  Q 49.04 87.54 49.25 86.75
  C 49.55 85.60 49.42 84.29 48.90 83.23
  Q 46.60 78.61 45.30 73.74
  A 0.80 0.79 -88.8 0 0 44.76 73.17
  Q 44.47 73.08 44.29 72.84
  Q 44.14 72.64 44.10 72.39
  Q 43.61 69.23 44.26 65.97
  A 1.52 1.50 -54.4 0 0 44.09 64.90
  Q 41.92 61.11 41.18 56.95
  Q 40.71 54.34 38.50 52.68
  C 36.62 51.26 35.53 48.14 36.49 46.01
  Q 38.17 42.26 39.69 38.32
  Q 40.37 36.54 40.82 34.73
  A 0.76 0.76 0.0 0 0 39.99 33.80
  C 37.98 34.04 32.85 34.76 31.16 33.25
  C 28.73 31.08 30.81 26.85 33.04 25.53
  Q 36.66 23.38 40.75 21.45
  A 1.60 1.54 -55.1 0 1 41.50 21.30
  L 43.66 21.39
  A 1.11 1.10 19.3 0 0 44.61 20.94
  Q 45.68 19.50 47.20 18.52
  C 49.13 17.28 50.01 14.99 51.33 13.18
  A 1.48 1.45 -79.7 0 1 52.12 12.62
  C 53.71 12.14 55.99 11.82 57.11 13.43
  C 58.67 15.68 60.10 17.16 58.49 20.02
  Q 58.21 20.51 58.39 21.05
  Q 59.08 23.20 61.54 23.36
  Q 62.20 23.41 62.13 24.06
  Q 62.09 24.53 61.61 24.67
  C 60.19 25.09 58.80 24.83 57.65 23.89
  Q 54.99 21.68 51.55 20.95
  Q 50.55 20.73 50.53 21.76
  L 50.52 22.27
  A 1.67 1.66 9.6 0 0 51.68 23.89
  C 52.73 24.22 53.68 24.69 54.42 25.52
  Q 57.68 29.14 60.79 32.50
  A 1.02 1.02 0.0 0 0 62.06 32.69
  Q 66.42 30.12 70.50 26.57
  Q 71.12 26.03 71.94 26.22
  Z
  M 54.15 16.32
  L 56.84 19.28
  A 0.12 0.12 0.0 0 0 57.01 19.29
  L 57.01 19.29
  A 1.98 1.94 47.8 0 0 57.12 16.52
  L 56.93 16.31
  A 1.98 1.94 47.8 0 0 54.16 16.15
  L 54.16 16.15
  A 0.12 0.12 0.0 0 0 54.15 16.32
  Z
  M 50.50 19.28
  Q 52.53 19.12 53.29 16.97
  Q 53.56 16.19 52.75 16.34
  L 51.81 16.51
  A 1.62 1.62 0.0 0 0 50.67 17.37
  Q 50.01 18.71 48.91 19.76
  C 47.22 21.37 47.02 23.59 45.44 25.31
  Q 44.05 26.83 43.73 28.96
  A 2.03 2.03 0.0 0 1 42.96 30.27
  Q 41.06 31.72 38.54 30.22
  A 0.91 0.91 0.0 0 1 38.10 29.46
  L 38.04 27.41
  A 0.63 0.63 0.0 0 0 37.18 26.84
  Q 35.80 27.41 35.24 28.89
  A 1.40 1.39 -72.4 0 0 36.19 30.73
  Q 40.01 31.75 43.82 31.72
  A 0.65 0.65 0.0 0 0 44.47 31.10
  Q 44.62 27.58 47.01 25.14
  Q 47.36 24.79 47.49 24.31
  Q 48.18 21.80 49.68 19.74
  Q 49.99 19.32 50.50 19.28
  Z
  M 46.86 71.79
  Q 47.00 71.41 46.72 71.05
  Q 46.43 70.68 46.35 71.14
  Q 46.29 71.42 46.31 71.71
  Q 46.39 73.05 46.86 71.79
  Z"
/>
<path fill="#d8a36f" d="
  M 54.15 16.32
  A 0.12 0.12 0.0 0 1 54.16 16.15
  L 54.16 16.15
  A 1.98 1.94 47.8 0 1 56.93 16.31
  L 57.12 16.52
  A 1.98 1.94 47.8 0 1 57.01 19.29
  L 57.01 19.29
  A 0.12 0.12 0.0 0 1 56.84 19.28
  L 54.15 16.32
  Z"
/>
<path fill="#d8a36f" d="
  M 49.68 19.74
  Q 48.18 21.80 47.49 24.31
  Q 47.36 24.79 47.01 25.14
  Q 44.62 27.58 44.47 31.10
  A 0.65 0.65 0.0 0 1 43.82 31.72
  Q 40.01 31.75 36.19 30.73
  A 1.40 1.39 -72.4 0 1 35.24 28.89
  Q 35.80 27.41 37.18 26.84
  A 0.63 0.63 0.0 0 1 38.04 27.41
  L 38.10 29.46
  A 0.91 0.91 0.0 0 0 38.54 30.22
  Q 41.06 31.72 42.96 30.27
  A 2.03 2.03 0.0 0 0 43.73 28.96
  Q 44.05 26.83 45.44 25.31
  C 47.02 23.59 47.22 21.37 48.91 19.76
  Q 50.01 18.71 50.67 17.37
  A 1.62 1.62 0.0 0 1 51.81 16.51
  L 52.75 16.34
  Q 53.56 16.19 53.29 16.97
  Q 52.53 19.12 50.50 19.28
  Q 49.99 19.32 49.68 19.74
  Z"
/>
<path fill="#d8a36f" d="
  M 76.31 27.29
  Q 76.68 26.00 74.35 25.92
  Q 76.65 25.05 78.01 26.16
  Q 78.43 26.50 78.03 26.86
  Q 77.24 27.56 76.31 27.29
  Z"
/>
<path fill="#2d5069" d="
  M 74.35 25.92
  Q 76.68 26.00 76.31 27.29
  Q 74.50 28.10 72.87 27.53
  Q 72.78 26.82 73.48 26.24
  L 74.35 25.92
  Z"
/>
<path fill="#d8a36f" d="
  M 71.94 26.22
  Q 72.69 26.00 73.48 26.24
  Q 72.78 26.82 72.87 27.53
  Q 72.22 27.82 71.37 27.43
  Q 71.88 27.07 71.94 26.22
  Z"
/>
<path fill="#010305" d="
  M 40.61 76.00
  C 39.35 71.20 37.80 66.26 35.40 62.18
  C 31.66 55.81 26.15 46.80 35.34 42.00
  A 0.59 0.59 0.0 0 1 36.14 42.26
  Q 36.23 42.47 36.18 42.69
  Q 36.14 42.89 36.01 43.05
  Q 30.59 49.56 34.53 57.16
  Q 39.52 66.78 41.03 75.84
  Q 41.05 75.96 40.93 75.99
  L 40.69 76.05
  Q 40.62 76.06 40.61 76.00
  Z"
/>
<path fill="#010305" d="
  M 60.02 48.90
  L 62.23 53.76
  Q 61.75 55.61 59.00 60.02
  Q 55.96 64.89 57.04 72.09
  C 57.47 74.98 59.84 76.54 60.69 79.27
  Q 61.22 80.97 59.98 79.69
  Q 58.01 77.67 56.87 74.44
  Q 56.69 73.93 56.27 73.59
  L 53.59 71.41
  Q 53.02 70.95 53.26 70.27
  C 53.66 69.11 54.22 67.83 54.24 66.61
  Q 54.28 61.66 55.14 57.11
  A 0.82 0.81 -78.8 0 0 54.51 56.16
  C 53.13 55.89 51.21 55.54 50.23 54.43
  Q 47.64 51.52 50.57 49.30
  A 1.05 1.05 0.0 0 0 50.94 48.16
  C 50.62 47.12 49.53 46.37 49.33 45.49
  Q 49.28 45.26 49.39 45.08
  Q 49.62 44.67 50.09 44.77
  Q 55.48 45.97 60.02 48.90
  Z"
/>
<path fill="#2d5069" d="
  M 60.02 48.90
  Q 61.27 49.20 62.34 49.84
  Q 63.60 50.61 63.44 51.60
  Q 63.29 52.55 62.23 53.76
  L 60.02 48.90
  Z"
/>
<path fill="#d8a36f" d="
  M 46.31 71.71
  Q 46.29 71.42 46.35 71.14
  Q 46.43 70.68 46.72 71.05
  Q 47.00 71.41 46.86 71.79
  Q 46.39 73.05 46.31 71.71
  Z"
/>
</svg>
