<?xml version="1.0" encoding="UTF-8" standalone="no"?>
<!-- Created with Inkscape (http://www.inkscape.org/) -->

<svg
   version="1.1"
   id="svg1"
   width="626.75684"
   height="628.80817"
   viewBox="0 0 626.75684 628.80817"
   xml:space="preserve"
   xmlns="http://www.w3.org/2000/svg"
   xmlns:svg="http://www.w3.org/2000/svg"><defs
     id="defs1" /><g
     id="g1"
     transform="translate(-2947.2742,-1001.4396)"><g
       id="g302"
       transform="translate(2265.3492,-406.14377)"><path
         style="fill:#dc9763"
         d="m 1107.801,2026.158 c 0,-0.1721 1.4625,-1.6346 3.25,-3.25 3.25,-2.9371 3.25,-2.9371 0.3129,0.3129 -1.6154,1.7875 -3.0779,3.25 -3.25,3.25 -0.1721,0 -0.3129,-0.1408 -0.3129,-0.3129 z m -57.7479,-20.1871 c 0.011,-2.2 0.2159,-2.9822 0.4551,-1.7383 0.2392,1.2439 0.2301,3.0439 -0.02,4 -0.2502,0.9561 -0.446,-0.062 -0.4349,-2.2617 z m 49.9517,-34.4329 c 1.2449,-2.1632 2.4347,-3.7619 2.6439,-3.5526 0.2092,0.2092 -0.6076,1.979 -1.8152,3.9329 -1.2076,1.954 -2.3974,3.5526 -2.644,3.5526 -0.2465,0 0.5703,-1.7698 1.8153,-3.9329 z m -32.7667,-62.3171 c -2.9371,-3.25 -2.9371,-3.25 0.3129,-0.3129 1.7875,1.6154 3.25,3.0779 3.25,3.25 0,0.1721 -0.1408,0.3129 -0.3129,0.3129 -0.1721,0 -1.6346,-1.4625 -3.25,-3.25 z m -114.98419,-17 c -3.95295,-4.25 -3.95295,-4.25 0.29705,-0.297 2.3375,2.1741 4.25,4.0866 4.25,4.25 0,0.1634 -0.13367,0.297 -0.29705,0.297 -0.16338,0 -2.07588,-1.9125 -4.25,-4.25 z m 199.29709,-13.4557 c 1.2375,-0.2383 3.2625,-0.2383 4.5,0 1.2375,0.2384 0.225,0.4334 -2.25,0.4334 -2.475,0 -3.4875,-0.195 -2.25,-0.4334 z m -125.3129,-15.5443 c -2.9371,-3.25 -2.9371,-3.25 0.3129,-0.3129 1.7875,1.6154 3.25,3.0779 3.25,3.25 0,0.1721 -0.1408,0.3129 -0.3129,0.3129 -0.1721,0 -1.6346,-1.4625 -3.25,-3.25 z m -134.97473,-9 c -4.96241,-5.25 -4.96241,-5.25 0.28759,-0.2875 2.8875,2.7293 5.25,5.0918 5.25,5.25 0,0.1581 -0.12941,0.2875 -0.28759,0.2875 -0.15817,0 -2.52067,-2.3625 -5.25,-5.25 z m 330.53763,-0.063 c 0,-0.1721 1.4625,-1.6346 3.25,-3.25 3.25,-2.9371 3.25,-2.9371 0.3129,0.3129 -1.6154,1.7875 -3.0779,3.25 -3.25,3.25 -0.1721,0 -0.3129,-0.1408 -0.3129,-0.3129 z m -156.5,-13.2966 c -4,-3.5799 -4,-3.5799 0.25,-0.4011 2.3375,1.7483 4.25,3.3659 4.25,3.5947 0,0.2288 -0.1125,0.4093 -0.25,0.4011 -0.1375,-0.01 -2.05,-1.6258 -4.25,-3.5947 z m -189.06294,-0.6405 c -2.9371,-3.25 -2.9371,-3.25 0.3129,-0.3129 1.7875,1.6154 3.25,3.0779 3.25,3.25 0,0.1721 -0.1408,0.3129 -0.3129,0.3129 -0.1721,0 -1.6346,-1.4625 -3.25,-3.25 z m 168.08294,-20.1116 c -1.0242,-0.7489 -1.9764,-2.1402 -2.1161,-3.0917 -0.1396,-0.9514 0.05,-1.4262 0.4211,-1.055 0.3712,0.3713 0.675,1.0681 0.675,1.5486 0,0.4805 0.9,1.5537 2,2.3849 1.1,0.8312 1.7485,1.5256 1.4411,1.543 -0.3074,0.017 -1.3969,-0.5809 -2.4211,-1.3298 z m -129.6135,-15.8437 c -2.42359,-2.8629 -5.25675,-6.3504 -6.29589,-7.75 -1.03915,-1.3995 0.65011,0.1553 3.75391,3.4553 3.10379,3.3 6.10733,6.7875 6.67454,7.75 0.5672,0.9625 0.86088,1.75 0.65262,1.75 -0.20825,0 -2.36158,-2.3423 -4.78518,-5.2053 z m -11.90654,-14.7947 c -1.74243,-2.2 -2.94305,-4 -2.66805,-4 0.275,0 1.92562,1.8 3.66805,4 1.74244,2.2 2.94306,4 2.66806,4 -0.275,0 -1.92562,-1.8 -3.66806,-4 z m -102.25,1.4281 c -1.5125,-0.8206 -2.75,-1.7141 -2.75,-1.9857 0,-0.2715 1.35,0.2044 3,1.0576 1.65,0.8533 3,1.7649 3,2.0257 0,0.2609 -0.1125,0.4563 -0.25,0.4343 -0.1375,-0.022 -1.4875,-0.7114 -3,-1.5319 z m 142.57008,-22.4281 c 0,-3.575 0.18149,-5.0375 0.40332,-3.25 0.22183,1.7875 0.22183,4.7125 0,6.5 -0.22183,1.7875 -0.40332,0.325 -0.40332,-3.25 z m -58.32008,-1.5 c -2.42902,-2.475 -4.19141,-4.5 -3.91641,-4.5 0.275,0 2.48739,2.025 4.91641,4.5 2.42903,2.475 4.19142,4.5 3.91642,4.5 -0.275,0 -2.48739,-2.025 -4.91642,-4.5 z m 380.32004,-5.5 c 0,-3.575 0.1815,-5.0375 0.4034,-3.25 0.2218,1.7875 0.2218,4.7125 0,6.5 -0.2219,1.7875 -0.4034,0.325 -0.4034,-3.25 z m -249.32,-3.3129 c 0,-0.1721 1.4625,-1.6346 3.25,-3.25 3.25,-2.9371 3.25,-2.9371 0.3129,0.3129 -1.6154,1.7875 -3.0779,3.25 -3.25,3.25 -0.1721,0 -0.3129,-0.1408 -0.3129,-0.3129 z m -97.75004,-9.3764 c 0.9625,-0.2515 2.5375,-0.2515 3.5,0 0.9625,0.2515 0.175,0.4573 -1.75,0.4573 -1.925,0 -2.7125,-0.2058 -1.75,-0.4573 z m 390.00214,-2.8107 c 0.011,-2.2 0.2159,-2.9822 0.4551,-1.7383 0.2392,1.2439 0.2301,3.0439 -0.02,4 -0.2502,0.9561 -0.446,-0.062 -0.4349,-2.2617 z m -396.75214,-11.5 c -0.99548,-1.1 -1.40273,-1.9931 -0.90498,-1.9846 0.49774,0.01 1.35498,0.3459 1.90498,0.75 0.55,0.404 1.1125,1.2971 1.25,1.9846 0.1375,0.6875 0.0947,1.25 -0.095,1.25 -0.18975,0 -1.1595,-0.9 -2.15499,-2 z m 118.82814,-7.5 c 0,-3.85 0.1852,-5.3024 0.4017,-3.2276 0.2164,2.0747 0.2128,5.2247 -0.01,7 -0.2209,1.7752 -0.398,0.078 -0.3936,-3.7724 z m 228.2171,-2.456 c -4.9547,-5.544 -4.9547,-5.544 0.4524,-0.3297 2.9739,2.8679 5.2036,5.3627 4.9547,5.544 -0.2488,0.1813 -2.682,-2.1651 -5.4071,-5.2143 z m -9.5415,-8.54 c -1.2897,-1.3728 -2.1557,-2.6635 -1.9243,-2.8682 0.2313,-0.2047 1.4673,0.9185 2.7466,2.496 1.2794,1.5775 2.1453,2.8682 1.9243,2.8682 -0.2209,0 -1.4569,-1.1232 -2.7466,-2.496 z M 690.80096,1694.158 c 0,-0.1721 1.4625,-1.6346 3.25,-3.25 3.25,-2.9371 3.25,-2.9371 0.31291,0.3129 -1.6154,1.7875 -3.0779,3.25 -3.25,3.25 -0.1721,0 -0.31291,-0.1408 -0.31291,-0.3129 z m 14.87245,-5.4371 c -1.19363,-1.5219 -1.17701,-1.6011 0.12755,-0.6076 0.825,0.6284 2.4,1.3637 3.5,1.634 1.89963,0.467 1.89323,0.4975 -0.12755,0.6076 -1.17016,0.064 -2.74516,-0.6715 -3.5,-1.634 z m 327.39989,-9.25 c 0,-2.475 0.195,-3.4875 0.4334,-2.25 0.2384,1.2375 0.2384,3.2625 0,4.5 -0.2384,1.2375 -0.4334,0.225 -0.4334,-2.25 z m -331.27234,-2.3129 c 0,-0.1721 1.4625,-1.6346 3.25,-3.25 3.25,-2.9371 3.25,-2.9371 0.31291,0.3129 -1.6154,1.7875 -3.0779,3.25 -3.25,3.25 -0.1721,0 -0.31291,-0.1408 -0.31291,-0.3129 z m 40,0 c 0,-0.1721 1.4625,-1.6346 3.25,-3.25 3.25,-2.9371 3.25,-2.9371 0.31291,0.3129 -1.6154,1.7875 -3.0779,3.25 -3.25,3.25 -0.1721,0 -0.31291,-0.1408 -0.31291,-0.3129 z m -16.11477,-7.5259 c 1.11178,-1.5613 2.81198,-3.4738 3.77823,-4.25 0.96625,-0.7761 0.23695,0.5013 -1.62068,2.8388 -1.85763,2.3375 -3.55783,4.25 -3.77823,4.25 -0.22041,0 0.5089,-1.2774 1.62068,-2.8388 z m -27.88523,-2.4741 c 0,-0.1721 1.4625,-1.6346 3.25,-3.25 3.25,-2.9371 3.25,-2.9371 0.31291,0.3129 -1.6154,1.7875 -3.0779,3.25 -3.25,3.25 -0.1721,0 -0.31291,-0.1408 -0.31291,-0.3129 z m 584.76164,-17.3943 c 1.2439,-0.2392 3.0439,-0.2301 4,0.02 0.9561,0.2503 -0.062,0.446 -2.2616,0.4349 -2.2,-0.011 -2.9823,-0.2159 -1.7384,-0.4551 z m -505.26164,-7.2928 c 2.14825,-2.2 4.1309,-4 4.4059,-4 0.275,0 -1.25765,1.8 -3.4059,4 -2.14824,2.2 -4.13089,4 -4.40589,4 -0.275,0 1.25765,-1.8 3.40589,-4 z m -74.43707,-9.5768 c 1.89039,-2.2423 3.63957,-3.9148 3.88707,-3.7167 0.2475,0.1981 -1.29918,2.0327 -3.43707,4.0769 -3.88707,3.7166 -3.88707,3.7166 -0.45,-0.3602 z m 559.40511,-19.4584 c -1.0644,-1.1762 -2.5016,-1.7843 -3.4049,-1.4408 -1.2614,0.4798 -1.3192,0.3488 -0.2995,-0.6783 1.0217,-1.0293 1.7831,-0.7535 3.9773,1.4407 1.4925,1.4925 2.4561,2.7136 2.1413,2.7136 -0.3147,0 -1.4011,-0.9158 -2.4142,-2.0352 z M 825.80096,1603.158 c 0,-0.1721 1.4625,-1.6346 3.25,-3.25 3.25,-2.9371 3.25,-2.9371 0.31291,0.3129 -1.6154,1.7875 -3.0779,3.25 -3.25,3.25 -0.1721,0 -0.31291,-0.1408 -0.31291,-0.3129 z m 271.65114,-5.4371 c -0.2567,-0.4125 3.4292,-0.6293 8.191,-0.4819 4.7618,0.1474 10.6829,0.4038 13.1579,0.5697 2.475,0.166 -1.211,0.3829 -8.191,0.482 -6.9801,0.099 -12.9011,-0.1573 -13.1579,-0.5698 z m -261.65114,-3.75 c 1.86579,-1.925 3.61734,-3.5 3.89234,-3.5 0.275,0 -1.02655,1.575 -2.89234,3.5 -1.86578,1.925 -3.61733,3.5 -3.89233,3.5 -0.275,0 1.02655,-1.575 2.89233,-3.5 z m 331.19944,2.7562 c 4.7847,-0.1829 12.8847,-0.1837 18,0 5.1153,0.1819 1.2006,0.3315 -8.6994,0.3326 -9.9,10e-4 -14.0853,-0.1478 -9.3006,-0.3307 z m -92.1994,-12.2562 c -1.1749,-1.65 -1.9112,-3 -1.6362,-3 0.275,0 1.4613,1.35 2.6362,3 1.1749,1.65 1.9112,3 1.6362,3 -0.275,0 -1.4613,-1.35 -2.6362,-3 z m 184.4624,-7.25 c -4.9624,-5.25 -4.9624,-5.25 0.2876,-0.2875 2.8875,2.7293 5.25,5.0918 5.25,5.25 0,0.1581 -0.1295,0.2875 -0.2876,0.2875 -0.1582,0 -2.5207,-2.3625 -5.25,-5.25 z m -395.55222,-16.5822 c 0.53933,-1.0077 1.76618,-2.4702 2.72633,-3.25 1.08027,-0.8773 0.8388,-0.1789 -0.63346,1.8322 -1.30856,1.7875 -2.53541,3.25 -2.72633,3.25 -0.19092,0 0.0941,-0.8245 0.63346,-1.8322 z m 318.33982,-3.8571 c 0.9625,-0.2515 2.5375,-0.2515 3.5,0 0.9625,0.2515 0.175,0.4573 -1.75,0.4573 -1.925,0 -2.7125,-0.2058 -1.75,-0.4573 z m -81.7876,-22.5607 c -4.9624,-5.25 -4.9624,-5.25 0.2876,-0.2875 2.8875,2.7293 5.25,5.0918 5.25,5.25 0,0.1581 -0.1295,0.2875 -0.2876,0.2875 -0.1582,0 -2.5207,-2.3625 -5.25,-5.25 z m -13.5163,-19.5 c -3.4461,-3.75 -3.4461,-3.75 0.3039,-0.3038 2.0625,1.8954 3.75,3.5829 3.75,3.75 0,0.1671 -0.1368,0.3038 -0.3039,0.3038 -0.1671,0 -1.8546,-1.6875 -3.75,-3.75 z m -165.69614,-22.9662 c 1.5125,-0.2291 3.9875,-0.2291 5.5,0 1.5125,0.2291 0.275,0.4166 -2.75,0.4166 -3.025,0 -4.2625,-0.1875 -2.75,-0.4166 z m 241.97274,-29.0338 c -3.2068,-3.1625 -3.7813,-3.9034 -1.2766,-1.6465 2.5046,2.2569 5.6665,4.8444 7.0264,5.75 1.3598,0.9056 1.9343,1.6465 1.2766,1.6465 -0.6578,0 -3.8196,-2.5875 -7.0264,-5.75 z m -131.1598,-3.8268 c 1.8904,-2.2423 3.6396,-3.9148 3.8871,-3.7167 0.2475,0.1981 -1.2992,2.0327 -3.4371,4.0769 -3.8871,3.7166 -3.8871,3.7166 -0.45,-0.3602 z m 2.1691,-9.4232 c 0,-1.925 0.2058,-2.7125 0.4573,-1.75 0.2515,0.9625 0.2515,2.5375 0,3.5 -0.2515,0.9625 -0.4573,0.175 -0.4573,-1.75 z"
         id="path305" /><path
         style="fill:#ee6b05"
         d="m 1106.801,1955.8876 c 0,-0.8708 -0.547,-1.401 -1.2156,-1.1781 -0.6686,0.2228 -2.251,-1.1206 -3.5165,-2.9854 -1.2656,-1.8649 -2.0879,-3.7355 -1.8274,-4.1569 0.2604,-0.4214 -0.032,-2.4135 -0.6499,-4.4269 -0.618,-2.0133 -1.8361,-4.2751 -2.7071,-5.0261 -0.8709,-0.751 -7.1735,-3.4847 -14.0058,-6.0748 -6.8322,-2.5901 -14.4822,-5.7561 -17,-7.0354 -2.5177,-1.2793 -9.7527,-5.8086 -16.0777,-10.065 -6.325,-4.2564 -16.5543,-11.552 -22.7317,-16.2123 -6.1775,-4.6603 -14.0525,-11.155 -17.5,-14.4327 -3.4476,-3.2776 -5.7058,-5.6771 -5.0183,-5.3322 0.6875,0.345 1.25,0.1665 1.25,-0.3967 0,-0.5631 -0.8481,-1.4777 -1.8847,-2.0324 -1.0366,-0.5548 -3.7935,-3.2886 -6.12663,-6.0752 -2.33308,-2.7867 -3.97666,-5.3319 -3.65238,-5.6562 0.32428,-0.3243 3.75626,2.4676 7.62661,6.2041 3.8704,3.7365 7.0371,6.3674 7.0371,5.8465 0,-0.5209 -2.9665,-4.9723 -6.5922,-9.892 -3.62574,-4.9197 -7.19289,-10.1064 -7.92701,-11.526 -0.75306,-1.4563 -0.98302,-3.1504 -0.52765,-3.8872 0.5877,-0.9509 3.3128,0.9407 10.02396,6.9579 5.0692,4.5451 15.8107,14.3484 23.8698,21.785 8.0592,7.4366 19.1531,17.3842 24.6531,22.1059 5.5,4.7217 14.275,11.7914 19.5,15.7105 5.225,3.919 11.9063,8.5436 14.8475,10.2768 2.9411,1.7332 8.0794,4.2613 11.4183,5.618 3.339,1.3568 6.2842,2.2535 6.545,1.9927 0.2608,-0.2608 -0.1525,-1.2324 -0.9183,-2.159 -1.2589,-1.5231 -1.2006,-1.5711 0.6075,-0.5 1.1,0.6517 4.4488,1.9956 7.4419,2.9863 2.993,0.9908 5.6305,2.3673 5.861,3.0589 0.2855,0.8565 -0.6526,0.7033 -2.9419,-0.4802 -3.0123,-1.5573 -3.2189,-1.5663 -1.9915,-0.086 1.1043,1.3312 1.1475,2.5333 0.2227,6.2058 -0.6308,2.5051 -0.883,4.9817 -0.5605,5.5034 0.3224,0.5218 0.1097,0.9487 -0.4727,0.9487 -0.5825,0 -1.059,0.81 -1.059,1.8 0,0.99 -0.54,2.34 -1.2,3 -0.66,0.66 -1.56,1.2 -2,1.2 -0.44,0 -0.8,-0.7125 -0.8,-1.5833 z m 42.5,-64.8917 c -3.85,-0.7119 -9.868,-2.048 -13.3734,-2.9691 -3.5053,-0.921 -9.7098,-2.9999 -13.7877,-4.6198 -4.0779,-1.6199 -10.0974,-4.2997 -13.3766,-5.9551 -3.2793,-1.6554 -5.9623,-3.2807 -5.9623,-3.612 0,-0.3312 0.9,-0.3669 2,-0.079 1.1,0.2877 2,0.4269 2,0.3095 0,-0.1174 -2.9476,-2.3778 -6.5501,-5.0229 -3.6026,-2.6452 -6.3437,-5.0159 -6.0913,-5.2683 0.2524,-0.2524 4.8874,2.2126 10.3001,5.4777 5.4127,3.2651 13.2163,7.4152 17.3413,9.2224 4.125,1.8071 11.325,4.5598 16,6.1171 4.9914,1.6627 7.6987,2.2212 6.5588,1.3531 -1.0676,-0.8131 -2.3051,-1.4784 -2.75,-1.4784 -0.4448,0 -0.8088,-0.456 -0.8088,-1.0134 0,-0.5795 1.6055,-0.3265 3.75,0.5908 2.0625,0.8824 4.3863,1.8649 5.164,2.1834 0.9075,0.3716 1.155,0.16 0.691,-0.5908 -0.52,-0.8415 0.8915,-1.17 5.0271,-1.17 5.3572,0 5.6175,-0.1056 3.809,-1.5455 -1.8021,-1.4349 -1.6189,-1.4976 2.5589,-0.8749 2.475,0.3688 6.75,1.2572 9.5,1.9741 2.75,0.7169 5.9,1.6212 7,2.0095 1.9483,0.6877 1.9508,0.6676 0.097,-0.7769 -1.0465,-0.8156 -1.5825,-2.0011 -1.191,-2.6345 0.3915,-0.6335 3.0477,-1.1492 5.9028,-1.1462 2.855,0 6.9324,0.4891 9.0609,1.0801 2.4175,0.6713 3.5168,1.4276 2.9291,2.0154 -0.5175,0.5174 -4.0274,1.229 -7.7998,1.5812 -5.8276,0.5442 -6.4936,0.7895 -4.4291,1.6315 2.2594,0.9214 2.2896,1.0239 0.4299,1.4612 -1.1,0.2586 -7.6947,0.2651 -14.6549,0.014 -12.2887,-0.4427 -12.5925,-0.4038 -10.5,1.3441 2.0891,1.745 2.0938,1.7983 0.1549,1.743 -1.1,-0.031 -5.15,-0.6395 -9,-1.3515 z m 85.9689,-13.4747 c 0.3229,-0.5224 4.2869,-3.1497 8.809,-5.8385 4.5222,-2.6888 10.8798,-6.3549 14.1282,-8.1469 5.9061,-3.2581 5.9061,-3.2581 3.5,-0.2425 -1.3234,1.6586 -4.6561,4.2789 -7.4061,5.8228 -2.75,1.544 -5.3375,2.7055 -5.75,2.5811 -0.4125,-0.1245 -0.75,0.1623 -0.75,0.6372 0,0.4749 -2.6438,2.0499 -5.8751,3.5 -3.2313,1.4501 -6.1828,2.6365 -6.559,2.6365 -0.3762,0 -0.4198,-0.4274 -0.097,-0.9497 z m -49.4689,-2.0503 c -1.0489,-0.6778 0.4547,-0.9528 5,-0.9144 3.575,0.03 7.4,0.4418 8.5,0.9144 1.3793,0.5928 -0.1722,0.8765 -5,0.9144 -3.85,0.03 -7.675,-0.3812 -8.5,-0.9144 z m 30.5,-14.5233 c 1.65,-1.3483 6.9769,-4.5177 11.8376,-7.0431 4.8607,-2.5254 9.0742,-4.355 9.3634,-4.0658 0.2892,0.2892 -2.5627,2.5155 -6.3376,4.9474 -3.7749,2.4319 -8.758,5.3809 -11.0736,6.5533 -2.3156,1.1723 -4.7906,2.1154 -5.5,2.0956 -0.7094,-0.02 0.06,-1.1391 1.7102,-2.4874 z m -156.6305,-8.2477 c -5.2967,-4.2509 -15.2889,-12.8543 -22.2048,-19.1186 -6.916,-6.2644 -16.5686,-15.7144 -21.4504,-21 -4.8818,-5.2857 -11.8409,-13.2894 -15.4645,-17.786 -3.62374,-4.4966 -8.89306,-11.5908 -11.70966,-15.7648 -2.81659,-4.174 -7.12788,-11.7123 -9.58063,-16.7518 -2.45275,-5.0394 -4.45955,-9.9828 -4.45955,-10.9852 0,-1.5976 0.90447,-1.8226 7.32856,-1.8226 6.4386,0 7.86826,0.3575 11.7729,2.9439 2.44439,1.6191 5.40013,3.9816 6.56828,5.25 1.1682,1.2684 6.0494,8.1561 10.847,15.3061 4.7977,7.15 13.5066,19.8891 19.3531,28.309 5.8466,8.4199 13.8368,19.7085 17.7561,25.0859 3.9193,5.3773 9.4461,11.7332 12.2817,14.1243 2.8357,2.3911 6.0415,5.7805 7.1241,7.5322 1.0825,1.7516 1.9683,3.4691 1.9683,3.8167 0,0.3476 -0.7299,0.6319 -1.622,0.6319 -1.4935,0 -1.4942,0.1783 -0.01,2.25 0.8875,1.2375 2.0832,3.0375 2.6572,4 0.7757,1.3011 0.7137,1.7446 -0.2418,1.729 -0.7068,-0.012 -5.6188,-3.4991 -10.9156,-7.75 z m 196.2456,3.9443 c 1.3117,-1.0048 6.5262,-4.3697 11.5879,-7.4776 9.203,-5.6508 9.203,-5.6508 7.2282,-2.3037 -1.4075,2.3855 -4.2893,4.5338 -10.0308,7.4776 -4.4308,2.2717 -8.7567,4.1304 -9.6131,4.1304 -1.1073,0 -0.8682,-0.5276 0.8278,-1.8267 z m -23.6151,-10.1733 c 0.9955,-1.1 2.4152,-2 3.155,-2 0.7397,0 1.345,-0.5891 1.345,-1.3092 0,-0.7201 2.5816,-3.5326 5.737,-6.25 4.8565,-4.1825 5.389,-4.4501 3.4695,-1.7436 -1.2471,1.7585 -4.8186,5.471 -7.9366,8.25 -3.1181,2.7791 -6.0991,5.0528 -6.6245,5.0528 -0.5255,0 -0.1409,-0.9 0.8546,-2 z m 30.6984,-8.0954 c 0.2395,-0.7185 4.5922,-3.8602 9.6726,-6.9816 5.0804,-3.1213 10.9003,-6.9971 12.9331,-8.6128 2.0327,-1.6157 4.3033,-3.3008 5.0456,-3.7446 1.1182,-0.6685 1.1336,-0.4002 0.089,1.5638 -0.6932,1.3038 -2.3169,3.9735 -3.6081,5.9325 -1.5866,2.407 -4.858,4.8867 -10.0894,7.6476 -4.2579,2.2472 -9.2575,4.4043 -11.1101,4.7936 -2.5534,0.5366 -3.2631,0.3918 -2.9331,-0.5985 z m -336.69844,-11.5696 c -4.95,-3.0549 -14.4,-9.3189 -21,-13.9202 -6.6,-4.6012 -17.175,-12.4029 -23.5,-17.337 -6.325,-4.9342 -15.1,-12.3894 -19.5,-16.5672 -4.4,-4.1778 -7.1,-7.1691 -6,-6.6472 1.1,0.5219 6.88732,4.5235 12.86072,8.8926 5.97339,4.369 12.21814,8.7455 13.87723,9.7255 1.65908,0.9801 2.84676,1.3671 2.63929,0.86 -0.20748,-0.507 -5.88974,-6.0109 -12.62724,-12.2308 -6.7375,-6.22 -12.25,-11.5411 -12.25,-11.8248 0,-0.2837 1.2375,0.2852 2.75,1.2644 1.5125,0.9791 6.0125,4.4348 10,7.6792 3.9875,3.2445 7.25,5.5974 7.25,5.2287 0,-0.3687 -1.44127,-2.5351 -3.20283,-4.8142 -1.76156,-2.2792 -5.40608,-6.7315 -8.09894,-9.894 -2.98907,-3.5103 -4.32293,-5.75 -3.42453,-5.75 0.80937,0 3.33816,2.025 5.61954,4.5 2.28137,2.475 4.39381,4.5 4.69431,4.5 0.30049,0 -1.05877,-1.9588 -3.0206,-4.3529 -1.96182,-2.3942 -3.56695,-4.629 -3.56695,-4.9663 0,-0.3373 1.6875,0.367 3.75,1.5651 2.0625,1.1981 9.09597,7.3704 15.62992,13.7163 6.53395,6.3458 17.12291,17.8378 23.53103,25.5378 6.40811,7.7 13.25033,16.025 15.20493,18.5 1.9546,2.475 4.80655,6.1875 6.33766,8.25 1.53111,2.0625 2.39293,3.7251 1.91515,3.6946 -0.47778,-0.03 -4.91869,-2.5548 -9.86869,-5.6096 z m -169.55383,-68.085 c -3.44617,-3.75 -3.44617,-3.75 0.30383,-0.3038 2.0625,1.8954 3.75,3.5829 3.75,3.75 0,0.1671 -0.13672,0.3038 -0.30383,0.3038 -0.16711,0 -1.85461,-1.6875 -3.75,-3.75 z m 255.15617,-1.5 c -0.056,-0.9625 -0.5258,-1.75 -1.0433,-1.75 -0.5176,0 -1.2191,0.45 -1.559,1 -0.34,0.55 -1.1612,1 -1.8251,1 -0.6638,0 -2.5989,-2.1375 -4.3001,-4.75 -1.7012,-2.6125 -8.219,-14.2162 -14.48397,-25.7862 -6.26498,-11.5699 -12.62348,-23.6074 -14.13,-26.75 -1.50652,-3.1425 -2.40652,-5.7088 -2,-5.7027 0.40652,0.01 2.49758,2.8185 4.64679,6.25 2.14922,3.4314 7.85915,13.0985 12.68874,21.4824 4.8296,8.384 9.48365,16.2466 10.34234,17.4725 0.8587,1.226 1.5613,1.8371 1.5613,1.358 0,-0.4791 -2.08472,-4.7417 -4.63266,-9.4725 -2.54795,-4.7308 -5.54182,-10.1765 -6.65306,-12.1015 -1.75868,-3.0465 -1.21453,-2.7227 4.20039,2.5 6.22083,6 6.22083,6 1.15305,-2.6512 -2.78727,-4.7581 -5.06776,-9.0051 -5.06776,-9.4377 0,-0.4326 2.09199,2.0286 4.64885,5.4694 2.55687,3.4407 4.92779,5.8045 5.26879,5.2528 0.341,-0.5517 3.7615,3.26 7.6012,8.4704 3.8396,5.2104 7.3894,10.3604 7.8883,11.4445 0.4989,1.084 0.6046,2.2734 0.235,2.6431 -0.3697,0.3696 -2.2995,-0.8722 -4.2885,-2.7596 -3.6164,-3.4317 -3.6164,-3.4317 -0.4079,1.0683 2.4371,3.4182 3.0888,5.2213 2.7109,7.5 -0.2737,1.65 -0.9373,4.575 -1.4748,6.5 -0.5374,1.925 -1.0232,2.7125 -1.0795,1.75 z m -41.60234,-16.75 c -0.33991,-0.55 -0.029,-0.9551 0.69099,-0.9003 0.71996,0.055 2.43401,0.46 3.80901,0.9003 2.38749,0.7647 2.3564,0.8052 -0.69098,0.9004 -1.75504,0.055 -3.4691,-0.3504 -3.80902,-0.9004 z m -59.5,-5.5 c -1.86578,-1.925 -2.96655,-3.4675 -2.44616,-3.4278 0.52039,0.04 2.22799,1.6148 3.79466,3.5 1.56667,1.8853 2.66744,3.4278 2.44616,3.4278 -0.22128,0 -1.92887,-1.575 -3.79466,-3.5 z m 70,-0.072 c -3.575,-1.8522 -7.4,-3.6385 -8.5,-3.9695 -1.95738,-0.5889 -1.95945,-0.6315 -0.097,-2.0024 1.81959,-1.3393 1.72586,-1.593 -2.1376,-5.7843 -2.22234,-2.411 -4.59376,-5.461 -5.26981,-6.7779 -0.73268,-1.4271 1.02959,-0.1963 4.36286,3.0472 3.07562,2.9927 5.86412,5.1693 6.19668,4.8367 0.33255,-0.3325 -0.16727,-1.7827 -1.11072,-3.2226 -0.94345,-1.4399 -1.4733,-2.86 -1.17746,-3.1559 0.29585,-0.2958 3.21054,2.9807 6.47708,7.2812 3.26654,4.3005 6.4969,8.8702 7.17857,10.1548 0.68167,1.2846 1.09045,2.4762 0.90838,2.648 -0.18206,0.1718 -3.25602,-1.2031 -6.83102,-3.0553 z m 34.65954,-3.6784 c -1.3432,-1.7875 -4.5483,-6.5285 -7.1223,-10.5355 -2.5741,-4.0071 -4.4931,-7.8321 -4.2643,-8.5 0.2287,-0.668 2.4424,1.9355 4.9194,5.7855 2.477,3.85 5.7398,9.1375 7.2507,11.75 1.5109,2.6125 2.5021,4.75 2.2029,4.75 -0.2993,0 -1.6432,-1.4625 -2.9864,-3.25 z m -0.3458,-9.5 c -3.758,-5.3625 -7.6634,-11.0441 -8.6787,-12.6257 -1.4056,-2.1898 -1.5517,-3.0577 -0.6124,-3.6382 0.7002,-0.4328 0.8952,-1.31 0.451,-2.0288 -0.5041,-0.8156 -0.3796,-1.0172 0.3498,-0.5664 0.6228,0.3849 5.864,6.8328 11.647,14.3286 5.7831,7.4958 10.2542,13.8879 9.9359,14.2046 -0.3184,0.3168 -2.0025,-1.2077 -3.7426,-3.3878 -1.74,-2.18 -4.2162,-5.105 -5.5026,-6.5 -1.3505,-1.4644 -0.9369,-0.4942 0.9786,2.296 1.8246,2.6578 3.6646,5.0468 4.0889,5.309 0.4242,0.2622 0.7714,0.9002 0.7714,1.4178 0,0.5175 -0.6421,0.9409 -1.4267,0.9409 -0.7847,0 -4.5015,-4.3875 -8.2596,-9.75 z m -5.9261,-13.7812 c -0.9122,-1.3921 -1.8948,-2.2949 -2.1836,-2.0061 -0.2888,0.2888 0.2919,1.4278 1.2904,2.5312 0.9986,1.1034 1.9812,2.0061 2.1836,2.0061 0.2024,0 -0.3783,-1.139 -1.2904,-2.5312 z m -248.88764,9.5312 c 2.14825,-2.2 4.1309,-4 4.4059,-4 0.275,0 -1.25765,1.8 -3.4059,4 -2.14824,2.2 -4.13089,4 -4.40589,4 -0.275,0 1.25765,-1.8 3.40589,-4 z m 261.68364,-30.2039 c -1.0729,-2.3628 -4.4817,-7.326 -7.5752,-11.0292 -3.0936,-3.7032 -7.9405,-8.5637 -10.771,-10.8011 -2.8305,-2.2374 -6.63466,-4.6898 -8.45366,-5.4499 -1.819,-0.76 -5.46199,-1.699 -8.09552,-2.0866 -2.63354,-0.3876 -5.68826,-1.3288 -6.78826,-2.0915 -1.98228,-1.3745 -1.98068,-1.3918 0.18081,-1.9608 1.19944,-0.3157 1.96827,-1.1279 1.70852,-1.8048 -0.28846,-0.7517 1.10073,-1.702 3.5692,-2.4416 2.22281,-0.666 4.04147,-1.8412 4.04147,-2.6117 0,-0.7704 -0.45,-1.6789 -1,-2.0189 -0.55,-0.3399 -1,-1.3189 -1,-2.1755 0,-1.3236 0.98835,-1.4516 6.58251,-0.8525 6.25773,0.6701 6.53243,0.6113 5.56686,-1.1929 -0.55861,-1.0437 -4.53324,-5.3155 -8.83251,-9.4929 -4.29927,-4.1773 -9.61686,-9.2415 -11.81686,-11.2537 -3.47916,-3.1822 -3.67447,-3.5707 -1.5,-2.9843 1.375,0.3709 9.19494,4.0234 17.37764,8.1169 8.1827,4.0934 14.6318,6.8558 14.3313,6.1387 -0.3005,-0.717 -2.3166,-5.3538 -4.4803,-10.3038 -2.1637,-4.95 -4.7211,-11.3916 -5.68319,-14.3147 -0.96207,-2.9232 -1.49242,-5.5716 -1.17855,-5.8855 0.31386,-0.3138 1.37221,0.841 2.35184,2.5664 0.9894,1.7424 2.3538,2.9215 3.0691,2.6523 0.7083,-0.2666 1.5231,0.1282 1.8106,0.8774 0.2994,0.7804 1.7078,1.2689 3.2976,1.1438 1.5263,-0.1201 3.4115,-0.6212 4.1895,-1.1137 0.7779,-0.4924 1.6864,-0.9022 2.0187,-0.9106 0.3323,-0.01 1.8842,-1.5365 3.4486,-3.3958 2.634,-3.1303 2.6818,-3.3288 0.6458,-2.6826 -1.9928,0.6325 -2.1986,0.3535 -2.1986,-2.9794 0,-3.0165 0.8983,-4.6601 5,-9.1479 2.75,-3.009 5,-5.8222 5,-6.2516 0,-0.4294 -1.125,-0.5657 -2.5,-0.3028 -1.375,0.2628 -2.5,0.1637 -2.5,-0.2204 0,-0.384 1.664,-2.799 3.6979,-5.3666 3.6979,-4.6683 3.6979,-4.6683 -0.979,-0.2306 -2.5724,2.4407 -4.9515,4.1632 -5.2869,3.8277 -0.3354,-0.3354 1.2847,-2.3324 3.6003,-4.4376 2.3156,-2.1053 4.9431,-4.2393 5.8389,-4.7423 0.8958,-0.503 1.9418,-1.39 2.3244,-1.971 0.3826,-0.5811 0.4976,-1.2546 0.2555,-1.4967 -0.2421,-0.242 -2.6608,1.4324 -5.375,3.7211 -2.7142,2.2886 -5.1645,4.1611 -5.445,4.1611 -0.2805,0 -0.821,-3.1563 -1.2012,-7.014 -0.5875,-5.9625 -0.9079,-6.8342 -2.1367,-5.8143 -1.1369,0.9435 -1.6299,0.9016 -2.3084,-0.1962 -0.7153,-1.1574 -1.2149,-1.0772 -2.9238,0.4693 -2.0431,1.849 -2.061,1.8355 -2.061,-1.543 0,-2.4148 0.8016,-4.1737 2.75,-6.0343 1.5125,-1.4444 3.5883,-4.0735 4.613,-5.8425 1.8501,-3.194 1.849,-3.2088 -0.1629,-2.1321 -1.1143,0.5964 -4.1542,3.5754 -6.7554,6.6201 -2.6011,3.0447 -4.9716,5.2935 -5.2677,4.9974 -0.2961,-0.2961 -1.8024,0.6726 -3.3473,2.1527 -1.5449,1.4801 -3.11534,2.3847 -3.48991,2.0101 -0.37458,-0.3746 0.22211,-1.6918 1.32596,-2.9271 1.10385,-1.2353 3.01575,-3.8211 4.24865,-5.7461 1.7167,-2.6804 1.0287,-2.2121 -2.9386,2 -3.57804,3.799 -5.03315,4.8434 -4.70478,3.3768 0.3773,-1.6851 0.0889,-2.0221 -1.39783,-1.6334 -1.4217,0.3718 -1.87323,-0.053 -1.87323,-1.7635 0,-1.5118 2.35501,-4.4298 7.15588,-8.8666 5.34546,-4.9401 7.92196,-8.2578 10.18376,-13.1133 2.5981,-5.5773 3.0893,-7.9657 3.4604,-16.8259 0.3049,-7.282 0.8197,-10.4746 1.7462,-10.8302 0.7226,-0.2772 2.9834,0.2882 5.024,1.2565 2.0406,0.9683 4.5915,3.2544 5.6687,5.0801 1.0773,1.8258 2.5892,3.3195 3.3598,3.3195 0.7707,0 1.4013,0.4155 1.4013,0.9233 0,0.5078 1.165,2.3078 2.5889,4 1.4238,1.6922 3.0686,3.0767 3.6549,3.0767 0.5864,0 0.2517,-0.9 -0.7438,-2 -0.9955,-1.1 -1.4242,-2 -0.9526,-2 0.4715,0 2.394,1.4625 4.2721,3.25 3.4147,3.25 3.4147,3.25 1.7976,0.05 -0.8894,-1.7602 -1.6171,-3.4301 -1.6171,-3.7109 0,-0.2809 3.2498,1.0468 7.2218,2.9503 3.9719,1.9035 8.0686,3.4609 9.1035,3.4609 1.6051,0 1.4164,-0.5301 -1.2834,-3.605 -1.7409,-1.9827 -2.9351,-3.8351 -2.6538,-4.1164 0.2813,-0.2813 3.0835,0.5535 6.2272,1.855 4.0463,1.6752 5.8325,2.0177 6.1149,1.1726 0.2194,-0.6566 1.0449,-0.9459 1.8344,-0.643 0.7894,0.303 1.4354,0.053 1.4354,-0.5562 0,-0.6088 1.35,-1.107 3,-1.107 1.65,0 3,-0.4585 3,-1.019 0,-0.6115 1.0959,-0.744 2.7401,-0.3313 1.507,0.3782 3.3097,1.2573 4.0059,1.9535 0.6962,0.6962 2.1889,1.5588 3.3172,1.9169 1.1282,0.3581 2.4756,1.7669 2.994,3.1306 0.5185,1.3638 0.9428,5.2807 0.9428,8.7043 0,3.4237 -0.6901,8.874 -1.5334,12.112 -0.8434,3.2379 -2.91,8.7714 -4.5925,12.2968 -1.6825,3.5253 -4.255,8.3815 -5.7166,10.7914 -1.4617,2.4099 -3.2466,4.3959 -3.9666,4.4132 -0.7199,0.017 -1.0628,0.43 -0.7619,0.9168 0.3008,0.4868 0.1549,2.1743 -0.3243,3.75 -0.4793,1.5757 -1.4669,4.8898 -2.1948,7.3648 -0.7278,2.475 -1.9053,4.8599 -2.6166,5.2997 -0.7113,0.4399 -1.2933,1.4355 -1.2933,2.2125 0,0.7771 -0.9639,3.989 -2.142,7.1378 -1.1781,3.1487 -3.1377,6.7206 -4.3547,7.9376 -1.217,1.217 -2.4737,2.8929 -2.7927,3.7242 -0.319,0.8314 -7.3505,11.4055 -15.6254,23.4981 -15.0454,21.9865 -15.0454,21.9865 -11.9588,27.9713 2.4442,4.7393 3.2263,7.7809 3.7577,14.6144 0.6046,7.7765 0.4706,8.8669 -1.3566,11.0308 -1.1151,1.3207 -3.0098,2.6858 -4.2104,3.0335 -1.841,0.5333 -2.4882,-0.04 -4.1335,-3.6638 z m -335.18364,-4.109 c 0,-0.1721 1.4625,-1.6346 3.25,-3.25 3.25,-2.9371 3.25,-2.9371 0.31291,0.3129 -1.6154,1.7875 -3.0779,3.25 -3.25,3.25 -0.1721,0 -0.31291,-0.1408 -0.31291,-0.3129 z m 88,-52.0704 c 0,-0.2109 0.79469,-0.5912 1.76597,-0.8452 0.97129,-0.254 2.65879,-0.1131 3.75,0.3131 1.51126,0.5902 1.09045,0.7916 -1.76597,0.8452 -2.0625,0.039 -3.75,-0.1023 -3.75,-0.3131 z m 22.39302,-8.1984 c 0.33384,-0.87 0.69312,-6.1575 0.7984,-11.75 0.19142,-10.1683 0.19142,-10.1683 0.75,-0.6683 0.55858,9.5 0.55858,9.5 2.48261,3.5 1.21464,-3.7878 1.87375,-8.4887 1.78766,-12.75 -0.075,-3.7125 0.28086,-6.75 0.7908,-6.75 0.50993,0 1.40387,0.8908 1.98653,1.9795 0.58266,1.0887 0.7476,3.2218 0.36652,4.7401 -0.62,2.4703 -0.53298,2.6007 0.82745,1.2403 0.83618,-0.8362 1.74697,-3.8791 2.02399,-6.7621 0.27701,-2.8829 0.83056,-5.5686 1.23011,-5.9682 0.39954,-0.3995 1.37911,0.1662 2.17682,1.2571 1.43151,1.9577 1.45799,1.9544 2.03487,-0.2516 0.32147,-1.2293 1.342,-2.2351 2.26786,-2.2351 0.92585,0 2.22336,0.54 2.88336,1.2 0.66,0.66 1.2,0.8627 1.2,0.4504 0,-0.4123 -0.70818,-2.1191 -1.57373,-3.7929 -0.86556,-1.6738 -1.30882,-3.3082 -0.98502,-3.632 0.32379,-0.3238 2.21448,0.9555 4.20152,2.8429 1.98704,1.8874 3.44022,2.9816 3.22929,2.4316 -0.21093,-0.55 -1.64869,-3.4072 -3.19502,-6.3494 -1.54632,-2.9422 -2.52144,-5.6395 -2.16692,-5.994 0.35452,-0.3545 2.40977,1.2478 4.56723,3.5607 2.15746,2.3129 3.92265,3.9277 3.92265,3.5884 0,-0.3393 -1.17044,-2.1514 -2.60098,-4.0269 -1.43055,-1.8756 -2.39353,-3.6176 -2.13998,-3.8711 0.25356,-0.2536 2.08699,1.213 4.0743,3.259 1.9873,2.046 3.88681,3.4465 4.22113,3.1122 0.33431,-0.3343 -1.45367,-3.1388 -3.97331,-6.2323 -2.51964,-3.0934 -4.58116,-6.0569 -4.58116,-6.5855 0,-0.5286 0.5625,-0.9612 1.25,-0.9614 0.6875,-2e-4 3.34121,2.3623 5.89713,5.25 2.55592,2.8877 4.90408,5.0022 5.21813,4.6989 0.31406,-0.3033 -1.95031,-4.0302 -5.03192,-8.2819 -3.08162,-4.2517 -5.33669,-7.9966 -5.01127,-8.3221 0.32543,-0.3254 1.28703,-0.3248 2.13689,0 0.84987,0.3262 3.6765,3.5317 6.2814,7.1236 2.6049,3.5918 5.3422,6.5305 6.0829,6.5305 0.74455,0 -0.39904,-1.9832 -2.55758,-4.4355 -2.14737,-2.4395 -5.17746,-6.2727 -6.73354,-8.5181 -1.55609,-2.2454 -2.54827,-4.3636 -2.20486,-4.707 0.34342,-0.3434 1.29055,-0.072 2.10475,0.6042 0.8142,0.6758 1.91411,0.9606 2.44425,0.6329 0.53014,-0.3276 5.08656,2.1619 10.12539,5.5323 5.97256,3.995 8.82097,6.4686 8.18316,7.1064 -0.63781,0.6378 -2.84172,-0.2064 -6.33159,-2.4253 -2.94428,-1.8719 -6.02824,-3.811 -6.85324,-4.3089 -0.825,-0.4979 -0.005,0.984 1.82304,3.293 1.82767,2.3091 3.74222,4.4574 4.25456,4.774 0.51233,0.3166 -0.53304,2.3987 -2.32304,4.6268 -1.79001,2.2281 -7.29176,8.5626 -12.22613,14.0767 -8.97157,10.0256 -8.97157,10.0256 -10.12945,7.1929 -1.12716,-2.7576 -1.17626,-2.6883 -1.85076,2.6114 -0.38109,2.9944 -0.93453,6.2912 -1.22987,7.3264 -0.42951,1.5054 -0.7122,1.6055 -1.41236,0.5 -0.48145,-0.7602 -0.88225,-2.8305 -0.89067,-4.6008 -0.0113,-2.3728 -0.39018,-3.0747 -1.44185,-2.6712 -0.78459,0.3011 -2.41147,3.7745 -3.61529,7.7186 -1.20381,3.9442 -2.27375,7.72 -2.37763,8.3908 -0.10388,0.6707 -2.1895,2.575 -4.63471,4.2318 -2.44521,1.6567 -4.83148,3.0204 -5.30282,3.0304 -0.47135,0.01 -0.58385,-0.6936 -0.25,-1.5635 z m 34.60698,-25.7312 c 0,-0.1721 1.4625,-1.6346 3.25,-3.25 3.25,-2.9371 3.25,-2.9371 0.31291,0.3129 -1.6154,1.7875 -3.0779,3.25 -3.25,3.25 -0.1721,0 -0.31291,-0.1408 -0.31291,-0.3129 z m 312.77644,-0.4205 c 2.352,-0.2113 5.952,-0.2083 8,0.01 2.048,0.2148 0.1236,0.3877 -4.2764,0.384 -4.4,0 -6.0756,-0.1794 -3.7236,-0.3906 z m -304.77644,-7.5795 c 0,-0.1721 1.4625,-1.6346 3.25,-3.25 3.25,-2.9371 3.25,-2.9371 0.31291,0.3129 -1.6154,1.7875 -3.0779,3.25 -3.25,3.25 -0.1721,0 -0.31291,-0.1408 -0.31291,-0.3129 z m 237.00914,-4.176 c -0.6797,-0.819 -1.7473,-1.1968 -2.3724,-0.8397 -0.6252,0.3571 -0.8031,0.2811 -0.3954,-0.169 0.4077,-0.4501 0.1999,-1.5347 -0.4618,-2.4103 -0.6617,-0.8756 0.2422,-0.2704 2.0087,1.345 1.7665,1.6154 3.2118,3.0779 3.2118,3.25 0,0.1721 -0.1699,0.3129 -0.3776,0.3129 -0.2076,0 -0.9336,-0.67 -1.6133,-1.4889 z m -228.58822,-21.0985 c -1.6935,-0.8232 -5.23318,-3.6838 -7.86597,-6.3568 -2.63279,-2.6729 -4.6116,-5.3858 -4.39736,-6.0285 0.24017,-0.7205 1.84337,-0.013 4.18115,1.8446 2.08539,1.6573 5.59141,4.6392 7.79115,6.6265 2.19975,1.9874 3.85792,4.0179 3.68483,4.5122 -0.17309,0.4944 -1.7003,0.2253 -3.3938,-0.598 z m 3.40581,-4.0886 c -1.8297,-1.4718 -5.46423,-4.7173 -8.07673,-7.2124 -2.6125,-2.495 -4.75,-4.8908 -4.75,-5.324 0,-0.4331 0.60844,-0.7876 1.35208,-0.7876 0.74364,0 5.01864,3.1737 9.5,7.0525 4.48136,3.8789 8.14792,7.4789 8.14792,8 0,0.5212 -0.64047,0.9475 -1.42327,0.9475 -0.7828,0 -2.9203,-1.2042 -4.75,-2.676 z m -3.59214,-11.3261 c -3.29633,-2.2012 -6.56854,-4.6953 -7.27158,-5.5424 -0.75926,-0.9149 -0.90974,-1.8907 -0.37062,-2.4036 0.52385,-0.4983 3.84778,1.8452 7.8613,5.5424 3.82452,3.5232 6.6883,6.4057 6.36395,6.4057 -0.32435,0 -3.28673,-1.8009 -6.58305,-4.0021 z m 2.57474,-3.8951 c -4.02013,-3.2434 -8.40027,-7.0684 -9.73364,-8.5 -1.44719,-1.5537 -1.90143,-2.6028 -1.12699,-2.6028 0.71353,0 4.22163,2.0868 7.79579,4.6373 3.57416,2.5504 8.01881,5.972 9.87699,7.6036 1.85819,1.6315 3.37852,3.3697 3.37852,3.8627 0,0.4931 -0.6483,0.8964 -1.44067,0.8964 -0.79237,0 -4.72987,-2.6537 -8.75,-5.8972 z m 270.94071,3.1739 c 1.7875,-0.2219 4.7125,-0.2219 6.5,0 1.7875,0.2218 0.325,0.4033 -3.25,0.4033 -3.575,0 -5.0375,-0.1815 -3.25,-0.4033 z m -262.31996,-4.2777 c -1.68847,-1.082 -4.52217,-3.7744 -6.29713,-5.9831 -1.77495,-2.2087 -2.91858,-4.0159 -2.54139,-4.0159 0.37719,0 3.7734,2.5261 7.54713,5.6135 3.77372,3.0874 6.86131,5.7874 6.86131,6 0,0.2126 -0.5625,0.379 -1.25,0.3697 -0.6875,-0.01 -2.63146,-0.9022 -4.31992,-1.9842 z m 12.81992,-1.4408 c -3.3695,-0.8162 -5.25,-0.9094 -5.25,-0.26 0,0.5565 -0.82293,0.2671 -1.82874,-0.6432 -1.0058,-0.9102 -2.18517,-1.655 -2.6208,-1.655 -0.43564,0 -4.11271,-2.1035 -8.17126,-4.6745 -4.05856,-2.571 -7.3792,-4.8159 -7.3792,-4.9888 0,-0.1728 1.2375,-0.224 2.75,-0.1138 1.5125,0.1103 5.42106,2.1255 8.68569,4.4783 3.26462,2.3529 7.4481,4.5616 9.29662,4.9084 1.84852,0.3468 3.59088,0.4006 3.8719,0.1196 0.28102,-0.281 -0.97746,-1.5552 -2.79663,-2.8315 -1.81917,-1.2762 -6.79508,-5.2221 -11.05758,-8.7686 -4.2625,-3.5464 -7.75,-6.8263 -7.75,-7.2886 0,-0.4622 0.40271,-0.8405 0.89491,-0.8405 0.4922,0 4.4297,2.5354 8.75,5.6341 4.3203,3.0988 10.0769,7.6308 12.79244,10.0712 2.71554,2.4405 6.20304,5.0917 7.75,5.8916 1.54696,0.8 2.81265,1.668 2.81265,1.9288 0,0.2609 -1.2375,0.4361 -2.75,0.3893 -1.5125,-0.047 -5.1125,-0.6573 -8,-1.3568 z m 9.25,-1.9794 c -1.65,-0.7387 -4.47342,-2.8101 -6.27427,-4.6033 -1.80085,-1.7931 -3.06587,-3.4686 -2.81116,-3.7234 0.25471,-0.2547 3.19064,1.6357 6.52428,4.2009 3.33363,2.5652 6.06115,4.8626 6.06115,5.1055 0,0.2428 -0.1125,0.4239 -0.25,0.4024 -0.1375,-0.022 -1.6,-0.6435 -3.25,-1.3821 z m -30.5,-12.1745 c -2.475,-1.4145 -4.6875,-2.7591 -4.91666,-2.988 -0.22917,-0.2289 0.46283,-0.4163 1.53777,-0.4163 1.07494,0 3.51244,1.3318 5.41667,2.9594 1.90422,1.6277 3.23722,2.9722 2.96222,2.988 -0.275,0.016 -2.525,-1.1287 -5,-2.5431 z m 260.07894,-30.9115 c -0.045,-0.5734 -2.0201,-0.8528 -4.5864,-0.6487 -4.0293,0.3205 -4.438,0.1621 -3.8528,-1.4928 0.5359,-1.5154 0.4102,-1.6245 -0.6926,-0.6013 -0.7409,0.6875 -2.35,1.25 -3.5757,1.25 -1.2257,0 -2.9036,-0.675 -3.7286,-1.5 -0.825,-0.825 -2.0946,-1.5071 -2.8214,-1.5159 -0.7268,-0.01 -2.8252,-1.3416 -4.6631,-2.9617 -1.8379,-1.6202 -4.2329,-3.2286 -5.3223,-3.5744 -1.106,-0.351 -1.7558,-1.2146 -1.4715,-1.9555 0.28,-0.7298 -0.1881,-1.5945 -1.0403,-1.9215 -1.2515,-0.4803 -1.312,-0.8808 -0.3144,-2.0828 0.8577,-1.0334 0.8921,-1.4882 0.1126,-1.4882 -0.6173,0 -1.1224,-0.6664 -1.1224,-1.4809 0,-0.8145 1.124,-1.7631 2.4977,-2.1078 2.4978,-0.6269 2.4978,-0.6269 -0.045,-2.6271 -1.6936,-1.3322 -3.4459,-1.8274 -5.2475,-1.4831 -1.4876,0.2844 -4.2215,-0.1166 -6.0752,-0.8912 -1.8538,-0.7746 -8.9414,-4.826 -15.7503,-9.0033 -6.8088,-4.1773 -12.3797,-7.9296 -12.3797,-8.3385 0,-0.4089 2.5875,-2.0153 5.75,-3.5696 3.1625,-1.5543 7.734,-3.4274 10.1589,-4.1623 2.4249,-0.7349 5.0731,-1.3362 5.8849,-1.3362 0.9777,0 0.6709,0.6323 -0.909,1.8732 -1.3116,1.0303 -5.2128,3.4396 -8.6691,5.3541 -6.2843,3.4808 -6.2843,3.4808 2,6.534 4.5563,1.6792 10.9843,4.2612 14.2843,5.7376 6,2.6846 6,2.6846 3.6138,0.1335 -2.3862,-2.5511 -2.3862,-2.5511 0.2018,-3.7303 1.4234,-0.6485 3.2847,-2.6473 4.1362,-4.4417 0.8515,-1.7945 1.5482,-3.7373 1.5482,-4.3174 0,-0.5801 -3.2067,-2.9275 -7.1259,-5.2165 -3.9192,-2.2889 -12.5138,-6.9796 -19.099,-10.4238 -6.5853,-3.4442 -11.5911,-6.4913 -11.1242,-6.7714 0.467,-0.28 3.5341,-1.0613 6.8158,-1.7361 3.5404,-0.728 8.5263,-0.9647 12.2611,-0.5821 3.462,0.3547 7.4815,1.0962 8.9322,1.6478 2.419,0.9197 2.5217,0.8603 1.2388,-0.7158 -1.0504,-1.2904 -0.3466,-1.1316 2.8249,0.6376 2.323,1.2958 6.0376,4.152 8.2546,6.3471 2.2555,2.2331 4.471,5.6253 5.03,7.7014 0.6296,2.3381 0.6705,6.0696 0.1105,10.0896 -0.4887,3.5086 -0.7956,6.4865 -0.682,6.6176 0.1136,0.1311 1.4945,-2.4564 3.0687,-5.75 1.5742,-3.2936 3.481,-5.9884 4.2373,-5.9884 0.7564,0 1.066,-0.5002 0.6882,-1.1116 -0.3871,-0.6263 1.3413,-3.0005 3.9588,-5.4383 2.5553,-2.3796 5.5444,-4.6118 6.6425,-4.9603 1.0982,-0.3486 1.7678,-1.0042 1.4879,-1.457 -0.2798,-0.4527 0.2005,-1.0953 1.0673,-1.428 0.8668,-0.3326 2.4392,-0.6048 3.4943,-0.6048 1.055,0 1.9182,-0.6204 1.9182,-1.3786 0,-0.7583 1.35,-1.9379 3,-2.6214 1.65,-0.6834 3,-1.6868 3,-2.2297 0,-0.5445 1.0837,-0.7151 2.4172,-0.3804 1.4989,0.3762 2.5733,0.1385 2.828,-0.6256 0.2456,-0.7368 2.5912,-1.317 5.8328,-1.4429 2.9821,-0.1159 7.0731,0.023 9.0913,0.3083 2.1407,0.3027 5.2273,1.8657 7.4093,3.7519 3.74,3.233 3.74,3.233 3.5284,10.6757 -0.1862,6.5517 0.1571,8.1787 2.8674,13.59 1.6934,3.381 5.0819,7.9935 7.5299,10.25 2.4481,2.2565 4.2019,4.1027 3.8974,4.1027 -0.3045,0 -3.107,-1.978 -6.2277,-4.3955 -3.1207,-2.4176 -6.8515,-5.6801 -8.2906,-7.25 -1.4391,-1.57 -4.4953,-6.1151 -6.7917,-10.1003 -2.5675,-4.456 -5.2845,-7.8196 -7.0562,-8.7358 -1.5845,-0.8194 -4.1532,-1.5785 -5.7082,-1.687 -1.5551,-0.1084 -4.0648,-0.1148 -5.5773,-0.014 -2.2179,0.1475 -2.75,0.6666 -2.75,2.6828 0,1.8334 -0.5334,2.5 -2,2.5 -1.1,0 -2.8625,0.8625 -3.9167,1.9167 -1.0542,1.0542 -2.1792,1.6542 -2.5,1.3333 -0.3208,-0.3208 -0.5833,0.8614 -0.5833,2.6272 0,2.5029 -0.3857,3.1458 -1.75,2.9167 -1.2821,-0.2153 -1.8399,0.4956 -2.086,2.6588 -0.1848,1.6239 -1.0848,3.509 -2,4.1891 -1.3478,1.0015 -1.4412,1.602 -0.4912,3.1602 0.943,1.5467 0.852,2.2447 -0.4643,3.5609 -1.4446,1.4447 -1.4544,1.6371 -0.083,1.6371 0.8545,0 2.0668,1.1261 2.6939,2.5023 0.627,1.3763 2.6118,3.3996 4.4105,4.4963 1.7987,1.0967 4.9579,1.9957 7.0204,1.9977 2.5216,0 3.75,0.4562 3.75,1.385 0,0.8045 -1.8968,1.8589 -4.5419,2.525 -2.545,0.6408 -6.1203,2.5901 -8.1318,4.4335 -3.5385,3.2428 -3.5716,3.3459 -2.3195,7.225 0.6987,2.1644 1.7102,4.9034 2.2479,6.0866 0.5377,1.1833 0.7359,2.7583 0.4404,3.5 -0.2955,0.7418 -0.5728,0.8954 -0.6162,0.3414 z m 62.9882,-21.9213 c -1.2548,-1.3357 -2.1158,-2.9255 -1.9133,-3.533 0.2232,-0.6695 1.5804,-0.2054 3.4467,1.1786 1.6932,1.2556 2.8883,2.8454 2.6557,3.5329 -0.2326,0.6875 -0.757,1.25 -1.1653,1.25 -0.4082,0 -1.769,-1.0928 -3.0238,-2.4285 z m -49.0744,-16.4248 c -1.9428,-1.9429 -2.9927,-4.0066 -2.9927,-5.8826 0,-1.8609 0.9987,-3.8467 2.8047,-5.577 1.8253,-1.7487 3.8999,-2.6871 5.941,-2.6871 1.7249,0 3.3951,0.419 3.7116,0.9309 0.3164,0.512 0.1179,1.2136 -0.441,1.5591 -0.559,0.3454 -1.0163,1.329 -1.0163,2.1857 0,1.0653 0.6321,1.3923 2,1.0346 1.546,-0.4043 1.9965,-0.034 1.9847,1.6334 -0.012,1.637 -0.2282,1.8202 -0.8991,0.7606 -0.4861,-0.7676 -1.6042,-1.1192 -2.4847,-0.7814 -0.8805,0.3379 -1.6009,1.356 -1.6009,2.2624 0,1.1557 0.5974,1.4918 2,1.125 1.2131,-0.3172 2,-0.031 2,0.7284 0,0.6882 -0.7875,1.9429 -1.75,2.7881 -0.9625,0.8452 -2.7658,1.8463 -4.0073,2.2247 -1.7198,0.5241 -2.9697,-0.025 -5.25,-2.3048 z"
         id="path304" /><path
         style="fill:#040202"
         d="m 1067.301,2029.4938 c -10.4618,-5.5078 -13.3414,-7.4961 -14.7485,-10.1835 -1.2664,-2.4188 -1.7489,-5.6908 -1.75,-11.8692 -8e-4,-4.6914 0.6747,-13.9164 1.5012,-20.5 0.8264,-6.5836 2.1082,-14.2285 2.8484,-16.9888 0.7402,-2.7602 3.214,-8.0937 5.4973,-11.8522 2.2834,-3.7584 4.1508,-6.9001 4.1498,-6.9814 -10e-4,-0.081 -2.3635,-0.2063 -5.25,-0.278 -3.3449,-0.083 -8.8749,-1.4854 -15.2482,-3.8671 -5.5,-2.0552 -17.425,-7.4956 -26.5,-12.0897 -9.075,-4.5941 -21.45004,-11.4697 -27.50004,-15.2792 -6.05,-3.8095 -15.46379,-10.2355 -20.91953,-14.2801 -5.45574,-4.0445 -12.73977,-10.1249 -16.18674,-13.5121 -3.44696,-3.3871 -7.42825,-8.4496 -8.84731,-11.25 -1.41906,-2.8003 -2.73563,-5.0916 -2.92572,-5.0916 -0.19009,0 -3.55706,1.3243 -7.48215,2.9429 -3.92509,1.6186 -8.52024,3.7561 -10.21145,4.75 -1.6912,0.9939 -4.61837,4.3438 -6.50481,7.4442 -1.88644,3.1004 -5.17844,7.2168 -7.31555,9.1476 -2.1371,1.9307 -4.84033,3.8134 -6.00716,4.1837 -1.16683,0.3704 -2.78147,1.9496 -3.58809,3.5094 -0.80661,1.5599 -3.26507,3.6655 -5.46323,4.6792 -3.39132,1.5639 -4.00057,2.3118 -4.02246,4.9381 -0.0142,1.7022 -0.84873,3.8397 -1.85454,4.75 -1.0058,0.9102 -2.77366,1.6549 -3.92857,1.6549 -1.1549,0 -2.8063,-0.7064 -3.66976,-1.5699 -0.86346,-0.8634 -1.83131,-2.6114 -2.15079,-3.8843 -0.35603,-1.4185 0.23737,-3.8106 1.53305,-6.18 1.16265,-2.1262 3.67416,-6.3408 5.58114,-9.3658 1.90698,-3.025 5.5186,-10.3493 8.02583,-16.2762 3.28285,-7.7604 4.71592,-12.6579 5.12073,-17.5 0.56212,-6.7238 0.56212,-6.7238 -10.81038,-17.7275 -6.25488,-6.0521 -15.81592,-14.7358 -21.24677,-19.2972 -5.43085,-4.5613 -12.47045,-10.0563 -15.64357,-12.2112 -3.17312,-2.1548 -16.2797,-9.834 -29.12574,-17.0648 -12.84603,-7.2308 -30.33143,-17.7573 -38.85643,-23.3923 -8.525,-5.6349 -18.9535,-13.4722 -23.17446,-17.4163 -4.46153,-4.1688 -8.59826,-9.0792 -9.88105,-11.7291 -1.78137,-3.6798 -2.1045,-5.684 -1.67684,-10.4003 0.33585,-3.7039 1.55708,-7.7297 3.33666,-10.9994 1.5554,-2.8577 6.42268,-8.5744 10.91637,-12.8214 4.82057,-4.5559 11.53035,-9.5907 16.54439,-12.4142 6.03943,-3.401 9.5368,-4.75 12.31477,-4.75 2.93826,0 10.36722,-3.1584 30.61179,-13.0143 26.73195,-13.0143 26.73195,-13.0143 46.19363,-17.4269 10.70392,-2.4269 22.35362,-5.1606 25.88821,-6.0748 3.53459,-0.9142 6.55264,-1.7857 6.70677,-1.9367 0.15413,-0.151 -0.20861,-3.4252 -0.80608,-7.276 -0.97004,-6.252 -0.8584,-7.685 1.0429,-13.3864 1.17108,-3.5117 3.87338,-9.6395 6.00512,-13.6172 2.90252,-5.4161 4.5023,-10.3132 6.37022,-19.5 1.37188,-6.7473 2.96845,-14.9678 3.54793,-18.2678 0.57948,-3.3 1.70662,-11.175 2.50476,-17.5 0.79813,-6.325 1.74876,-12.9275 2.1125,-14.6723 0.65136,-3.1244 0.59558,-3.1805 -3.69812,-3.7183 -2.39771,-0.3003 -8.85947,-0.819 -14.35947,-1.1527 -5.5,-0.3338 -15.85,-1.2437 -23,-2.0221 -7.15,-0.7784 -13.37803,-1.4196 -13.84006,-1.4249 -0.46204,-0.01 -0.68704,1.9187 -0.5,4.2757 0.26107,3.2898 -0.19352,4.974 -1.95689,7.25 -1.26332,1.6305 -4.98814,6.5646 -8.27736,10.9646 -3.28922,4.4 -10.13059,12.2215 -15.20304,17.381 -5.07246,5.1595 -12.49562,12.3115 -16.49592,15.8934 -4.0003,3.5818 -7.4335,6.3354 -7.62934,6.119 -0.19583,-0.2163 0.0998,-3.5039 0.65689,-7.3056 0.95679,-6.529 1.07644,-6.7569 2.15777,-4.1115 1.14481,2.8008 1.14481,2.8008 10.11638,-7.2248 4.93437,-5.5141 10.43612,-11.8486 12.22613,-14.0767 1.79,-2.2281 2.83537,-4.3102 2.32304,-4.6268 -0.51234,-0.3166 -2.42689,-2.4649 -4.25456,-4.774 -1.82767,-2.309 -2.64804,-3.7909 -1.82304,-3.293 0.825,0.4979 3.90896,2.437 6.85324,4.3089 3.48987,2.2189 5.69378,3.0631 6.33159,2.4253 0.63781,-0.6378 -2.2106,-3.1114 -8.18316,-7.1064 -5.03883,-3.3704 -9.59525,-5.8599 -10.12539,-5.5323 -0.53014,0.3277 -1.63005,0.043 -2.44425,-0.6329 -0.8142,-0.6757 -1.76133,-0.9476 -2.10475,-0.6042 -0.34341,0.3434 0.64877,2.4616 2.20486,4.707 1.55608,2.2454 4.58617,6.0786 6.73354,8.5181 2.15854,2.4523 3.30213,4.4355 2.55758,4.4355 -0.7407,0 -3.478,-2.9387 -6.0829,-6.5305 -2.6049,-3.5919 -5.43153,-6.7974 -6.2814,-7.1236 -0.84986,-0.3261 -1.81146,-0.3267 -2.13689,0 -0.32542,0.3255 1.92965,4.0704 5.01127,8.3221 3.08161,4.2517 5.34598,7.9786 5.03192,8.2819 -0.31405,0.3033 -2.66221,-1.8112 -5.21813,-4.6989 -2.55592,-2.8877 -5.20963,-5.2502 -5.89713,-5.25 -0.6875,2e-4 -1.25,0.4328 -1.25,0.9614 0,0.5286 2.06152,3.4921 4.58116,6.5855 2.51964,3.0935 4.30762,5.898 3.97331,6.2323 -0.33432,0.3343 -2.23383,-1.0662 -4.22113,-3.1122 -1.98731,-2.046 -3.82074,-3.5126 -4.0743,-3.259 -0.25355,0.2535 0.70943,1.9955 2.13998,3.8711 1.43054,1.8755 2.60098,3.6876 2.60098,4.0269 0,0.3393 -1.76519,-1.2755 -3.92265,-3.5884 -2.15746,-2.3129 -4.21271,-3.9152 -4.56723,-3.5607 -0.35452,0.3545 0.6206,3.0518 2.16692,5.994 1.54633,2.9422 2.98409,5.7994 3.19502,6.3494 0.21093,0.55 -1.24225,-0.5442 -3.22929,-2.4316 -1.98704,-1.8874 -3.87773,-3.1667 -4.20152,-2.8429 -0.3238,0.3238 0.11946,1.9582 0.98502,3.632 0.86555,1.6738 1.57373,3.3806 1.57373,3.7929 0,0.4123 -0.54,0.2096 -1.2,-0.4504 -0.66,-0.66 -1.95751,-1.2 -2.88336,-1.2 -0.92586,0 -1.94639,1.0058 -2.26786,2.2351 -0.57688,2.206 -0.60336,2.2093 -2.03487,0.2516 -0.79771,-1.0909 -1.77728,-1.6566 -2.17682,-1.2571 -0.39955,0.3996 -0.9531,3.0853 -1.23011,5.9682 -0.27702,2.883 -1.18781,5.9259 -2.02399,6.7621 -1.36043,1.3604 -1.44745,1.23 -0.82745,-1.2403 0.38108,-1.5183 0.21614,-3.6514 -0.36652,-4.7401 -0.58266,-1.0887 -1.4766,-1.9795 -1.98653,-1.9795 -0.50994,0 -0.86579,3.0375 -0.7908,6.75 0.0861,4.2613 -0.57302,8.9622 -1.78766,12.75 -1.92403,6 -1.92403,6 -2.48261,-3.5 -0.55858,-9.5 -0.55858,-9.5 -0.90231,1.5 -0.18906,6.05 -0.39491,11.4894 -0.45745,12.0875 -0.0625,0.5981 -0.9737,1.9481 -2.02479,3 -1.05109,1.0519 -3.74387,3.3707 -5.98397,5.1528 -2.24009,1.7822 -4.4104,3.2447 -4.8229,3.25 -0.4125,0.01 -0.75035,-0.7778 -0.75078,-1.7403 -4.4e-4,-0.9625 -0.93505,0.1375 -2.07692,2.4443 -1.14186,2.3068 -4.59843,6.3568 -7.68124,9 -3.08282,2.6432 -8.69009,7.1217 -12.4606,9.9523 -4.28421,3.2163 -8.67046,7.7311 -11.69455,12.0372 -2.6615,3.7898 -6.43959,8.1114 -8.39577,9.6034 -1.95618,1.4921 -3.96856,2.7128 -4.47195,2.7128 -0.50339,0 -1.90032,3.7125 -3.10428,8.25 -1.20396,4.5375 -3.0499,10.1621 -4.1021,12.499 -1.07757,2.3933 -3.01355,4.7503 -4.43283,5.397 -1.94566,0.8865 -2.86825,0.8589 -4.04936,-0.1214 -0.84129,-0.6982 -1.52962,-1.948 -1.52962,-2.7774 0,-0.8294 1.56608,-4.4868 3.48017,-8.1275 1.91409,-3.6408 5.28909,-11.2799 7.5,-16.9759 2.21091,-5.6959 4.01983,-11.2084 4.01983,-12.25 0,-1.0415 -0.6499,-1.8938 -1.44423,-1.8938 -0.79433,0 -2.65047,1.0376 -4.12476,2.3057 -1.47429,1.2682 -5.66188,6.77 -9.30576,12.2263 -4.56653,6.8378 -7.48466,10.2227 -9.39096,10.8928 -2.16875,0.7625 -3.12437,0.6137 -4.42735,-0.6892 -1.3255,-1.3255 -1.4401,-2.1243 -0.56651,-3.9486 0.60232,-1.2578 4.16963,-5.6903 7.92735,-9.8498 3.75772,-4.1596 8.08644,-9.1041 9.61937,-10.9877 1.53293,-1.8836 2.35566,-3.5685 1.82828,-3.7443 -0.52737,-0.1758 -1.78159,0.3625 -2.78714,1.1961 -1.00556,0.8337 -5.64237,4.3469 -10.30404,7.8073 -7.26823,5.3951 -9.07168,7.3561 -12.65875,13.7646 -2.30065,4.1102 -5.37415,8.4977 -6.83001,9.75 -1.45586,1.2523 -3.76142,2.2768 -5.12347,2.2768 -1.64253,0 -2.7521,-0.7451 -3.295,-2.2127 -0.45019,-1.2169 -0.60411,-3.0326 -0.34204,-4.0348 0.26207,-1.0021 2.25607,-3.4939 4.4311,-5.5373 2.17504,-2.0433 5.72757,-6.7343 7.89451,-10.4243 3.05162,-5.1965 5.67284,-8.0134 11.62628,-12.4941 4.22751,-3.1817 10.2934,-8.1985 13.47976,-11.1485 3.18636,-2.95 5.79337,-5.7763 5.79337,-6.2807 0,-0.5044 -1.2375,-1.3899 -2.75,-1.9678 -1.5125,-0.5779 -5.10902,-1.4889 -7.99226,-2.0245 -5.1093,-0.9491 -5.42637,-0.8661 -12.5,3.2686 -3.99176,2.3333 -9.37031,6.1752 -11.95235,8.5375 -3.90749,3.575 -5.08114,4.1525 -7,3.4441 -1.26796,-0.4682 -2.45504,-1.6095 -2.63796,-2.5363 -0.18292,-0.9269 0.22954,-2.3625 0.91658,-3.1904 0.68703,-0.8278 4.4104,-3.3514 8.27416,-5.6079 3.86375,-2.2566 8.94664,-5.8742 11.2953,-8.0391 2.34867,-2.1649 4.54278,-4.7947 4.87581,-5.844 0.47045,-1.4822 1.55215,-1.9078 4.84977,-1.9078 2.33436,0 7.71615,-0.9093 11.95954,-2.0208 4.2434,-1.1114 11.64065,-3.8384 16.43834,-6.0598 4.79769,-2.2215 11.19807,-5.19 14.22307,-6.5968 5.1427,-2.3915 6.36498,-3.7433 18.81459,-20.8076 7.32302,-10.0374 18.8501,-25.172 25.61574,-33.6324 6.76563,-8.4604 17.3515,-21.2326 23.52416,-28.3826 6.17266,-7.15 12.16179,-14.8899 13.30919,-17.1999 1.99764,-4.0216 2.32278,-4.2259 7.66125,-4.8142 3.06629,-0.3379 12.55007,-1.7427 21.07507,-3.1219 8.525,-1.3791 23.15,-4.3292 32.5,-6.5557 9.35,-2.2265 20.0782,-4.2723 23.84043,-4.5462 3.76224,-0.2739 13.23322,0.039 21.04663,0.6946 14.20621,1.1926 14.20621,1.1926 27.15958,-4.0097 7.12435,-2.8612 19.47932,-7.5187 27.45548,-10.3499 7.97612,-2.8312 17.50732,-6.8283 21.18032,-8.8823 3.673,-2.0541 9.1414,-5.9859 12.1519,-8.7374 5.4737,-5.0026 5.4737,-5.0026 4.9851,-10.74 -0.3524,-4.1383 0.088,-7.5489 1.5815,-12.2374 1.814,-5.696 1.8863,-6.6373 0.5846,-7.6102 -0.8171,-0.6106 -1.4855,-1.8307 -1.4855,-2.7113 0,-1.0653 1.7565,-2.1263 5.25,-3.171 2.8875,-0.8635 7.95,-1.8338 11.25,-2.1562 4.6325,-0.4526 7.3679,-1.461 12.002,-4.4246 3.3011,-2.1112 8.9261,-5.3208 12.5,-7.1326 5.8966,-2.9892 7.4697,-3.3265 16.998,-3.6442 5.775,-0.1925 16.575,0.3521 24,1.2104 7.425,0.8582 15.525,1.4658 18,1.3501 4.5,-0.2104 4.5,-0.2104 4.801,3.9064 0.2723,3.725 0.9213,4.6201 6.8193,9.4054 5.9132,4.7976 6.4424,5.5296 5.6991,7.8833 -0.4507,1.427 -0.7885,6.0095 -0.7506,10.1834 0.055,6.0897 0.5304,8.3615 2.4053,11.5 1.2851,2.1511 3.9541,5.6898 5.9312,7.8638 1.9771,2.1739 2.6947,3.2989 1.5947,2.5 -1.848,-1.3422 -1.8957,-1.3196 -0.6276,0.2973 0.7549,0.9625 2.0138,1.75 2.7978,1.75 0.7839,0 2.6024,1.2375 4.0411,2.75 1.4387,1.5125 2.2906,2.1875 1.8932,1.5 -0.3974,-0.6875 -0.3011,-1.25 0.214,-1.25 0.5151,0 1.5542,0.7614 2.309,1.692 0.9326,1.1497 0.9718,1.4513 0.1225,0.941 -0.7598,-0.4565 -1.25,-0.2079 -1.25,0.6337 0,0.7616 1.1487,2.4639 2.5526,3.7828 2.0588,1.9342 2.7185,2.1299 3.4097,1.0115 0.5764,-0.9326 0.1499,-1.9929 -1.3027,-3.2382 -2.1114,-1.8102 -2.0869,-1.8122 1.0929,-0.087 1.789,0.9705 3.5235,2.6045 3.8545,3.6312 0.3499,1.0852 -0.5223,4.0886 -2.0832,7.1737 -2.13,4.2098 -3.4995,5.6328 -6.6247,6.8832 -2.1668,0.867 -5.4789,1.5763 -7.3604,1.5763 -1.8814,0 -3.6993,0.4508 -4.0397,1.0016 -0.3405,0.5509 0.8705,2.3757 2.691,4.0552 3.2044,2.9562 3.2481,3.0997 1.3688,4.4984 -1.0676,0.7947 -2.3051,1.4448 -2.75,1.4448 -0.4448,0 -0.8088,0.6862 -0.8088,1.5248 0,0.8386 -1.1543,1.9636 -2.5651,2.5 -1.4108,0.5364 -6.0233,0.9734 -10.25,0.9712 -4.2267,0 -11.7567,-0.6644 -16.7333,-1.4716 -6.3311,-1.0268 -10.6855,-1.206 -14.5,-0.5964 -3.5035,0.5598 -5.8938,0.5097 -6.6889,-0.1403 -0.6805,-0.5563 -1.9358,-0.7434 -2.7895,-0.4157 -0.8538,0.3276 -2.322,0.2172 -3.2628,-0.2454 -0.9407,-0.4625 -3.2173,-1.6319 -5.0591,-2.5986 -2.2599,-1.1861 -4.5057,-1.5699 -6.9069,-1.1802 -1.957,0.3176 -6.046,2.2292 -9.0866,4.2481 -5.5284,3.6706 -5.5284,3.6706 -1.9642,5.4992 1.9604,1.0057 4.7711,3.2628 6.2461,5.0158 1.4751,1.7529 3.9644,5.7277 5.5318,8.8328 1.7918,3.5495 5.5181,8.1627 10.0358,12.4245 3.9522,3.7283 8.6049,7.644 10.3393,8.7016 2.5484,1.5539 5.072,1.9267 13.1534,1.9433 6.0138,0.012 13.3882,0.768 18.5,1.8957 4.675,1.0313 12.775,2.7981 18,3.9262 5.225,1.1282 15.0125,2.5268 21.75,3.1081 6.7375,0.5813 17.7625,1.5401 24.5,2.1306 6.7375,0.5906 15.546,1.7003 19.5745,2.4661 4.0285,0.7658 10.7785,3.0518 15,5.0799 5.5013,2.6429 9.5296,5.5559 14.221,10.2839 3.6,3.628 9.3543,10.5148 12.7874,15.304 3.4331,4.7891 8.2156,12.4391 10.6279,17 3.6313,6.8658 4.8253,10.6081 6.9403,21.7519 2.3074,12.1582 2.4093,13.6809 1.0536,15.75 -1.1817,1.8035 -2.4213,2.2905 -5.8299,2.2905 -2.8533,0 -5.4874,-0.7797 -7.727,-2.2873 -1.8688,-1.258 -3.9597,-3.4555 -4.6465,-4.8833 -1.0223,-2.1254 -0.9591,-3.8779 0.3484,-9.6677 1.0212,-4.522 1.2911,-7.9299 0.7486,-9.4522 -0.4666,-1.3093 -3.9983,-5.0675 -7.8483,-8.3515 -3.85,-3.284 -7.5486,-6.3009 -8.219,-6.7042 -0.7093,-0.4268 -0.4049,1.0602 0.7281,3.5564 1.0708,2.3594 1.9568,5.3023 1.9689,6.5398 0.012,1.2375 -0.878,3.15 -1.978,4.25 -1.1,1.1 -2.7875,1.9932 -3.75,1.9847 -0.9625,-0.01 -2.3482,-0.3945 -3.0794,-0.858 -0.7311,-0.4635 -1.6899,-3.7501 -2.1305,-7.3034 -0.4407,-3.5534 -1.5325,-7.8748 -2.4263,-9.6031 -0.8937,-1.7283 -3.6336,-4.3195 -6.0885,-5.7582 -3.5128,-2.0586 -4.6004,-3.3449 -5.1057,-6.0389 -0.3532,-1.8827 -0.7488,-3.4231 -0.8791,-3.4231 -0.1303,0 -4.4678,0.9334 -9.6387,2.0741 -8.291,1.829 -14.6005,2.1755 -53.4018,2.9328 -24.2,0.4723 -50.6375,0.889 -58.75,0.926 -8.796,0.04 -14.75,0.4579 -14.75,1.0352 0,0.5324 1.2375,1.6394 2.75,2.46 2.75,1.4919 2.75,1.4919 -0.8089,1.5319 -1.9574,0.022 -4.4056,-0.5791 -5.4404,-1.3358 -1.7785,-1.3004 -1.6963,-1.4717 1.4993,-3.1242 3.1955,-1.6524 3.2777,-1.8237 1.4993,-3.1241 -1.0349,-0.7567 -2.5309,-1.3759 -3.3244,-1.3759 -0.7936,0 -3.2584,-0.5439 -5.4774,-1.2087 -2.3719,-0.7107 -6.4376,-3.4337 -9.866,-6.6077 -3.2074,-2.9695 -5.8315,-4.9018 -5.8315,-4.2941 0,0.6076 1.6205,2.8986 3.6012,5.0909 3.6013,3.9862 3.6013,3.9862 0.4979,2.9044 -1.7068,-0.595 -4.053,-2.4156 -5.2137,-4.0457 -1.5567,-2.1861 -1.9456,-3.788 -1.4823,-6.1045 0.3454,-1.7273 2.3767,-5.9296 4.514,-9.3383 2.1372,-3.4087 5.2652,-9.0877 6.951,-12.6199 1.6858,-3.5323 3.7551,-9.0715 4.5985,-12.3094 0.8433,-3.238 1.5334,-8.6883 1.5334,-12.112 0,-3.4236 -0.4243,-7.3405 -0.9428,-8.7043 -0.5184,-1.3637 -1.8658,-2.7725 -2.994,-3.1306 -1.1283,-0.3581 -2.621,-1.2207 -3.3172,-1.9169 -0.6962,-0.6962 -2.4989,-1.5753 -4.0059,-1.9535 -1.6442,-0.4127 -2.7401,-0.2802 -2.7401,0.3313 0,0.5605 -1.35,1.019 -3,1.019 -1.65,0 -3,0.4982 -3,1.107 0,0.6089 -0.646,0.8592 -1.4354,0.5562 -0.7895,-0.3029 -1.615,-0.014 -1.8344,0.643 -0.2824,0.8451 -2.0686,0.5026 -6.1149,-1.1726 -3.1437,-1.3015 -5.9459,-2.1363 -6.2272,-1.855 -0.2813,0.2813 0.9129,2.1337 2.6538,4.1164 2.6998,3.0749 2.8885,3.605 1.2834,3.605 -1.0349,0 -5.1316,-1.5574 -9.1035,-3.4609 -3.972,-1.9035 -7.2218,-3.2312 -7.2218,-2.9503 0,0.2808 0.7277,1.9507 1.6171,3.7109 1.6171,3.2003 1.6171,3.2003 -1.7976,-0.05 -1.8781,-1.7875 -3.8006,-3.25 -4.2721,-3.25 -0.4716,0 -0.043,0.9 0.9526,2 0.9955,1.1 1.3302,2 0.7438,2 -0.5863,0 -2.2311,-1.3845 -3.6549,-3.0767 -1.4239,-1.6922 -2.5889,-3.4922 -2.5889,-4 0,-0.5078 -0.6306,-0.9233 -1.4013,-0.9233 -0.7706,0 -2.2825,-1.4937 -3.3598,-3.3195 -1.0772,-1.8257 -3.6281,-4.1118 -5.6687,-5.0801 -2.0406,-0.9683 -4.3014,-1.5337 -5.024,-1.2565 -0.9265,0.3556 -1.4413,3.5482 -1.7462,10.8302 -0.3711,8.8602 -0.8623,11.2486 -3.4604,16.8259 -2.2618,4.8555 -4.8383,8.1732 -10.18376,13.1133 -4.80087,4.4368 -7.15588,7.3548 -7.15588,8.8666 0,1.7102 0.45153,2.1353 1.87323,1.7635 1.48669,-0.3887 1.77513,-0.052 1.39783,1.6334 -0.32837,1.4666 1.12674,0.4222 4.70478,-3.3768 3.9673,-4.2121 4.6553,-4.6804 2.9386,-2 -1.2329,1.925 -3.1448,4.5108 -4.24865,5.7461 -1.10385,1.2353 -1.70054,2.5525 -1.32596,2.9271 0.37457,0.3746 1.94501,-0.53 3.48991,-2.0101 1.5449,-1.4801 3.0512,-2.4488 3.3473,-2.1527 0.2961,0.2961 2.6666,-1.9527 5.2677,-4.9974 2.6012,-3.0447 5.6411,-6.0237 6.7554,-6.6201 2.0119,-1.0767 2.013,-1.0619 0.1629,2.1321 -1.0247,1.769 -3.1005,4.3981 -4.613,5.8425 -1.9484,1.8606 -2.75,3.6195 -2.75,6.0343 0,3.3785 0.018,3.392 2.061,1.543 1.7089,-1.5465 2.2085,-1.6267 2.9238,-0.4693 0.6785,1.0978 1.1715,1.1397 2.3084,0.1962 1.2288,-1.0199 1.5492,-0.1482 2.1367,5.8143 0.3802,3.8577 0.9207,7.014 1.2012,7.014 0.2805,0 2.7308,-1.8725 5.445,-4.1611 2.7142,-2.2887 5.1329,-3.9631 5.375,-3.7211 0.2421,0.2421 0.1271,0.9156 -0.2555,1.4967 -0.3826,0.581 -1.4286,1.468 -2.3244,1.971 -0.8958,0.503 -3.5233,2.637 -5.8389,4.7423 -2.3156,2.1052 -3.9357,4.1022 -3.6003,4.4376 0.3354,0.3355 2.7145,-1.387 5.2869,-3.8277 4.6769,-4.4377 4.6769,-4.4377 0.979,0.2306 -2.0339,2.5676 -3.6979,4.9826 -3.6979,5.3666 0,0.3841 1.125,0.4832 2.5,0.2204 1.375,-0.2629 2.5,-0.1266 2.5,0.3028 0,0.4294 -2.25,3.2426 -5,6.2516 -4.1017,4.4878 -5,6.1314 -5,9.1479 0,3.3329 0.2058,3.6119 2.1986,2.9794 2.0897,-0.6633 2.0668,-0.5412 -0.4622,2.4644 -1.4635,1.7392 -3.0153,3.1862 -3.4486,3.2155 -0.4333,0.029 -1.3655,0.5326 -2.0715,1.1186 -0.706,0.5859 -2.5913,1.1682 -4.1895,1.2939 -1.707,0.1343 -3.1214,-0.3334 -3.4284,-1.1335 -0.2875,-0.7492 -1.1023,-1.144 -1.8106,-0.8774 -0.7153,0.2692 -2.0797,-0.9099 -3.0691,-2.6523 -0.97963,-1.7254 -2.03798,-2.8802 -2.35184,-2.5664 -0.31387,0.3139 0.21648,2.9623 1.17855,5.8855 0.96209,2.9231 3.51949,9.3647 5.68319,14.3147 2.1637,4.95 4.1798,9.5868 4.4803,10.3038 0.3005,0.7171 -6.1486,-2.0453 -14.3313,-6.1387 -8.1827,-4.0935 -16.00264,-7.746 -17.37764,-8.1169 -2.17447,-0.5864 -1.97916,-0.1979 1.5,2.9843 2.2,2.0122 7.51759,7.0764 11.81686,11.2537 4.29927,4.1774 8.2739,8.4492 8.83251,9.4929 0.96557,1.8042 0.69087,1.863 -5.56686,1.1929 -5.59416,-0.5991 -6.58251,-0.4711 -6.58251,0.8525 0,0.8566 0.45,1.8356 1,2.1755 0.55,0.34 1,1.2485 1,2.0189 0,0.7705 -1.81866,1.9457 -4.04147,2.6117 -2.46847,0.7396 -3.85766,1.6899 -3.5692,2.4416 0.25975,0.6769 -0.50908,1.4891 -1.70852,1.8048 -2.16149,0.569 -2.16309,0.5863 -0.18081,1.9608 1.1,0.7627 4.23085,1.7153 6.95743,2.1169 2.72658,0.4015 7.00158,1.6844 9.5,2.8509 2.49842,1.1664 7.92641,5.5123 12.06221,9.6576 4.1358,4.1453 8.9021,9.644 10.5917,12.2193 2.0873,3.1814 4.1645,8.9519 6.4796,18 2.9842,11.6633 3.4076,14.8702 3.4083,25.8175 7e-4,11.9034 -0.1367,12.748 -2.8784,17.6953 -1.5835,2.8574 -5.1245,7.7146 -7.8689,10.7937 -2.7444,3.0791 -5.4932,5.4306 -6.1085,5.2255 -0.6153,-0.2051 -1.6576,1.1947 -2.3163,3.1107 -1.1948,3.4755 -1.1647,3.5327 12.943,24.5792 7.7773,11.6026 15.9103,23.5232 18.0735,26.4901 2.1631,2.967 3.414,5.0738 2.7797,4.6818 -0.6342,-0.392 -5.3512,-6.6445 -10.4821,-13.8945 -5.131,-7.25 -14.1712,-20.3818 -20.0894,-29.1818 -5.9181,-8.8 -11.7156,-17.0377 -12.8831,-18.3061 -1.16764,-1.2684 -4.12289,-3.6309 -6.56728,-5.25 -3.90464,-2.5864 -5.3343,-2.9439 -11.7729,-2.9439 -6.42409,0 -7.32856,0.225 -7.32856,1.8226 0,1.0024 2.0068,5.9458 4.45955,10.9852 2.45275,5.0395 6.74981,12.5567 9.54901,16.7049 2.7992,4.1483 8.61371,11.9174 12.92118,17.2648 4.3074,5.3474 13.1728,15.1556 19.7009,21.7961 6.5282,6.6404 16.3694,16.0407 21.8694,20.8894 5.5,4.8488 13.7126,11.7157 18.2503,15.2597 4.5376,3.5441 8.715,6.2889 9.283,6.0996 0.5679,-0.1893 -0.1289,-1.9143 -1.5487,-3.8333 -2.1048,-2.8449 -2.2955,-3.5486 -1.033,-3.8123 0.8516,-0.1778 1.5484,-0.5747 1.5484,-0.8819 0,-0.3073 -0.8858,-1.9918 -1.9683,-3.7434 -1.0826,-1.7517 -4.2767,-5.1312 -7.098,-7.5102 -2.8213,-2.379 -7.6026,-7.6694 -10.6252,-11.7565 -3.0225,-4.087 -5.3004,-7.6261 -5.0619,-7.8646 0.2385,-0.2385 2.581,2.4913 5.2056,6.0662 3.5388,4.8201 8.1669,9.036 17.9098,16.3146 7.2259,5.3981 16.1766,11.8138 19.8906,14.257 3.7139,2.4432 6.5482,4.9847 6.2984,5.6479 -0.2499,0.6632 2.4489,3.3374 5.9973,5.9429 3.5484,2.6054 6.4517,4.8332 6.4517,4.9506 0,0.1174 -0.9,-0.022 -2,-0.3095 -1.1,-0.2877 -2,-0.252 -2,0.079 0,0.3313 2.683,1.9566 5.9623,3.612 3.2792,1.6554 9.4396,4.3911 13.6896,6.0794 4.25,1.6883 12.2545,4.1285 17.7877,5.4226 5.5332,1.2942 12.3104,2.6272 15.0604,2.9624 4.9576,0.6041 4.9817,0.5935 2.8451,-1.2513 -2.1152,-1.8263 -1.9219,-1.8522 10.5,-1.4047 6.9602,0.2507 13.5549,0.2442 14.6549,-0.014 1.8597,-0.4373 1.8295,-0.5398 -0.4299,-1.4612 -2.0645,-0.842 -1.3985,-1.0873 4.4291,-1.6315 3.7724,-0.3522 7.2823,-1.0638 7.7998,-1.5812 0.5877,-0.5878 -0.5116,-1.3441 -2.9291,-2.0154 -2.1285,-0.591 -6.2059,-1.077 -9.0609,-1.0801 -2.8551,0 -5.5113,0.5127 -5.9028,1.1462 -0.3915,0.6334 0.1445,1.8189 1.191,2.6345 1.8536,1.4445 1.8511,1.4646 -0.097,0.7769 -1.1,-0.3883 -4.25,-1.2926 -7,-2.0095 -2.75,-0.7169 -7.025,-1.6053 -9.5,-1.9741 -4.1778,-0.6227 -4.361,-0.56 -2.5589,0.8749 1.8085,1.4399 1.5482,1.5455 -3.809,1.5455 -4.1356,0 -5.5471,0.3285 -5.0271,1.17 0.464,0.7508 0.2165,0.9624 -0.691,0.5908 -0.7777,-0.3185 -3.1015,-1.301 -5.164,-2.1834 -2.1445,-0.9173 -3.75,-1.1703 -3.75,-0.5908 0,0.5574 0.364,1.0134 0.8088,1.0134 0.4449,0 1.6824,0.6653 2.75,1.4784 1.1399,0.8681 -1.5674,0.3096 -6.5588,-1.3531 -4.675,-1.5573 -11.816,-4.2873 -15.8689,-6.0667 -4.0529,-1.7793 -11.1404,-5.4629 -15.75,-8.1856 -4.6096,-2.7227 -8.3811,-5.1297 -8.3811,-5.3489 0,-0.2193 3.0375,0.983 6.75,2.6717 3.7125,1.6887 10.3832,4.3333 14.8239,5.8769 4.4407,1.5437 13.2157,3.564 19.5,4.4897 8.0307,1.1829 14.1005,1.4872 20.4261,1.0238 4.95,-0.3626 11.925,-1.2889 15.5,-2.0584 4.431,-0.9538 9.683,-1.2164 16.5,-0.8249 5.5,0.3159 9.6799,0.2293 9.2886,-0.1923 -0.3912,-0.4216 -3.3162,-1.0465 -6.5,-1.3886 -5.7886,-0.622 -5.7886,-0.622 5.7114,-6.2778 6.325,-3.1108 14.65,-8.0413 18.5,-10.9568 3.85,-2.9155 10.1702,-8.5346 14.045,-12.4869 3.8747,-3.9523 9.139,-10.3071 11.6985,-14.1219 2.5594,-3.8148 6.4908,-10.618 8.7364,-15.1181 2.2455,-4.5002 5.6178,-12.7898 7.4938,-18.4213 2.5156,-7.5514 3.7304,-13.5712 4.6279,-22.9327 0.9448,-9.8542 0.9541,-16.3412 0.042,-29 -1.175,-16.3065 -1.175,-16.3065 -9.2784,-24.0359 -8.1034,-7.7295 -8.1034,-7.7295 -5.2343,-8.8223 1.578,-0.601 6.3198,-1.5965 10.5374,-2.2122 5.5911,-0.8162 9.2626,-0.823 13.5544,-0.025 3.2373,0.602 8.0725,2.1224 10.7448,3.3785 2.6722,1.2561 7.6218,4.8686 10.9989,8.0277 3.3772,3.1592 7.4191,8.0935 8.982,10.9652 2.8418,5.2212 2.8418,5.2212 2.2305,20.3193 -0.3641,8.9934 -1.4304,18.9841 -2.6372,24.7091 -1.1143,5.2861 -3.1785,13.6111 -4.587,18.5 -1.4085,4.8889 -3.5063,11.501 -4.6617,14.6935 -1.7475,4.8283 -3.0935,6.5844 -8.003,10.4416 -3.2463,2.5504 -10.0094,7.1604 -15.0292,10.2446 -5.0198,3.0841 -9.3229,6.1953 -9.5624,6.9138 -0.3297,0.9892 0.3825,1.1365 2.9331,0.6068 1.8526,-0.3847 7.081,-2.6845 11.6185,-5.1106 4.5375,-2.4261 8.25,-4.1301 8.25,-3.7867 0,0.3434 -1.5847,3.2329 -3.5215,6.4212 -3.071,5.0554 -4.8298,6.5964 -13.75,12.0469 -5.6257,3.4375 -11.3017,7.0752 -12.6134,8.0839 -1.7335,1.333 -1.953,1.8339 -0.8038,1.8339 0.8696,0 4.9718,-1.7546 9.1161,-3.8992 5.0229,-2.5992 7.2311,-3.3493 6.6235,-2.25 -0.5014,0.9071 -2.1804,3.0844 -3.7312,4.8384 -1.5509,1.7541 -7.0947,5.5266 -12.3197,8.3835 -5.225,2.8569 -11.9117,6.7351 -14.8593,8.6183 -2.9475,1.8832 -5.1138,3.6693 -4.814,3.9691 0.2999,0.2999 3.023,-0.5892 6.0514,-1.9756 3.0284,-1.3865 8.3447,-4.1739 11.814,-6.1943 6.3079,-3.6734 6.3079,-3.6734 2.8079,0.01 -1.925,2.0236 -8.2159,6.8429 -13.9797,10.7094 -5.7638,3.8666 -16.7888,10.084 -24.5,13.8164 -7.7112,3.7324 -18.2953,8.2082 -23.5203,9.9463 -5.225,1.738 -14,4.2568 -19.5,5.5972 -5.5,1.3404 -14.8023,2.8916 -20.6717,3.4471 -6.9577,0.6586 -14.4458,0.6789 -21.5163,0.058 -5.9647,-0.5234 -14.8874,-1.8414 -19.8284,-2.9289 -4.941,-1.0875 -13.2586,-3.4174 -18.4836,-5.1775 -5.225,-1.7601 -14.675,-5.8115 -21,-9.0032 -6.325,-3.1916 -14.789,-8.0168 -18.8089,-10.7226 -4.0199,-2.7059 -11.5433,-8.6272 -16.7186,-13.1585 -5.1754,-4.5314 -13.8474,-13.2656 -19.2712,-19.4095 -5.4238,-6.1439 -14.2504,-16.7207 -19.61458,-23.5041 -5.3642,-6.7835 -9.98043,-12.1062 -10.25829,-11.8284 -0.27786,0.2779 1.38179,4.9218 3.6881,10.3199 2.30631,5.3981 5.55766,12.5208 7.22522,15.8283 1.66755,3.3075 4.74065,8.5328 6.82915,11.6117 2.0885,3.079 6.1894,7.749 9.1132,10.3778 2.9237,2.6289 12.7409,10.7425 21.8159,18.0303 9.075,7.2878 22.5414,18.4589 29.9254,24.8246 9.629,8.301 16.7831,13.4749 25.299,18.2963 6.5304,3.6973 12.1215,7.1237 12.4247,7.6142 0.3031,0.4905 0.3568,1.0861 0.1193,1.3236 -0.2375,0.2375 -3.1636,-0.6782 -6.5026,-2.035 -3.3389,-1.3567 -8.4772,-3.8848 -11.4183,-5.618 -2.9412,-1.7332 -9.6225,-6.3578 -14.8475,-10.2768 -5.225,-3.9191 -14,-10.9888 -19.5,-15.7105 -5.5,-4.7217 -16.5939,-14.6693 -24.6531,-22.1059 -8.0591,-7.4366 -18.8006,-17.2399 -23.8698,-21.785 -6.71116,-6.0172 -9.43626,-7.9088 -10.02396,-6.9579 -0.45537,0.7368 -0.22541,2.4309 0.52765,3.8872 0.73412,1.4196 4.30127,6.6063 7.92701,11.526 3.6257,4.9197 6.5922,9.3711 6.5922,9.892 0,0.5209 -3.1667,-2.11 -7.0371,-5.8465 -3.87035,-3.7365 -7.30233,-6.5284 -7.62661,-6.2041 -0.32428,0.3243 1.3193,2.8695 3.65238,5.6562 2.33313,2.7866 5.09003,5.5204 6.12663,6.0752 1.0366,0.5547 1.8847,1.4693 1.8847,2.0324 0,0.5632 -0.5625,0.7417 -1.25,0.3967 -0.6875,-0.3449 1.5707,2.0546 5.0183,5.3322 3.4475,3.2777 11.3225,9.7724 17.5,14.4327 6.1774,4.6603 16.4067,11.9559 22.7317,16.2123 6.325,4.2564 13.56,8.7857 16.0777,10.065 2.5178,1.2793 10.1678,4.4453 17,7.0354 6.8323,2.5901 13.1349,5.3238 14.0058,6.0748 0.871,0.751 2.0891,3.0128 2.7071,5.0261 0.6179,2.0134 0.9103,4.0055 0.6499,4.4269 -0.2605,0.4214 0.5618,2.292 1.8274,4.1569 1.2655,1.8648 2.8479,3.2082 3.5165,2.9854 0.6686,-0.2229 1.2156,0.3368 1.2156,1.2437 0,0.9068 -1.5195,4.8818 -3.3766,8.8333 -1.8571,3.9514 -5.0071,9.433 -7,12.1812 -1.9929,2.7483 -3.6234,5.3126 -3.6234,5.6985 0,0.3859 1.125,1.9156 2.5,3.3992 1.6534,1.7841 2.5,3.8556 2.5,6.1173 0,1.8809 -0.4457,4.2525 -0.9905,5.2704 -0.8773,1.6393 -0.2571,2.0875 5.4333,3.9259 4.9224,1.5902 7.8023,1.9311 12.3227,1.4587 3.644,-0.3809 6.7018,-0.187 7.999,0.5073 1.155,0.6181 2.398,2.0626 2.7621,3.21 0.4549,1.4331 -0.033,2.8258 -1.5578,4.4492 -1.221,1.2996 -3.4513,2.6334 -4.9563,2.964 -1.5049,0.3305 -3.1931,1.6036 -3.7514,2.829 -0.5583,1.2254 -2.2541,3.7004 -3.7684,5.5 -1.5143,1.7996 -4.9297,4.3749 -7.5898,5.7229 -2.66,1.348 -5.4545,2.4508 -6.2099,2.4508 -0.7554,0 -3.8079,1.3419 -6.7833,2.9819 -2.9753,1.6401 -6.5347,2.9601 -7.9097,2.9335 -1.375,-0.027 -8.35,-3.1282 -15.5,-6.8925 z m 23.0043,-1.0299 c 0.3423,-0.5539 -0.1936,-1.2718 -1.191,-1.5954 -0.9973,-0.3237 -3.9836,-1.4721 -6.6361,-2.5521 -2.6525,-1.08 -5.3525,-1.7819 -6,-1.5598 -0.6475,0.222 1.5228,1.802 4.8228,3.511 3.3,1.7089 6.5359,3.1288 7.1909,3.1552 0.6551,0.026 1.4711,-0.405 1.8134,-0.9589 z m 13.5308,-11.5353 c 0.7661,-0.9231 0.9156,-1.9055 0.3725,-2.4466 -0.4992,-0.4973 -5.841,-1.6359 -11.8707,-2.5303 -6.0297,-0.8944 -11.3172,-1.845 -11.75,-2.1124 -0.4328,-0.2675 -0.7869,-0.026 -0.7869,0.5374 0,0.5632 0.9,1.5055 2,2.0942 1.1,0.5887 2,0.8614 2,0.606 0,-0.2554 3.4875,0.8319 7.75,2.4162 4.2625,1.5843 8.4824,2.9025 9.3775,2.9292 0.8952,0.027 2.2036,-0.6454 2.9076,-1.4937 z m 116.2547,-155.5892 c 2.3156,-1.1724 7.2987,-4.1214 11.0736,-6.5533 3.7749,-2.4319 6.6268,-4.6582 6.3376,-4.9474 -0.2892,-0.2892 -4.5027,1.5404 -9.3634,4.0658 -4.8607,2.5254 -10.1876,5.6948 -11.8376,7.0431 -1.65,1.3483 -2.4196,2.4676 -1.7102,2.4874 0.7094,0.02 3.1844,-0.9233 5.5,-2.0956 z m 17.9801,-17.9213 c 3.118,-2.779 6.6792,-6.4915 7.9137,-8.25 1.6426,-2.3398 0.377,-1.5513 -4.7195,2.9403 -3.8303,3.3756 -7.8214,7.0881 -8.8691,8.25 -1.0478,1.1619 -1.4751,2.1125 -0.9496,2.1125 0.5254,0 3.5064,-2.2737 6.6245,-5.0528 z m -303.43667,-14.1972 c -1.2666,-1.7875 -5.15061,-6.7841 -8.63113,-11.1036 -3.48052,-4.3195 -6.15895,-8.0229 -5.95207,-8.2298 0.20688,-0.2068 2.10883,1.4524 4.22654,3.6872 2.79963,2.9545 4.0439,3.6994 4.55949,2.7298 0.39001,-0.7335 2.16268,-6.2836 3.93926,-12.3336 1.77658,-6.05 4.91412,-15.275 6.97231,-20.5 3.34684,-8.4964 3.81047,-10.794 4.38875,-21.7489 0.64659,-12.249 0.64659,-12.249 -17.45247,-21.3091 -9.95448,-4.9831 -18.2837,-8.8755 -18.50938,-8.6499 -0.22567,0.2257 3.61403,3.9648 8.53267,8.3092 4.91864,4.3443 8.97669,8.141 9.01788,8.4371 0.0412,0.2961 -6.56262,-0.021 -14.67512,-0.7046 -8.1125,-0.6836 -20.375,-1.9691 -27.25,-2.8566 -6.875,-0.8875 -17.59599,-2.5093 -23.82443,-3.6039 -6.22843,-1.0947 -11.75206,-1.8478 -12.27471,-1.6735 -0.52266,0.1742 6.14833,5.024 14.82443,10.7773 11.37598,7.5436 18.10018,12.8319 24.1143,18.9647 4.58678,4.6772 9.03707,9.8663 9.88954,11.5312 0.85246,1.6649 1.82465,3.252 2.16041,3.527 0.33575,0.275 1.50583,1.625 2.60017,3 1.09434,1.375 -3.85566,-3.144 -11,-10.0423 -7.14434,-6.8983 -14.67721,-13.5206 -16.73971,-14.7163 -2.0625,-1.1956 -3.75,-1.8979 -3.75,-1.5606 0,0.3373 1.60513,2.5721 3.56695,4.9663 1.96183,2.3941 3.32109,4.3529 3.0206,4.3529 -0.3005,0 -2.41294,-2.025 -4.69431,-4.5 -2.28138,-2.475 -4.81017,-4.5 -5.61954,-4.5 -0.8984,0 0.43546,2.2397 3.42453,5.75 2.69286,3.1625 6.33738,7.6148 8.09894,9.894 1.76156,2.2791 3.20283,4.4455 3.20283,4.8142 0,0.3687 -3.2625,-1.9842 -7.25,-5.2287 -3.9875,-3.2444 -8.4875,-6.7001 -10,-7.6792 -1.5125,-0.9792 -2.75,-1.5481 -2.75,-1.2644 0,0.2837 5.5125,5.6048 12.25,11.8248 6.7375,6.2199 12.41976,11.7238 12.62724,12.2308 0.20747,0.5071 -0.98021,0.1201 -2.63929,-0.86 -1.65909,-0.98 -7.90384,-5.3565 -13.87723,-9.7255 -5.9734,-4.3691 -11.76072,-8.3707 -12.86072,-8.8926 -1.1,-0.5219 1.6,2.4694 6,6.6472 4.4,4.1778 13.175,11.633 19.5,16.5672 6.325,4.9341 16.9,12.7358 23.5,17.337 6.6,4.6013 16.05,10.8653 21,13.9202 4.95,3.0548 9.36815,5.5792 9.8181,5.6096 0.44995,0.03 -0.21822,-1.4071 -1.48483,-3.1946 z m 79.82337,-80.25 c 0.3779,-2.2787 -0.2738,-4.0818 -2.7109,-7.5 -3.2085,-4.5 -3.2085,-4.5 0.4079,-1.0683 1.989,1.8874 3.9188,3.1292 4.2885,2.7596 0.3696,-0.3697 0.2639,-1.5591 -0.235,-2.6431 -0.4989,-1.0841 -4.0487,-6.2341 -7.8883,-11.4445 -3.8397,-5.2104 -7.2602,-9.0221 -7.6012,-8.4704 -0.341,0.5517 -2.71192,-1.8121 -5.26879,-5.2528 -2.55686,-3.4408 -4.64885,-5.902 -4.64885,-5.4694 0,0.4326 2.28049,4.6796 5.06776,9.4377 5.06778,8.6512 5.06778,8.6512 -1.15305,2.6512 -5.41492,-5.2227 -5.95907,-5.5465 -4.20039,-2.5 1.11124,1.925 4.10511,7.3707 6.65306,12.1015 2.54794,4.7308 4.63266,8.9934 4.63266,9.4725 0,0.4791 -0.7026,-0.132 -1.5613,-1.358 -0.85869,-1.2259 -5.51274,-9.0885 -10.34234,-17.4725 -4.82959,-8.3839 -10.53952,-18.051 -12.68874,-21.4824 -2.14921,-3.4315 -4.24027,-6.244 -4.64679,-6.25 -0.40652,-0.01 0.49348,2.5602 2,5.7027 1.50652,3.1426 7.86502,15.1801 14.13,26.75 6.26497,11.57 12.78277,23.1737 14.48397,25.7862 1.7012,2.6125 3.6363,4.75 4.3001,4.75 0.6639,0 1.4851,-0.45 1.8251,-1 0.3399,-0.55 1.0414,-1 1.559,-1 0.5175,0 0.987,0.7875 1.0433,1.75 0.056,0.9625 0.5421,0.175 1.0795,-1.75 0.5375,-1.925 1.2011,-4.85 1.4748,-6.5 z m -39.65664,-8.5 c -1.375,-0.4403 -3.08905,-0.8454 -3.80901,-0.9003 -0.71996,-0.055 -1.0309,0.3503 -0.69099,0.9003 0.33992,0.55 2.05398,0.9552 3.80902,0.9004 3.04738,-0.095 3.07847,-0.1357 0.69098,-0.9004 z m 11.92264,-5.1643 c -0.68167,-1.2846 -3.91203,-5.8543 -7.17857,-10.1548 -3.26654,-4.3005 -6.18123,-7.577 -6.47708,-7.2812 -0.29584,0.2959 0.23401,1.716 1.17746,3.1559 0.94345,1.4399 1.44327,2.8901 1.11072,3.2226 -0.33256,0.3326 -3.12106,-1.844 -6.19668,-4.8367 -3.33327,-3.2435 -5.09554,-4.4743 -4.36286,-3.0472 0.67605,1.3169 3.04747,4.3669 5.26981,6.7779 3.86346,4.1913 3.95719,4.445 2.1376,5.7843 -1.86249,1.3709 -1.86042,1.4135 0.097,2.0024 1.1,0.331 4.925,2.1173 8.5,3.9695 3.575,1.8522 6.64896,3.2271 6.83102,3.0553 0.18207,-0.1718 -0.22671,-1.3634 -0.90838,-2.648 z m 29.5204,-5.5857 c -1.5109,-2.6125 -4.7737,-7.9 -7.2507,-11.75 -2.477,-3.85 -4.6907,-6.4535 -4.9194,-5.7855 -0.2288,0.6679 1.6902,4.4929 4.2643,8.5 2.574,4.007 5.7791,8.748 7.1223,10.5355 1.3432,1.7875 2.6871,3.25 2.9864,3.25 0.2992,0 -0.692,-2.1375 -2.2029,-4.75 z m 8.557,0.8091 c 0,-0.5176 -0.3472,-1.1556 -0.7714,-1.4178 -0.4243,-0.2622 -2.2643,-2.6512 -4.0889,-5.309 -1.9155,-2.7902 -2.3291,-3.7604 -0.9786,-2.296 1.2864,1.395 3.7626,4.32 5.5026,6.5 1.7401,2.1801 3.4242,3.7046 3.7426,3.3878 0.3183,-0.3167 -4.1528,-6.7088 -9.9359,-14.2046 -5.783,-7.4958 -11.0242,-13.9437 -11.647,-14.3286 -0.7294,-0.4508 -0.8539,-0.2492 -0.3498,0.5664 0.4442,0.7188 0.2492,1.596 -0.451,2.0288 -0.9393,0.5805 -0.7932,1.4484 0.6124,3.6382 1.0153,1.5816 4.9207,7.2632 8.6787,12.6257 3.7581,5.3625 7.4749,9.75 8.2596,9.75 0.7846,0 1.4267,-0.4234 1.4267,-0.9409 z m -16.5056,-22.0652 c -0.9985,-1.1034 -1.5792,-2.2424 -1.2904,-2.5312 0.2888,-0.2888 1.2714,0.614 2.1836,2.0061 0.9121,1.3922 1.4928,2.5312 1.2904,2.5312 -0.2024,0 -1.185,-0.9027 -2.1836,-2.0061 z m -227.97847,-77.9093 c -1.09121,-0.4262 -2.77871,-0.5671 -3.75,-0.3131 -0.97128,0.254 -1.76597,0.6343 -1.76597,0.8452 0,0.2108 1.6875,0.3517 3.75,0.3131 2.85642,-0.054 3.27723,-0.255 1.76597,-0.8452 z m 67.61392,-70.5862 c -2.19974,-1.9873 -5.70576,-4.9692 -7.79115,-6.6265 -2.33778,-1.8578 -3.94098,-2.5651 -4.18115,-1.8446 -0.21424,0.6427 1.76457,3.3556 4.39736,6.0285 2.63279,2.673 6.17247,5.5336 7.86597,6.3568 1.6935,0.8233 3.22071,1.0924 3.3938,0.598 0.17309,-0.4943 -1.48508,-2.5248 -3.68483,-4.5122 z m 9.87011,1.5541 c 0,-0.5211 -3.66656,-4.1211 -8.14792,-8 -4.48136,-3.8788 -8.75636,-7.0525 -9.5,-7.0525 -0.74364,0 -1.35208,0.3545 -1.35208,0.7876 0,0.4332 2.1375,2.829 4.75,5.324 2.6125,2.4951 6.24703,5.7406 8.07673,7.2124 1.8297,1.4718 3.9672,2.676 4.75,2.676 0.7828,0 1.42327,-0.4263 1.42327,-0.9475 z m -9.54631,-15.4582 c -4.01352,-3.6972 -7.33745,-6.0407 -7.8613,-5.5424 -0.53912,0.5129 -0.38864,1.4887 0.37062,2.4036 0.70304,0.8471 3.97525,3.3412 7.27158,5.5424 3.29632,2.2012 6.2587,4.0021 6.58305,4.0021 0.32435,0 -2.53943,-2.8825 -6.36395,-6.4057 z m 12.54631,3.5093 c 0,-0.493 -1.52033,-2.2312 -3.37852,-3.8627 -1.85818,-1.6316 -6.30283,-5.0532 -9.87699,-7.6036 -3.57416,-2.5505 -7.08226,-4.6373 -7.79579,-4.6373 -0.77444,0 -0.3202,1.0491 1.12699,2.6028 1.33337,1.4316 5.71351,5.2566 9.73364,8.5 4.02013,3.2435 7.95763,5.8972 8.75,5.8972 0.79237,0 1.44067,-0.4033 1.44067,-0.8964 z m 4,-4.4901 c 0,-0.2126 -3.08759,-2.9126 -6.86131,-6 -3.77373,-3.0874 -7.16994,-5.6135 -7.54713,-5.6135 -0.37719,0 0.76644,1.8072 2.54139,4.0159 1.77496,2.2087 4.60866,4.9011 6.29713,5.9831 1.68846,1.082 3.63242,1.9749 4.31992,1.9842 0.6875,0.01 1.25,-0.1571 1.25,-0.3697 z m 18,-2.0878 c 0,-0.2608 -1.26569,-1.1288 -2.81265,-1.9288 -1.54696,-0.7999 -5.03446,-3.4511 -7.75,-5.8916 -2.71554,-2.4404 -8.47214,-6.9724 -12.79244,-10.0712 -4.3203,-3.0987 -8.2578,-5.6341 -8.75,-5.6341 -0.4922,0 -0.89491,0.3783 -0.89491,0.8405 0,0.4623 3.4875,3.7422 7.75,7.2886 4.2625,3.5465 9.23841,7.4924 11.05758,8.7686 1.81917,1.2763 3.07765,2.5505 2.79663,2.8315 -0.28102,0.281 -2.02338,0.2272 -3.8719,-0.1196 -1.84852,-0.3468 -6.032,-2.5555 -9.29662,-4.9084 -3.26463,-2.3528 -7.17319,-4.368 -8.68569,-4.4783 -1.5125,-0.1102 -2.75,-0.059 -2.75,0.1138 0,0.1729 3.32064,2.4178 7.3792,4.9888 4.05855,2.571 7.73562,4.6745 8.17126,4.6745 0.43563,0 1.615,0.7448 2.6208,1.655 1.00581,0.9103 1.82874,1.1997 1.82874,0.6432 0,-0.6494 1.8805,-0.5562 5.25,0.26 2.8875,0.6995 6.4875,1.31 8,1.3568 1.5125,0.047 2.75,-0.1284 2.75,-0.3893 z m 2,-1.9672 c 0,-0.2429 -2.72752,-2.5403 -6.06115,-5.1055 -3.33364,-2.5652 -6.26957,-4.4556 -6.52428,-4.2009 -0.25471,0.2548 1.01031,1.9303 2.81116,3.7234 1.80085,1.7932 4.62427,3.8646 6.27427,4.6033 1.65,0.7386 3.1125,1.3606 3.25,1.3821 0.1375,0.021 0.25,-0.1596 0.25,-0.4024 z m -31.96222,-13.5991 c -1.90423,-1.6276 -4.34173,-2.9594 -5.41667,-2.9594 -1.07494,0 -1.76694,0.1874 -1.53777,0.4163 0.22916,0.2289 2.44166,1.5735 4.91666,2.988 2.475,1.4144 4.725,2.5588 5,2.5431 0.275,-0.016 -1.058,-1.3603 -2.96222,-2.988 z m 258.21696,-34.308 c -0.5377,-1.1832 -1.5492,-3.9222 -2.2479,-6.0866 -1.2521,-3.8791 -1.219,-3.9822 2.3195,-7.225 2.0115,-1.8434 5.5868,-3.7927 8.1318,-4.4335 2.6451,-0.6661 4.5419,-1.7205 4.5419,-2.525 0,-0.9288 -1.2284,-1.3825 -3.75,-1.385 -2.0625,0 -5.2217,-0.901 -7.0204,-1.9977 -1.7987,-1.0967 -3.7835,-3.12 -4.4105,-4.4963 -0.6271,-1.3762 -1.8394,-2.5023 -2.6939,-2.5023 -1.3711,0 -1.3613,-0.1924 0.083,-1.6371 1.3163,-1.3162 1.4073,-2.0142 0.4643,-3.5609 -0.95,-1.5582 -0.8566,-2.1587 0.4912,-3.1602 0.9152,-0.6801 1.8152,-2.5652 2,-4.1891 0.2461,-2.1632 0.8039,-2.8741 2.086,-2.6588 1.3643,0.2291 1.75,-0.4138 1.75,-2.9167 0,-1.7658 0.2625,-2.948 0.5833,-2.6272 0.3208,0.3209 1.4458,-0.2791 2.5,-1.3333 1.0542,-1.0542 2.8167,-1.9167 3.9167,-1.9167 1.4666,0 2,-0.6666 2,-2.5 0,-2.0162 0.5321,-2.5353 2.75,-2.6828 1.5125,-0.1006 4.0222,-0.094 5.5773,0.014 1.555,0.1085 4.1347,0.8733 5.7328,1.6997 1.8511,0.9573 4.5756,4.398 7.5078,9.4817 2.8664,4.9694 6.7201,9.8666 10.2169,12.9832 3.0879,2.7522 6.0212,5.004 6.5184,5.004 0.4972,0 -0.5597,-1.6669 -2.3485,-3.7043 -1.7889,-2.0374 -4.3409,-6.0817 -5.6711,-8.9873 -1.9565,-4.2736 -2.374,-6.6587 -2.1851,-12.4826 0.233,-7.1848 0.2257,-7.2064 -3.5132,-10.4385 -2.1878,-1.8911 -5.2735,-3.4546 -7.416,-3.7576 -2.0182,-0.2855 -6.1092,-0.4242 -9.0913,-0.3083 -3.2416,0.1259 -5.5872,0.7061 -5.8328,1.4429 -0.2547,0.7641 -1.3291,1.0018 -2.828,0.6256 -1.3335,-0.3347 -2.4172,-0.1641 -2.4172,0.3804 0,0.5429 -1.35,1.5463 -3,2.2297 -1.65,0.6835 -3,1.8631 -3,2.6214 0,0.7582 -0.8632,1.3786 -1.9182,1.3786 -1.0551,0 -2.6275,0.2722 -3.4943,0.6048 -0.8668,0.3327 -1.3659,0.9449 -1.109,1.3604 0.2568,0.4156 -1.3085,1.5563 -3.4785,2.5348 -2.1701,0.9786 -3.7505,2.0948 -3.5121,2.4806 0.2385,0.3858 -0.9323,1.7112 -2.6016,2.9454 -1.7894,1.3229 -2.8122,2.8247 -2.4921,3.659 0.2986,0.7783 -0.035,1.415 -0.7418,1.415 -0.7066,0 -2.5727,2.6948 -4.1469,5.9884 -1.5742,3.2936 -2.9551,5.8811 -3.0687,5.75 -0.1136,-0.1311 0.1933,-3.109 0.682,-6.6176 0.56,-4.02 0.5191,-7.7515 -0.1105,-10.0896 -0.559,-2.0761 -2.7745,-5.4683 -5.03,-7.7014 -2.217,-2.1951 -5.9316,-5.0513 -8.2546,-6.3471 -3.1715,-1.7692 -3.8753,-1.928 -2.8249,-0.6376 1.2829,1.5761 1.1802,1.6355 -1.2388,0.7158 -1.4507,-0.5516 -5.4702,-1.2931 -8.9322,-1.6478 -3.7348,-0.3826 -8.7207,-0.1459 -12.2611,0.5821 -3.2817,0.6748 -6.3488,1.4561 -6.8158,1.7361 -0.4669,0.2801 4.5389,3.3272 11.1242,6.7714 6.5852,3.4442 15.1798,8.1349 19.099,10.4238 3.9192,2.289 7.1259,4.6364 7.1259,5.2165 0,0.5801 -0.6967,2.5229 -1.5482,4.3174 -0.8515,1.7944 -2.7128,3.7932 -4.1362,4.4417 -2.588,1.1792 -2.588,1.1792 -0.2018,3.7303 2.3862,2.5511 2.3862,2.5511 -3.6138,-0.1335 -3.3,-1.4764 -9.728,-4.0584 -14.2843,-5.7376 -8.2843,-3.0532 -8.2843,-3.0532 -2,-6.534 3.4563,-1.9145 7.3575,-4.3238 8.6691,-5.3541 1.5799,-1.2409 1.8867,-1.8732 0.909,-1.8732 -0.8118,0 -3.46,0.6013 -5.8849,1.3362 -2.4249,0.7349 -6.9964,2.608 -10.1589,4.1623 -3.1625,1.5543 -5.75,3.1607 -5.75,3.5696 0,0.4089 5.5709,4.1612 12.3797,8.3385 6.8089,4.1773 13.8965,8.2287 15.7503,9.0033 1.8537,0.7746 4.6236,1.1687 6.1553,0.8759 1.8735,-0.3581 3.4431,0.064 4.7966,1.2884 2.0042,1.8138 2.0015,1.8263 -0.7194,3.2519 -2.4444,1.2807 -2.558,1.5578 -1.0818,2.6373 1.2284,0.8982 1.3605,1.4954 0.5172,2.3387 -0.8432,0.8432 -0.7227,1.2896 0.4717,1.7479 0.8822,0.3386 1.3749,1.2127 1.0949,1.9425 -0.2843,0.7409 0.3655,1.6045 1.4715,1.9555 1.0894,0.3458 3.4844,1.9542 5.3223,3.5744 1.8379,1.6201 3.9363,2.9529 4.6631,2.9617 0.7268,0.01 2.0426,0.7371 2.924,1.6185 1.1073,1.1073 2.6376,1.4347 4.951,1.0593 2.205,-0.3578 3.1264,-0.1843 2.6985,0.5082 -0.4301,0.6959 0.9152,0.9271 3.9775,0.6836 2.6537,-0.2111 4.6612,0.062 4.7065,0.6391 0.043,0.554 0.3207,0.4004 0.6162,-0.3414 0.2955,-0.7417 0.097,-2.3167 -0.4404,-3.5 z m 22.9953,-34.4246 c 0.9625,-0.8452 1.75,-2.0999 1.75,-2.7881 0,-0.7591 -0.7869,-1.0456 -2,-0.7284 -1.4026,0.3668 -2,0.031 -2,-1.125 0,-0.9064 0.7204,-1.9245 1.6009,-2.2624 0.8805,-0.3378 1.9986,0.014 2.4847,0.7814 0.6709,1.0596 0.8874,0.8764 0.8991,-0.7606 0.012,-1.6669 -0.4387,-2.0377 -1.9847,-1.6334 -1.3679,0.3577 -2,0.031 -2,-1.0346 0,-0.8567 0.4573,-1.8403 1.0163,-2.1857 0.5589,-0.3455 0.7574,-1.0471 0.441,-1.5591 -0.3165,-0.5119 -1.9867,-0.9309 -3.7116,-0.9309 -2.0411,0 -4.1157,0.9384 -5.941,2.6871 -1.806,1.7303 -2.8047,3.7161 -2.8047,5.577 0,1.876 1.0499,3.9397 2.9927,5.8826 2.2803,2.2802 3.5302,2.8289 5.25,2.3048 1.2415,-0.3784 3.0448,-1.3795 4.0073,-2.2247 z m -22.2243,491.4661 c -0.014,-0.444 0.4781,-2.808 1.0938,-5.2535 0.8762,-3.4794 0.8396,-4.7837 -0.1682,-5.998 -1.1449,-1.3795 -0.9915,-1.4168 1.3804,-0.3361 1.4675,0.6687 2.6683,1.5633 2.6683,1.988 0,0.4247 -1.1135,2.94 -2.4743,5.5895 -1.3609,2.6495 -2.4859,4.454 -2.5,4.0101 z m -80.2321,-273.6962 c -0.3729,-6.4425 -1.0766,-9.1925 -3.6085,-14.1018 -3.1453,-6.0985 -3.1453,-6.0985 12.0408,-28.2467 8.3524,-12.1815 16.652,-24.3064 18.4436,-26.9443 1.7915,-2.638 4.0327,-7.363 4.9804,-10.5 0.9476,-3.1371 2.0339,-6.0763 2.4141,-6.5314 0.3801,-0.4552 0.272,1.5698 -0.2402,4.5 -0.5123,2.9301 -1.6578,7.3525 -2.5456,9.8275 -0.8879,2.475 -4.5256,9 -8.0838,14.5 -3.5583,5.5 -9.8774,14.5 -14.0425,20 -4.1651,5.5 -9.0576,11.6938 -10.8723,13.7638 -3.2993,3.7638 -3.2993,3.7638 -0.6502,8.9918 2.0627,4.0703 2.7598,7.1671 3.1486,13.9862 0.2747,4.817 0.2698,8.7582 -0.011,8.7582 -0.2807,0 -0.7188,-3.6014 -0.9736,-8.0033 z m -222.12702,-66.725 c 1.34981,-4.2505 2.98951,-8.0623 3.64379,-8.4706 0.81004,-0.5056 1.38021,0.4447 1.78702,2.9783 0.32859,2.0463 0.77859,4.1808 1,4.7433 0.22142,0.5624 -1.45197,2.6999 -3.71863,4.75 -2.26666,2.05 -4.35636,3.7273 -4.64379,3.7273 -0.28742,0 0.5818,-3.4777 1.93161,-7.7283 z"
         id="path303" /></g></g></svg>
