<?xml version="1.0" encoding="UTF-8" standalone="no"?>
<!-- Created with Inkscape (http://www.inkscape.org/) -->

<svg
   version="1.1"
   id="svg1"
   width="1715.4467"
   height="1784.929"
   viewBox="0 0 1715.4467 1784.929"
   xml:space="preserve"
   xmlns="http://www.w3.org/2000/svg"
   xmlns:svg="http://www.w3.org/2000/svg"><defs
     id="defs1" /><g
     id="g1"
     transform="translate(761.69073,-1372.6018)"><g
       id="g56"
       transform="translate(-2153.2373,1564.144)"><path
         style="fill:#ee6b05"
         d="m 2552.2326,1380.1822 c 4.4394,-13.0688 4.7898,-19.212 1.0214,-17.9102 -3.948,1.3639 -17.2324,-16.4438 -15.0265,-20.1429 8.1625,-13.6876 -7.7595,-28.4447 -47.5627,-44.0831 -51.9553,-20.4129 -81.0401,-38.4051 -152.8815,-94.5741 -27.3159,-21.3569 -70.6447,-60.771 -61.6855,-56.1123 5.5776,2.9003 3.8957,-3.7712 -1.7385,-6.8962 -6.8347,-3.7909 -28.8528,-31.1656 -26.7882,-33.3053 0.8884,-0.9206 10.2898,7.0054 20.8921,17.6134 24.0382,24.051 24.3564,21.0521 1.2185,-11.4851 -21.6693,-30.4722 -26.0957,-38.8352 -23.1601,-43.7578 2.3564,-3.9515 15.0762,7.2275 92.8468,81.6005 95.9955,91.8014 149.8042,134.3363 192.9019,152.4854 17.1523,7.2231 21.616,7.2929 15.9761,0.25 -2.1291,-2.6586 3.6408,-1.4239 16.7108,3.576 14.5294,5.5583 20.1946,9.1561 20.8146,13.2189 0.5126,3.3592 -0.025,4.3382 -1.35,2.4584 -1.211,-1.7181 -5.2835,-4.8017 -9.0502,-6.8525 -6.2633,-3.4103 -6.5278,-3.3262 -3.0966,0.9847 3.0248,3.8001 3.143,7.219 0.6101,17.6443 -1.728,7.1119 -2.419,14.1428 -1.5356,15.6242 0.8834,1.4813 0.2279,2.6933 -1.4566,2.6933 -1.6844,0 -2.3653,1.1694 -1.513,2.5986 0.8523,1.4293 -1.3431,6.22 -4.8788,10.6462 -3.5356,4.4262 -7.9514,10.6027 -9.8128,13.7256 -3.3845,5.6779 -3.3845,5.6779 -1.4557,0 z m 120.3859,-198.6579 c -40.7415,-7.8084 -75.4396,-19.823 -111.0469,-38.4512 -16.2947,-8.5248 -21.2325,-13.2921 -10.8541,-10.4794 7.7586,2.1028 7.4567,1.7777 -12.3454,-13.2908 -9.8032,-7.4599 -17.16,-14.6769 -16.3483,-16.038 1.8221,-3.0555 9.5183,-0.2848 9.5183,3.4267 0,1.4865 1.4231,1.7912 3.1626,0.6771 2.1042,-1.3478 2.4122,-0.7674 0.9203,1.7344 -1.6418,2.753 -0.9833,3.2594 2.4583,1.8906 2.5854,-1.0281 4.0153,-0.7199 3.1775,0.6849 -1.8319,3.0718 29.8645,22.3865 56.9988,34.7331 26.5069,12.0612 67.5333,26.0811 60.8234,20.7852 -2.9245,-2.3083 -6.3145,-4.1969 -7.5332,-4.1969 -1.2186,0 -2.2157,-1.2947 -2.2157,-2.8771 0,-1.6453 4.3981,-0.9272 10.2725,1.6773 18.0261,7.9919 18.1254,8.0199 16.039,4.5212 -1.4246,-2.3888 2.442,-3.3214 13.7709,-3.3214 14.6753,0 15.3883,-0.2999 10.4342,-4.3879 -7.5847,-6.2587 26.918,-0.4264 52.2089,8.8255 5.3371,1.9524 5.344,1.8954 0.2664,-2.2055 -12.0015,-9.6929 13.0186,-14.7773 37.7281,-7.6668 14.5677,4.192 9.6051,7.9899 -13.3424,10.2107 -15.9638,1.5449 -17.7881,2.2414 -12.1328,4.6316 10.7611,4.5481 0.4212,5.6597 -38.9673,4.1892 -33.6631,-1.2567 -34.4953,-1.1463 -28.7632,3.816 7.4175,6.4212 4.236,6.5672 -24.2299,1.1115 z m 0.6849,-34.798 c 6.4032,-0.5977 16.8812,-0.5977 23.2844,0 6.4032,0.5977 1.1642,1.0868 -11.6422,1.0868 -12.8065,0 -18.0455,-0.4891 -11.6422,-1.0868 z m 234.6327,-3.1525 c 1.7949,-3.0099 33.2798,-23.0152 62.4097,-39.6547 15.5744,-8.8964 15.5744,-8.8964 9.5877,0.6194 -3.2926,5.2337 -6.404,9.1305 -6.914,8.6596 -0.51,-0.4709 -7.1171,2.9262 -14.6824,7.5491 -28.7037,17.5399 -54.1102,29.0465 -50.401,22.8266 z m -140.8101,-6.1247 c -9.5877,-2.0915 -9.5877,-2.0915 1.3697,-2.7285 17.3758,-1.0102 34.5191,0.1614 40.79,2.7875 7.2618,3.0411 -28.176,2.9915 -42.1597,-0.059 z m 89.0289,-41.2316 c 10.2044,-8.6419 56.114,-33.5724 58.0771,-31.538 1.628,1.6873 -30.1673,23.4531 -47.6955,32.6503 -15.366,8.0627 -20.5587,7.5064 -10.3816,-1.1123 z m -895.8184,-24.7747 c -27.3421,-29.0996 -27.3421,-29.0996 0.7363,-0.763 26.0792,26.3191 29.3236,29.8625 27.342,29.8625 -0.4049,0 -13.0401,-13.0948 -28.0783,-29.0995 z m 466.753,1.3596 c -102.79,-85.49473 -184.6912,-180.94246 -220.271,-256.70404 -16.9074,-36.00143 -16.8296,-36.3611 7.8592,-36.3611 33.8088,0 40.0705,5.70059 89.9351,81.87554 19.0732,29.13688 36.1146,52.62511 37.8697,52.19607 1.7551,-0.42905 2.4168,0.51837 1.4704,2.10537 -2.1236,3.56097 14.4787,29.15959 17.6107,27.15351 1.2428,-0.79604 2.0906,0.7746 1.8841,3.49031 -0.2066,2.71572 1.0203,4.66838 2.7264,4.33926 1.706,-0.32913 2.9387,1.58718 2.7393,4.25847 -0.1994,2.67129 1.2699,4.50585 3.2652,4.0768 1.9953,-0.42904 2.8387,0.54325 1.8741,2.16066 -0.9645,1.61741 1.8755,6.7019 6.3112,11.29888 4.4356,4.59698 7.4229,9.02336 6.6384,9.83642 -2.4315,2.51994 5.285,10.17799 8.306,8.24304 1.6623,-1.06477 2.032,-0.45147 0.8861,1.47012 -2.3205,3.89116 8.6833,21.04629 12.0972,18.85969 1.2873,-0.8245 3.2326,0 4.3228,1.8248 1.238,2.0759 0.7948,2.5634 -1.1804,1.2983 -9.5164,-6.0954 -0.7598,5.8458 14.7651,20.135 23.3781,21.5172 33.7991,37.793 24.1981,37.793 -4.0913,0 -4.0931,0.5059 -0.023,6.3877 16.1094,23.2789 9.7038,21.7004 -23.285,-5.7378 z m 537.585,11.1978 c 29.4349,-23.3669 57.6187,-37.5675 50.7018,-25.5466 -3.8694,6.7248 -8.6105,12.3004 -10.5356,12.3902 -1.9252,0.09 -11.513,4.2526 -21.3061,9.2507 -19.7682,10.089 -29.0775,12.0169 -18.8601,3.9057 z m -67.7518,-27.1757 c 0.7231,-5.1058 7.5211,-13.6451 9.352,-11.7475 0.7704,0.7983 9.4989,-5.8779 19.3967,-14.8361 13.8076,-12.4967 16.5592,-14.175 11.8223,-7.2108 -12.3241,18.119 -41.8319,42.6981 -40.571,33.7944 z m 87.1556,-24.6887 c 0.656,-2.0398 12.5795,-10.9591 26.4965,-19.8206 13.9171,-8.8615 30.4761,-20.31676 36.7978,-25.45621 6.3217,-5.13945 13.298,-10.72728 15.5029,-12.41742 2.221,-1.70252 1.1028,1.9914 -2.5074,8.28297 -3.5839,6.24577 -7.8125,14.07604 -9.3968,17.40056 -5.5847,11.7192 -70.3321,42.7031 -66.893,32.0107 z m -922.3345,-32.84599 c -58.8162,-37.61791 -137.4782,-98.53653 -175.3183,-135.77267 -26.0771,-25.66089 -21.3557,-24.05947 18.7939,6.3746 56.306,42.6809 58.9393,41.52641 10.6541,-4.6709 -44.1497,-42.24063 -43.5154,-46.02869 1.3697,-8.17952 10.9231,9.21091 19.8603,15.89073 19.8603,14.84405 0,-2.34479 -13.1445,-20.07322 -30.9595,-41.75616 -16.0394,-19.52177 -10.8945,-22.55821 6.0129,-3.54873 14.4964,16.29883 17.347,16.55831 4.5848,0.41735 -22.8442,-28.89242 2.2944,-12.03633 42.2765,28.34749 17.3264,17.50043 32.7353,32.24058 34.2419,32.75588 1.5066,0.5153 2.4434,1.85692 2.0818,2.98138 -0.3617,1.12446 1.7955,3.4051 4.7938,5.0681 2.9983,1.663 5.4515,4.25623 5.4515,5.76273 0,3.0479 1.7713,5.30407 23.3162,29.69876 8.2691,9.36277 15.0346,18.40226 15.0346,20.08775 0,4.72081 12.4396,15.73872 15.024,13.30695 1.2598,-1.18537 1.3996,-0.55123 0.3106,1.40919 -1.1684,2.10358 1.8342,8.50289 7.3265,15.6144 29.7487,38.51924 29.5407,39.25844 -4.8553,17.25935 z m 928.2829,-188.32374 c 0,-16.39512 0.4528,-23.10222 1.0061,-14.90466 0.5534,8.19756 0.5534,21.61176 0,29.80932 -0.5533,8.19757 -1.0061,1.49047 -1.0061,-14.90466 z m -1392.1682,-4.01275 c -9.2787,-10.01421 -16.8703,-19.16993 -16.8703,-20.34604 0,-1.17611 0.3628,-1.60607 0.8063,-0.95547 0.4435,0.6506 8.6515,9.80632 18.24,20.34604 9.5885,10.53973 16.8172,19.16314 16.0639,19.16314 -0.7533,0 -8.9613,-8.19345 -18.2399,-18.20767 z m 698.38,-5.21394 c -0.3059,-5.42069 -4.4312,-6.65282 -7.1288,-2.12924 -5.8894,9.87596 -13.0081,-0.69732 -56.4556,-83.8528 -35.3836,-67.72179 -47.1125,-92.17807 -44.1857,-92.13289 2.5953,0.0401 17.289,24.40127 47.4881,78.73205 25.3711,45.64487 32.6081,57.50953 32.6081,53.45932 0,-2.31205 -18.4737,-38.91129 -30.9154,-61.24805 -4.8176,-8.64921 -3.327,-7.72976 11.5063,7.09746 17.041,17.03389 17.041,17.03389 3.1586,-7.52674 -17.2844,-30.57954 -17.6633,-34.29961 -1.1475,-11.26609 7.0041,9.76824 13.499,16.47896 14.433,14.9127 1.6106,-2.70069 37.1601,44.66787 42.4311,56.53789 4.3782,9.85974 -0.9016,9.70253 -11.1038,-0.33063 -9.9066,-9.74239 -9.9066,-9.74239 -1.1175,3.03304 9.1699,13.32879 9.4901,17.08732 3.3862,39.74576 -1.4722,5.46504 -2.8029,7.70074 -2.9571,4.96822 z m -85.2002,-63.37079 c -9.7932,-5.25847 -20.2712,-10.32961 -23.2845,-11.2692 -5.3619,-1.67193 -5.3676,-1.79306 -0.2656,-5.68496 4.9845,-3.80227 4.7278,-4.52232 -5.8556,-16.42151 -17.7802,-19.99087 -19.6317,-27.88369 -2.4845,-10.5915 15.6149,15.74689 22.4021,17.97932 13.9323,4.58254 -10.8116,-17.10061 -0.5065,-8.78714 14.5175,11.71175 28.1802,38.44966 28.5143,41.13637 3.4404,27.67288 z m 94.9446,-10.44277 c -14.5254,-20.03286 -32.2706,-50.77723 -31.192,-54.04171 1.0814,-3.27321 16.977,20.46325 33.3382,49.78323 8.6761,15.54795 7.595,17.6931 -2.1462,4.25848 z m 40.1824,-12.06568 c 0.012,-10.93008 0.5072,-15.0536 1.1002,-9.16337 0.593,5.89023 0.5831,14.83302 -0.022,19.87288 -0.6052,5.03985 -1.0904,0.22058 -1.0782,-10.70951 z m -41.1296,-14.90466 c -28.4855,-42.12557 -29.3428,-43.68087 -25.4517,-46.17319 1.918,-1.22848 2.4522,-3.71906 1.2354,-5.75949 -1.3809,-2.31563 -1.0399,-2.88792 0.9582,-1.6081 5.437,3.48247 60.7751,79.30194 59.1231,81.00539 -0.872,0.89923 -5.4855,-3.42884 -10.2522,-9.61795 -15.4094,-20.00784 -21.8479,-26.20859 -12.3928,-11.93515 4.9982,7.5453 10.0386,14.32779 11.2008,15.07221 3.543,2.26933 2.3562,6.69637 -1.7951,6.69637 -2.1496,0 -12.3311,-12.45604 -22.6257,-27.68009 z m -695.2844,-14.90466 c 8.9455,-9.36864 16.881,-17.0339 17.6343,-17.0339 0.7533,0 -5.9494,7.66526 -14.8949,17.0339 -8.9456,9.36864 -16.881,17.0339 -17.6343,17.0339 -0.7533,0 5.9494,-7.66526 14.8949,-17.0339 z m -210.6235,-61.94393 c -0.7626,-1.27891 2.0243,-1.80646 6.1931,-1.17234 5.2663,0.80104 10.4478,-1.18714 16.9763,-6.51396 9.3965,-7.66689 9.3965,-7.66689 0.4504,1.17235 -8.4493,8.34836 -20.5377,11.68216 -23.6198,6.51395 z m 924.7633,-20.88024 c -16.9284,-38.64459 -62.4825,-78.40131 -95.6271,-83.45719 -16.9859,-2.59103 -27.1327,-9.04026 -18.1001,-11.50435 3.2857,-0.89634 5.3918,-3.20204 4.6802,-5.12378 -0.7902,-2.13412 3.0153,-4.83205 9.7773,-6.93167 10.4952,-3.25882 14.3276,-9.30568 8.3317,-13.14612 -9.7941,-6.27324 -2.2062,-10.53874 15.2924,-8.59663 24.187,2.68441 19.0413,-5.07296 -41.3162,-62.28585 -15.2414,-14.44732 -7.4304,-11.8305 43.4943,14.57129 22.4153,11.62113 40.0816,19.46368 39.2585,17.42789 -0.8232,-2.0358 -6.3461,-15.19933 -12.2732,-29.2523 -18.2923,-43.37059 -26.1636,-75.26772 -12.354,-50.06229 2.7103,4.94677 6.4477,8.29417 8.4073,7.52984 1.9403,-0.75683 4.1722,0.3641 4.9597,2.49095 1.5558,4.20178 14.1552,4.25438 20.5098,0.0856 2.1311,-1.39805 4.6196,-2.56148 5.5299,-2.58539 0.9103,-0.0239 5.1615,-4.36212 9.447,-9.64047 7.2154,-8.88681 7.3463,-9.4504 1.7691,-7.61589 -12.6714,4.16802 -8.0402,-16.61025 7.6739,-34.42928 15.4965,-17.5724 16.5877,-20.53727 6.8484,-18.60776 -9.0999,1.80281 -8.6842,-0.20621 3.2815,-15.86126 10.1299,-13.25322 10.1299,-13.25322 -2.6819,-0.65485 -7.0465,6.9291 -13.5637,11.81919 -14.4826,10.86688 -1.6979,-1.75968 17.709,-21.31985 25.8574,-26.0616 5.1937,-3.02234 8.8011,-8.04758 7.0671,-9.84467 -0.6631,-0.68724 -7.289,4.06655 -14.7241,10.56397 -17.0466,14.89671 -15.9743,15.37375 -18.2061,-8.0993 -1.6094,-16.92753 -2.4869,-19.40217 -5.8533,-16.50671 -3.1144,2.6787 -4.4648,2.55977 -6.3234,-0.55694 -1.9595,-3.28583 -3.3281,-3.05816 -8.0093,1.33231 -9.7543,9.14864 -7.9156,-11.81026 1.8873,-21.51195 4.1433,-4.10049 9.8298,-11.56447 12.6368,-16.5866 7.9148,-14.16092 -2.6052,-7.0882 -18.9516,12.74132 -7.1254,8.64381 -13.619,15.02822 -14.4302,14.18759 -0.8111,-0.84064 -4.9373,1.90956 -9.1693,6.11155 -9.0075,8.94363 -13.9952,6.7531 -5.9279,-2.60346 14.3036,-16.58958 17.4358,-25.8718 3.5887,-10.63499 -9.8015,10.78513 -13.7876,13.7501 -12.8881,9.58659 1.0336,-4.78397 0.2435,-5.74084 -3.8291,-4.6371 -12.2214,3.31221 -5.1933,-11.34461 14.471,-30.17881 27.5398,-26.37722 35.7629,-45.07722 37.376,-84.997 0.8355,-20.673348 2.2456,-29.737226 4.7836,-30.746556 6.2833,-2.498844 23.7256,8.213514 29.2911,17.989476 2.9509,5.18324 7.0925,9.42408 9.2037,9.42408 2.1111,0 3.8384,1.17952 3.8384,2.62116 0,3.9374 13.7521,20.0907 17.1042,20.0907 1.6062,0 0.6892,-2.55508 -2.0378,-5.67796 -8.0355,-9.20207 -1.0828,-6.48876 9.0934,3.54873 9.3542,9.22669 9.3542,9.22669 4.9243,0.14098 -2.4365,-4.99714 -4.4299,-9.73804 -4.4299,-10.53532 0,-0.79729 8.9023,2.9719 19.783,8.37596 26.8025,13.31198 32.9471,13.19467 21.4221,-0.409 -11.2747,-13.30817 -9.2933,-14.60769 9.7889,-6.42012 11.0841,4.75585 15.977,5.72826 16.7507,3.32901 0.6011,-1.86408 2.8624,-2.68555 5.025,-1.82549 2.1626,0.86006 3.932,0.14952 3.932,-1.57898 0,-1.7285 3.6981,-3.14272 8.2181,-3.14272 4.5199,0 8.218,-1.30188 8.218,-2.89307 0,-3.6954 13.7851,-0.25994 18.4797,4.60543 1.9071,1.9765 5.9963,4.42543 9.0869,5.44205 23.6774,7.78823 10.7003,79.65963 -25.0543,138.75872 -12.5088,20.67593 -15.8007,33.58894 -10.3866,40.74296 3.356,4.43449 3.2785,4.58125 -0.7131,1.35023 -3.8598,-3.12426 -4.7363,-2.56021 -6.3452,4.08312 -1.0267,4.23949 -3.4073,9.0646 -5.2902,10.72249 -1.883,1.65788 -5.5444,10.30119 -8.1366,19.20735 -2.5921,8.90616 -8.7284,22.32035 -13.6362,29.80932 -4.9077,7.48897 -27.6432,41.91155 -50.5232,76.49462 -41.6001,62.87831 -41.6001,62.87831 -33.1447,79.86914 14.3409,28.81788 15.0835,80.11271 1.1597,80.11271 -2.0886,0 -5.6482,0.73601 -7.9101,1.63558 -2.8896,1.14915 -5.7127,-2.01702 -9.4927,-10.64619 z m -743.9033,-59.12498 c 12.3819,-18.97587 17.3329,-24.67592 10.2925,-11.84985 -2.8507,5.19339 -8.6252,13.49741 -12.8321,18.45339 -5.5289,6.51327 -4.8249,4.68292 2.5396,-6.60354 z m 17.4364,-20.77488 c 0,-0.69014 7.0881,-6.76735 15.7513,-13.5049 8.6632,-6.73756 14.266,-10.3429 12.4508,-8.01189 -3.7214,4.77873 -28.2021,23.45627 -28.2021,21.51679 z M 1420.3205,496.2292 c 8.5471,-8.02184 16.2768,-14.58516 17.1771,-14.58516 2.1264,0 -26.2592,26.62633 -29.9249,28.07033 -1.5358,0.60499 4.2007,-5.46334 12.7478,-13.48517 z m 79.854,-5.46383 c 11.4209,-12.51848 13.0124,-15.49966 9.5878,-17.95978 -3.336,-2.39646 -3.3676,-2.7428 -0.1684,-1.84643 7.5333,2.11072 5.6152,6.67169 -8.7058,20.70167 -14.4075,14.11457 -14.4075,14.11457 -0.7136,-0.89546 z m 207.9003,-70.39165 c 0.9145,-2.46987 1.8987,-17.48099 2.1871,-33.35805 0.5243,-28.86739 0.5243,-28.86739 2.0545,-1.89705 1.8935,33.37445 12.4004,9.78721 11.6978,-26.26059 -0.2055,-10.53972 0.7693,-19.16314 2.1662,-19.16314 4.6206,0 8.3749,11.11122 6.4459,19.07677 -1.6984,7.01309 -1.4601,7.38341 2.2666,3.52118 2.2906,-2.37389 4.7856,-11.01274 5.5444,-19.19744 1.6381,-17.66741 3.9582,-20.99238 9.3328,-13.37482 3.9214,5.55789 3.9939,5.5486 5.5742,-0.71421 1.739,-6.89168 8.8648,-8.37563 14.111,-2.93859 4.5335,4.69833 4.1136,0.80631 -1.0238,-9.48956 -6.2404,-12.50653 -2.5667,-13.44052 8.8112,-2.24012 11.0123,10.84061 11.0159,10.41469 0.094,-11.12253 -9.8204,-19.36485 -7.1559,-22.16415 6.5753,-6.9081 12.2865,13.65083 14.1195,13.02049 3.6205,-1.24505 -9.8828,-13.42829 -6.6511,-14.48804 5.2988,-1.73758 14.6705,15.65336 15.139,9.54095 0.6789,-8.85783 -20.2239,-25.73255 -14.1728,-31.34631 7.0291,-6.52103 18.2264,21.34134 18.5156,15.57389 0.5101,-10.17199 -8.4417,-12.07055 -14.6191,-22.70235 -13.7276,-23.62621 3.5644,-3.69407 10.7021,2.56665 23.0606,20.22724 7.1357,10.19712 14.6341,18.54022 16.6631,18.54022 2.0396,0 -1.0931,-5.63053 -7.0061,-12.59237 -20.8787,-24.58221 -33.3133,-48.38261 -18.7197,-35.8305 2.2304,1.91838 5.2434,2.7269 6.6957,1.79673 4.1118,-2.6337 53.3361,32.58263 50.1534,35.88109 -1.7471,1.81072 -7.7844,-0.58593 -17.3444,-6.88532 -8.0654,-5.31456 -16.5134,-10.81938 -18.7734,-12.23292 -2.2599,-1.41355 -0.013,2.79338 4.994,9.34873 5.0066,6.55535 10.2512,12.65431 11.6547,13.55324 2.983,1.91066 -6.0661,13.96676 -39.8553,53.09895 -24.5762,28.46249 -24.5762,28.46249 -27.8396,20.262 -3.1916,-8.02027 -8.9342,17.79101 -7.3342,32.96477 0.3188,3.02238 -0.6848,2.65886 -3.4574,-1.25236 -2.1486,-3.03096 -3.9065,-9.69796 -3.9065,-14.81556 0,-20.46078 -19.5443,16.91267 -20.0075,38.2592 -0.088,4.06831 -21.4325,20.39346 -26.6633,20.39346 -1.8141,0 -2.4966,-1.96352 -1.5609,-4.49066 z m 851.5456,-71.391 c 5.6499,-0.6125 14.8952,-0.6125 20.5451,0 5.6499,0.61249 1.0273,1.11362 -10.2726,1.11362 -11.2998,0 -15.9224,-0.50113 -10.2725,-1.11362 z m 126.1738,-2.89431 c 20.8064,-0.48289 54.0895,-0.48165 73.9624,0.003 19.8729,0.48442 2.8495,0.87951 -37.8298,0.87799 -40.6793,-0.002 -56.939,-0.39786 -36.1326,-0.88076 z m -204.8716,-26.19945 c -2.6948,-3.08606 -5.828,-5.01644 -6.9626,-4.28973 -1.1345,0.72671 -3.5861,-0.58096 -5.448,-2.90593 -1.8618,-2.32497 -2.3097,-4.24678 -0.9952,-4.27069 1.3145,-0.0239 0.5766,-1.23199 -1.6398,-2.68462 -2.2163,-1.45263 -3.3721,-3.3226 -2.5685,-4.15548 0.8037,-0.83289 6.88,4.20782 13.503,11.20157 6.6229,6.99374 11.3597,12.7159 10.5262,12.7159 -0.8335,0 -3.7203,-2.52496 -6.4151,-5.61102 z M 1847.858,252.85774 c -10.7592,-5.42061 -34.999,-30.79202 -33.5935,-35.1618 0.6579,-2.04552 5.0496,-0.0375 11.4536,5.23682 29.9648,24.67912 40.8021,39.32723 22.1399,29.92498 z m 9.3297,-11.60742 c -25.9508,-21.63395 -39.4065,-37.82661 -31.4331,-37.82661 4.4011,0 48.3438,38.84348 48.3438,42.7338 0,4.98566 -7.737,2.74053 -16.9107,-4.90719 z m 42.0033,-24.34144 c -0.4084,-9.91619 0.078,-10.61968 7.0948,-10.25957 6.2132,0.31888 6.4814,0.59837 1.5306,1.59509 -4.3614,0.87805 -6.3013,3.68326 -7.0948,10.25957 -1.0494,8.69631 -1.1094,8.63379 -1.5306,-1.59509 z m -51.8434,-7.81341 c -18.9869,-13.14008 -24.482,-19.06137 -20.9347,-22.55835 1.435,-1.41468 10.5404,5.2383 21.5349,15.73473 22.1389,21.13616 22.0208,22.47879 -0.6002,6.82362 z m 7.0531,-11.05791 c -23.7365,-19.84732 -34.7545,-31.52063 -29.7511,-31.52063 6.9557,0 57.6669,40.2034 57.6669,45.71783 0,6.10603 -9.276,1.38853 -27.9158,-14.1972 z m 740.9139,8.97385 c 7.202,-0.58675 18.2963,-0.57967 24.6541,0.0157 6.3578,0.5954 0.4652,1.07547 -13.0945,1.06681 -13.5598,-0.009 -18.7616,-0.49579 -11.5596,-1.08255 z m -717.2987,-12.10759 c -8.3338,-5.53492 -27.8247,-28.38689 -24.2118,-28.38689 2.0853,0 39.4698,31.22856 39.4698,32.97042 0,2.77848 -7.6195,0.48956 -15.258,-4.58353 z m -127.1951,-11.34436 c 6.3033,-7.80246 12.8898,-15.09636 14.6367,-16.20868 1.7468,-1.11231 -2.8291,5.27152 -10.1686,14.18629 -7.3396,8.91477 -13.9261,16.20868 -14.6367,16.20868 -0.7106,0 3.8653,-6.38383 10.1686,-14.18629 z m 162.3134,7.25391 c -9.2303,-2.31726 -14.3816,-2.58162 -14.3816,-0.73804 0,1.57985 -2.2543,0.75815 -5.0096,-1.82602 -2.7552,-2.58416 -5.9859,-4.69848 -7.1793,-4.69848 -2.3227,0 -42.5981,-25.93818 -42.5981,-27.43404 0,-4.57469 18.307,2.66644 31.3263,12.39079 14.7114,10.98816 32.4653,18.01341 36.0732,14.27425 0.7698,-0.79781 -2.6776,-4.41509 -7.6609,-8.03839 -15.7587,-11.45785 -51.5205,-43.10053 -51.5205,-45.58616 0,-6.57092 34.6182,17.19795 61.4637,42.20096 7.4388,6.92827 16.9922,14.45502 21.2299,16.7261 14.4869,7.76395 3.7034,9.11741 -21.7431,2.72903 z m 25.3389,-5.61955 c -8.7288,-4.04973 -27.0234,-21.4262 -24.8881,-23.63914 1.284,-1.3307 34.4759,24.10588 34.4759,26.42056 0,1.6548 -0.069,1.63484 -9.5878,-2.78142 z m -83.5501,-34.56325 c -15.3042,-9.06429 -15.879,-9.66448 -9.256,-9.66448 2.9447,0 9.6218,3.7807 14.8382,8.40157 11.7157,10.3783 10.3355,10.69056 -5.5822,1.26291 z m 712.4469,-87.756974 c -0.1241,-1.639769 -5.6233,-2.413763 -12.8927,-1.814577 -8.3887,0.69145 -12.0742,0.03506 -10.896,-1.940615 1.1724,-1.966021 -1.3517,-2.45872 -7.392,-1.442869 -6.3372,1.065788 -10.5293,0.136275 -13.5625,-3.007148 -2.4145,-2.502366 -6.019,-4.570164 -8.0099,-4.595105 -1.9909,-0.02494 -7.7391,-3.808635 -12.7738,-8.408209 -5.0346,-4.599573 -11.5955,-9.165981 -14.5796,-10.147571 -3.0298,-0.996586 -4.8099,-3.448229 -4.031,-5.551755 0.7671,-2.071875 -0.5825,-4.553426 -2.9993,-5.514557 -3.272,-1.301238 -3.6019,-2.568527 -1.292,-4.962432 2.3099,-2.393904 1.948,-4.089451 -1.4168,-6.6393952 -4.0441,-3.0646537 -3.7328,-3.8513758 2.9632,-7.4873482 10.0467,-5.4554431 1.4403,-15.3877256 -11.1689,-12.8896456 -10.9264,2.1646891 -93.9194,-43.538222 -93.9194,-51.719925 0,-4.882996 48.377,-25.743981 59.7008,-25.743981 5.6286,0 -5.0724,8.368195 -26.2376,20.517947 -17.2149,9.88202 -17.2149,9.88202 5.4786,18.549921 12.4815,4.767346 30.0898,12.097478 39.1296,16.289183 16.4361,7.621281 16.4361,7.621281 9.8996,0.378744 -6.5366,-7.242537 -6.5366,-7.242537 0.5528,-10.590156 6.4741,-3.057101 15.5715,-17.585065 15.5715,-24.866838 0,-3.501248 -25.7988,-19.447089 -71.8391,-44.402724 -18.0394,-9.778 -31.7522,-18.42867 -30.473,-19.22371 12.6152,-7.84057 58.7539,-8.98513 76.7266,-1.90335 6.6264,2.61097 6.9079,2.44245 3.3937,-2.03199 -7.0793,-9.01366 18.578,7.74941 30.3505,19.82936 13.8162,14.17692 17.2901,26.637323 14.0816,50.508249 -3.0765,22.889681 -2.911,22.952022 6.538,2.463168 4.3123,-9.35047 9.4243,-17.000855 11.3599,-17.000855 1.9357,0 2.85,-1.8078 2.0319,-4.017333 -0.877,-2.368418 1.9251,-6.632138 6.8268,-10.387915 4.5728,-3.503821 7.7799,-7.266634 7.1268,-8.361814 -0.6531,-1.09517 3.6762,-4.26419 9.6206,-7.04226 5.9445,-2.77807 10.2324,-6.01639 9.5288,-7.19626 -1.5294,-2.56463 5.284,-5.57916 12.61,-5.57916 2.8901,0 5.2547,-1.76132 5.2547,-3.91405 0,-2.15273 3.6981,-5.50158 8.218,-7.44189 4.52,-1.9403 8.2181,-4.78888 8.2181,-6.33016 0,-1.54593 2.9687,-2.03011 6.6217,-1.07994 4.1058,1.06799 7.0491,0.39318 7.7469,-1.77614 0.6727,-2.09164 7.098,-3.73898 15.9779,-4.09648 39.9591,-1.60872 55.9009,9.95952 54.8568,39.80704 -0.6878,19.664108 3.7558,40.029309 8.1239,37.231496 1.368,-0.876198 1.6755,0.599154 0.6834,3.27856 -1.1351,3.065682 -0.7304,4.184106 1.0918,3.016986 1.6467,-1.054726 2.7336,0.275005 2.52,3.083008 -0.2065,2.715717 1.121,4.633607 2.9501,4.261978 1.829,-0.371629 2.6695,1.096075 1.8677,3.261564 -0.8018,2.165489 0.049,4.902639 1.8915,6.082556 2.2829,1.462225 2.6437,0.962017 1.1332,-1.570973 -1.5095,-2.531305 -1.1496,-3.033145 1.1287,-1.573856 1.8396,1.178332 2.6292,2.884076 1.7546,3.790542 -2.1057,2.182288 12.4398,17.826864 15.0313,16.167014 1.1053,-0.708007 3.5565,0.644208 5.4469,3.004921 11.0282,13.771429 -30.0419,-15.702227 -44.2259,-31.738406 -3.9422,-4.456983 -12.3143,-17.360534 -18.6048,-28.674558 -14.4357,-25.963992 -23.7495,-31.456592 -50.2445,-29.630462 -6.0755,0.41875 -7.5332,1.89252 -7.5332,7.61667 0,5.2048 -1.461,7.09746 -5.4787,7.09746 -3.0132,0 -7.8413,2.44862 -10.7291,5.441382 -2.8877,2.992761 -5.9695,4.696151 -6.8483,3.785311 -0.8789,-0.910841 -1.598,2.44548 -1.598,7.458491 0,7.105672 -1.0566,8.930703 -4.7939,8.280367 -3.5121,-0.611161 -5.0399,1.40699 -5.7142,7.548251 -0.5062,4.610346 -2.9716,9.962094 -5.4787,11.892772 -3.6922,2.843318 -3.9478,4.548094 -1.3455,8.971902 2.5831,4.391132 2.3338,6.372522 -1.2718,10.109346 -3.9574,4.101302 -3.9843,4.647768 -0.2284,4.647768 2.341,0 5.6618,3.19679 7.3795,7.103979 4.2992,9.778769 18.9819,18.4235163 31.3133,18.4362554 14.772,0.015261 13.3996,7.0374443 -2.1693,11.1003519 -28.6433,7.4747828 -35.0178,21.7653767 -22.4718,50.3781827 1.473,3.359264 2.0158,7.830662 1.2064,9.93644 -0.8095,2.105778 -1.5691,2.541939 -1.688,0.969247 z M 2740.2101,0.96319701 c -3.276,-3.61387821 -5.9562,-7.87235271 -5.9562,-9.46327661 0,-4.3558874 7.7668,-3.4743204 9.4504,1.0726622 0.8076,2.1808882 2.9001,3.0481157 4.6502,1.9271722 2.1241,-1.3604822 2.4365,-0.7879702 0.9396,1.7220041 -1.6241,2.7234764 -0.9966,3.26470024 2.2761,1.9631809 3.8788,-1.5425947 4.043,-1.0081911 1.1601,3.7760213 -4.2635,7.0752654 -5.2753,6.9946373 -12.5202,-0.99776409 z M 2605.4847,-45.990574 c -15.0114,-15.557369 -5.3567,-40.16198 15.7593,-40.16198 8.8715,0 13.8558,3.932572 8.9593,7.068837 -5.2975,3.393093 -3.137,10.722963 2.6947,9.142468 4.2351,-1.147787 5.4691,-0.09523 5.4367,4.637106 -0.032,4.647514 -0.625,5.167613 -2.4629,2.15951 -3.0758,-5.034377 -11.1919,-1.985449 -11.1919,4.204431 0,3.280975 1.6367,4.235113 5.4787,3.193868 12.4033,-3.361496 2.5497,12.242649 -10.2924,16.299037 -4.7112,1.48814 -8.1351,-0.06963 -14.3815,-6.543277 z"
         id="path58" /><path
         style="fill:#040202"
         d="m 2447.9919,1574.7174 c -43.0699,-23.4999 -45.1886,-26.4348 -45.1949,-62.6073 -0.01,-58.65 10.1398,-111.3606 26.974,-140.0781 6.2549,-10.6703 11.3704,-19.5893 11.3677,-19.8201 0,-0.2308 -6.4744,-0.5859 -14.3816,-0.7892 -67.2041,-1.7281 -286.73,-140.5195 -315.5779,-199.5186 -3.8873,-7.9503 -7.4938,-14.455 -8.0145,-14.455 -2.5829,0 -41.1252,17.3671 -48.469,21.8399 -4.6328,2.8218 -12.6513,12.3321 -17.8189,21.134 -10.0648,17.1433 -27.0258,34.7325 -36.4956,37.8474 -3.1963,1.0514 -7.6194,5.5348 -9.829,9.9631 -2.2096,4.4283 -8.9441,10.4061 -14.9657,13.284 -9.29,4.4399 -10.9589,6.5633 -11.0189,14.0191 -0.1234,15.3446 -16.1408,23.8354 -25.8947,13.7267 -10.5114,-10.8937 -8.5905,-18.6868 13.5965,-55.1616 16.4873,-27.1048 34.2875,-74.5006 36.013,-95.8902 2.9026,-35.9816 -86.4205,-115.8705 -210.4544,-188.22653 C 1595.2446,823.47374 1554.4505,778.97812 1585.3829,720.078 c 17.4605,-33.24751 83.8645,-85.12836 108.959,-85.12872 8.049,-1.2e-4 28.3995,-8.96663 83.8564,-36.94747 73.2281,-36.94731 73.2281,-36.94731 126.5405,-49.47461 100.7934,-23.68437 90.7798,-18.69361 87.0808,-43.40089 -3.496,-23.35163 1.0276,-41.31354 19.307,-76.66293 12.8404,-24.83131 24.4891,-78.53927 34.0307,-156.90408 2.1864,-17.95656 4.7904,-36.70106 5.7869,-41.65444 2.0982,-10.4308 1.3803,-10.63149 -49.4661,-13.82888 -15.0664,-0.94742 -43.4186,-3.5307 -63.005,-5.74061 -19.5863,-2.20991 -36.6471,-4.03032 -37.9127,-4.04535 -1.2657,-0.015 -1.8821,5.44734 -1.3697,12.13861 0.7151,9.33975 -0.5301,14.12115 -5.3606,20.58262 -3.4607,4.62919 -13.6642,18.63704 -22.6746,31.12856 -22.552,31.26521 -104.1362,115.95663 -107.7339,111.83718 -0.5365,-0.61426 0.2733,-9.94751 1.7995,-20.74056 2.6209,-18.53563 2.9487,-19.18283 5.9108,-11.67239 3.1361,7.95132 3.1361,7.95132 27.7123,-20.51117 33.7892,-39.13219 42.8383,-51.18829 39.8553,-53.09895 -1.4035,-0.89893 -6.6481,-6.99789 -11.6547,-13.55324 -5.0067,-6.55535 -7.2539,-10.76228 -4.994,-9.34873 2.26,1.41354 10.708,6.91836 18.7734,12.23292 9.56,6.29939 15.5973,8.69604 17.3444,6.88532 3.1827,-3.29846 -46.0416,-38.51479 -50.1534,-35.88109 -1.4523,0.93017 -4.4653,0.12165 -6.6957,-1.79673 -14.5936,-12.55211 -2.159,11.24829 18.7197,35.8305 5.913,6.96184 9.0457,12.59237 7.0061,12.59237 -2.029,0 -9.5274,-8.3431 -16.6631,-18.54022 -12.3585,-17.66059 -19.4962,-23.92131 -23.0606,-20.22724 -0.8915,0.92386 5.2859,11.55566 13.7276,23.62621 18.0055,25.74588 17.7163,31.51333 -0.5101,10.17199 -21.2019,-24.82528 -27.253,-19.21152 -7.0291,6.52103 14.4601,18.39878 13.9916,24.51119 -0.6789,8.85783 -11.9499,-12.75046 -15.1816,-11.69071 -5.2988,1.73758 10.499,14.26554 8.666,14.89588 -3.6205,1.24505 -13.7312,-15.25605 -16.3957,-12.45675 -6.5753,6.9081 10.9221,21.53722 10.9185,21.96314 -0.094,11.12253 -11.3779,-11.2004 -15.0516,-10.26641 -8.8112,2.24012 5.1374,10.29587 5.5573,14.18789 1.0238,9.48956 -5.2462,-5.43704 -12.372,-3.95309 -14.111,2.93859 -1.5803,6.26281 -1.6528,6.2721 -5.5742,0.71421 -5.3746,-7.61756 -7.6947,-4.29259 -9.3328,13.37482 -0.7588,8.1847 -3.2538,16.82355 -5.5444,19.19744 -3.7267,3.86223 -3.965,3.49191 -2.2666,-3.52118 1.929,-7.96555 -1.8253,-19.07677 -6.4459,-19.07677 -1.3969,0 -2.3717,8.62342 -2.1662,19.16314 0.7026,36.0478 -9.8043,59.63504 -11.6978,26.26059 -1.5302,-26.97034 -1.5302,-26.97034 -2.4718,4.25848 -1.1958,39.66281 -0.6938,36.50022 -6.7997,42.83305 -18.2383,18.9162 -31.6569,26.93287 -31.6604,18.91483 0,-2.73252 -2.5614,0.39009 -5.6894,6.93914 -5.8307,12.20779 -22.0925,28.06581 -55.1755,53.8054 -11.736,9.13092 -23.7514,21.94826 -32.0355,34.17335 -12.247,18.07337 -29.2762,34.96558 -35.2491,34.96558 -1.379,0 -5.2057,10.53972 -8.5037,23.42161 -10.9537,42.78375 -22.9623,60.36207 -34.4728,50.46172 -6.1022,-5.24857 -5.2786,-10.02033 5.3432,-30.959 43.3066,-85.36944 37.2664,-120.00767 -8.4082,-48.21792 -18.5754,29.19613 -27.8284,37.31155 -36.2646,31.80604 -8.4616,-5.52211 -6.3477,-11.69599 11.0171,-32.17731 35.2681,-41.59778 49.1915,-63.17087 30.3172,-46.97413 -2.6538,2.27737 -15.2733,12.17832 -28.0432,22.00212 -19.9102,15.31679 -24.8505,20.88403 -34.6767,39.07755 -17.1979,31.84229 -35.898,44.31574 -41.7709,27.86223 -3.3373,-9.34973 -0.8105,-15.48004 11.2013,-27.17506 5.9582,-5.80104 15.6898,-19.11854 21.6258,-29.59445 8.3595,-14.75281 15.5399,-22.74986 31.8485,-35.47045 46.2575,-36.0807 57.7874,-50.10827 45.2626,-55.06785 -30.9686,-12.26299 -54.3669,-4.95214 -88.8771,27.76987 -10.704,10.14936 -13.919,11.78869 -19.1755,9.7775 -14.9353,-5.71451 -9.4111,-15.61751 17.9504,-32.17869 21.3144,-12.90106 41.746,-31.07977 44.2983,-39.41374 1.2887,-4.20811 4.2519,-5.41614 13.2852,-5.41614 17.0763,0 50.5663,-9.87625 77.7917,-22.94086 59.639,-28.61889 50.117,-20.43324 90.5017,-77.80059 42.0228,-59.69441 90.5671,-123.18589 134.6113,-176.05939 16.909,-20.29873 33.3154,-42.27233 36.4585,-48.83022 5.4722,-11.417422 6.3629,-11.997465 20.9868,-13.667609 35.4211,-4.04531 103.3676,-16.765288 146.7608,-27.474487 56.2115,-13.872682 72.5204,-15.322995 122.9613,-10.934663 38.9157,3.385652 38.9157,3.385652 74.3995,-11.383402 19.5161,-8.122979 53.3607,-21.34543 75.2102,-29.383223 73.9251,-27.194905 107.2455,-52.753188 104.9646,-80.512669 -0.9654,-11.748693 0.242,-21.431324 4.3322,-34.741687 4.9692,-16.171 5.1673,-18.84324 1.6013,-21.60535 -12.0953,-9.36863 5.6813,-19.23207 41.1299,-22.8212 12.6903,-1.28487 20.1832,-4.14766 32.8778,-12.56142 48.4474,-32.11014 70.7361,-36.24072 146.5495,-27.15885 20.3397,2.43654 42.5284,4.16136 49.3083,3.83294 12.3271,-0.59714 12.3271,-0.59714 13.1516,11.09028 0.746,10.57518 2.5238,13.11627 18.6807,26.70188 16.1981,13.62025 17.6478,15.69844 15.6116,22.38038 -8.5135,27.937748 -0.7251,59.37692 20.7805,83.883956 5.4159,6.171789 7.3816,9.365644 4.3683,7.097458 -5.0622,-3.810499 -5.1929,-3.746325 -1.719,0.844245 2.0677,2.732521 5.5165,4.96822 7.664,4.96822 2.1474,0 7.1289,3.513241 11.07,7.807203 3.9411,4.293962 6.2749,6.210275 5.1862,4.258474 -2.9512,-5.291104 2.573,-4.288214 6.9114,1.254713 2.5546,3.2638666 2.6621,4.1201013 0.3354,2.671435 -6.3084,-3.927816 -3.6116,5.5477764 3.5685,12.5384803 5.6397,5.4909594 7.4469,6.0465329 9.3403,2.8715156 1.5789,-2.6477069 0.4105,-5.6578248 -3.5685,-9.1932874 -5.7839,-5.1391348 -5.7169,-5.1446639 2.9939,-0.2474037 24.9743,14.0407063 0.106,54.6914112 -33.4579,54.6914112 -13.1357,0 -14.2365,4.277104 -3.6947,14.35605 8.838,8.449978 6.9493,16.872763 -3.7835,16.872763 -1.2186,0 -2.2157,1.947933 -2.2157,4.328741 0,10.465506 -37.0125,13.061341 -80.9433,5.676875 -17.343,-2.91524 -29.2714,-3.423748 -39.7206,-1.693286 -9.5972,1.589388 -16.145,1.44709 -18.3232,-0.398206 -1.8641,-1.579262 -5.3028,-2.110403 -7.6415,-1.180313 -4.2697,1.698033 -5.8814,1.127194 -22.7965,-8.073921 -12.4076,-6.749226 -24.9777,-4.250345 -43.8117,8.709597 -15.1442,10.420887 -15.1442,10.420887 -5.3805,15.61214 12.2086,6.4912 22.214,18.68368 32.2637,39.31614 4.9082,10.07672 15.1159,23.17358 27.4915,35.27274 29.5982,28.93699 32.1862,30.15234 64.3546,30.22082 16.4738,0.0351 36.6751,2.18032 50.6779,5.3817 64.4892,14.74379 77.8589,17.19581 108.8891,19.97045 18.4564,1.65032 48.6577,4.37228 67.114,6.04879 90.0953,8.18396 121.3464,25.6097 168.6972,94.06637 62.404,90.2196 71.8134,195.16002 13.8746,154.73919 -14.8277,-10.34449 -16.9212,-17.68964 -11.7742,-41.31001 5.6269,-25.82289 4.1372,-29.69433 -19.4486,-50.54441 -25.6936,-22.71349 -26.7561,-23.17621 -20.5201,-8.93654 6.8227,15.57943 6.8162,23.54212 -0.025,30.63211 -12.289,12.73599 -21.7289,5.99164 -24.5443,-17.53573 -2.8874,-24.12924 -8.4868,-34.5984 -23.3249,-43.61038 -9.6228,-5.84446 -12.6019,-9.49621 -13.9864,-17.14431 -0.9675,-5.34493 -2.0512,-9.71805 -2.4081,-9.71805 -0.357,0 -12.2387,2.64968 -26.4038,5.88819 -25.3082,5.7861 -149.3702,10.20992 -307.2228,10.95499 -41.2138,0.19453 -47.0445,1.95459 -32.8722,9.92282 7.5332,4.23548 7.5332,4.23548 -1.5498,4.34914 -18.4984,0.2315 -25.3269,-8.61219 -10.7773,-13.95778 9.2503,-3.39859 5.2488,-11.4794 -5.6844,-11.4794 -11.8117,0 -27.5797,-8.32498 -42.0309,-22.19086 -17.6564,-16.94125 -21.5825,-15.48741 -6.1094,2.26233 9.865,11.31664 9.865,11.31664 1.3639,8.24535 -21.8436,-7.89171 -23.7879,-25.88814 -5.9774,-55.32741 35.7546,-59.09909 48.7317,-130.97049 25.0543,-138.75872 -3.0906,-1.01662 -7.1798,-3.46555 -9.0869,-5.44205 -4.6946,-4.86537 -18.4797,-8.30083 -18.4797,-4.60543 0,1.59119 -3.6981,2.89307 -8.218,2.89307 -4.52,0 -8.2181,1.41422 -8.2181,3.14272 0,1.7285 -1.7694,2.43904 -3.932,1.57898 -2.1626,-0.86006 -4.4239,-0.0386 -5.025,1.82549 -0.7737,2.39925 -5.6666,1.42684 -16.7507,-3.32901 -19.0822,-8.18757 -21.0636,-6.88805 -9.7889,6.42012 11.525,13.60367 5.3804,13.72098 -21.4221,0.409 -10.8807,-5.40406 -19.783,-9.17325 -19.783,-8.37596 0,0.79728 1.9934,5.53818 4.4299,10.53532 4.4299,9.08571 4.4299,9.08571 -4.9243,-0.14098 -10.1762,-10.03749 -17.1289,-12.7508 -9.0934,-3.54873 2.727,3.12288 3.644,5.67796 2.0378,5.67796 -3.3521,0 -17.1042,-16.1533 -17.1042,-20.0907 0,-1.44164 -1.7273,-2.62116 -3.8384,-2.62116 -2.1112,0 -6.2528,-4.24084 -9.2037,-9.42408 -5.5655,-9.775962 -23.0078,-20.48832 -29.2911,-17.989476 -2.538,1.00933 -3.9481,10.073208 -4.7836,30.746556 -1.6131,39.91978 -9.8362,58.61978 -37.376,84.997 -19.6643,18.8342 -26.6924,33.49102 -14.471,30.17881 4.0726,-1.10374 4.8627,-0.14687 3.8291,4.6371 -0.8995,4.16351 3.0866,1.19854 12.8881,-9.58659 13.8471,-15.23681 10.7149,-5.95459 -3.5887,10.63499 -8.0673,9.35656 -3.0796,11.54709 5.9279,2.60346 4.232,-4.20199 8.3582,-6.95219 9.1693,-6.11155 0.8112,0.84063 7.3048,-5.54378 14.4302,-14.18759 16.3464,-19.82952 26.8664,-26.90224 18.9516,-12.74132 -2.807,5.02213 -8.4935,12.48611 -12.6368,16.5866 -9.8029,9.70169 -11.6416,30.66059 -1.8873,21.51195 4.6812,-4.39047 6.0498,-4.61814 8.0093,-1.33231 1.8586,3.11671 3.209,3.23564 6.3234,0.55694 3.3664,-2.89546 4.2439,-0.42082 5.8533,16.50671 2.2318,23.47305 1.1595,22.99601 18.2061,8.0993 7.4351,-6.49742 14.061,-11.25121 14.7241,-10.56397 1.734,1.79709 -1.8734,6.82233 -7.0671,9.84467 -8.1484,4.74175 -27.5553,24.30192 -25.8574,26.0616 0.9189,0.95231 7.4361,-3.93778 14.4826,-10.86688 12.8118,-12.59837 12.8118,-12.59837 2.6819,0.65485 -11.9657,15.65505 -12.3814,17.66407 -3.2815,15.86126 9.7393,-1.92951 8.6481,1.03536 -6.8484,18.60776 -15.7141,17.81903 -20.3453,38.5973 -7.6739,34.42928 5.7245,-1.88296 5.6618,-1.53634 -1.2661,6.99644 -4.009,4.93765 -8.2601,9.04555 -9.4471,9.12867 -1.1869,0.0831 -3.7404,1.51215 -5.6744,3.17562 -5.3508,4.60231 -19.2207,4.90498 -20.8682,0.4554 -0.7875,-2.12685 -3.0194,-3.24778 -4.9597,-2.49095 -1.9596,0.76433 -5.697,-2.58307 -8.4073,-7.52984 -13.8096,-25.20543 -5.9383,6.6917 12.354,50.06229 5.9271,14.05297 11.45,27.2165 12.2732,29.2523 0.8231,2.03579 -16.8432,-5.80676 -39.2585,-17.42789 -50.9247,-26.40179 -58.7357,-29.01861 -43.4943,-14.57129 60.3575,57.21289 65.5032,64.97026 41.3162,62.28585 -17.4986,-1.94211 -25.0865,2.32339 -15.2924,8.59663 5.9959,3.84044 2.1635,9.8873 -8.3317,13.14612 -6.762,2.09962 -10.5675,4.79755 -9.7773,6.93167 0.7116,1.92174 -1.3945,4.22744 -4.6802,5.12378 -9.1303,2.49075 1.1856,8.92384 18.5635,11.57637 97.5364,14.88776 153.9452,196.15541 85.7266,275.47889 -7.5178,8.74158 -15.0478,15.41738 -16.7333,14.83511 -23.5431,-8.13312 -9.3212,21.0511 64.4497,132.25565 13.2587,19.98652 22.8735,35.54926 21.3663,34.58386 -3.5182,-2.25348 -45.502,-63.73449 -83.3275,-122.02468 -44.0698,-67.91292 -52.3919,-75.23305 -85.5315,-75.23305 -24.6888,0 -24.7666,0.35967 -7.8592,36.3611 22.633,48.19349 61.2128,101.06575 115.5214,158.31804 68.6989,72.4226 157.9291,146.6588 131.0888,109.0608 -5.7658,-8.0767 -6.2882,-10.0747 -2.8298,-10.8231 8.254,-1.7863 -1.0775,-17.3973 -20.5942,-34.4526 -13.9947,-12.2297 -45.3841,-53.20466 -42.8054,-55.87714 0.7452,-0.77228 7.0839,6.91641 14.0861,17.08596 12.717,18.46948 54.7712,53.84168 103.5552,87.10128 10.1738,6.9362 17.9378,14.1516 17.2534,16.0343 -0.6844,1.8827 6.7086,9.475 16.4289,16.8717 19.6433,14.9477 19.9486,15.2776 12.1946,13.1761 -10.3784,-2.8127 -5.4406,1.9546 10.8541,10.4794 48.1068,25.1674 154.4296,54.6503 135.2768,37.5117 -5.7943,-5.1849 -5.2647,-5.2583 28.7632,-3.988 39.3885,1.4705 49.7284,0.3589 38.9673,-4.1892 -5.6553,-2.3902 -3.831,-3.0867 12.1328,-4.6316 22.9475,-2.2208 27.9101,-6.0187 13.3424,-10.2107 -24.7095,-7.1105 -49.7296,-2.0261 -37.7281,7.6668 5.0776,4.1009 5.0707,4.1579 -0.2664,2.2055 -25.2909,-9.2519 -59.7936,-15.0842 -52.2089,-8.8255 4.9541,4.088 4.2411,4.3879 -10.4342,4.3879 -11.3289,0 -15.1955,0.9326 -13.7709,3.3214 2.0864,3.4987 1.9871,3.4707 -16.039,-4.5212 -5.8744,-2.6045 -10.2725,-3.3226 -10.2725,-1.6773 0,1.5824 0.9971,2.8771 2.2157,2.8771 1.2187,0 4.6087,1.8886 7.5332,4.1969 17.3529,13.6961 -70.924,-23.6999 -104.5821,-44.3033 -27.782,-17.0065 -29.0706,-19.1983 -4.4682,-7.6006 66.325,31.2661 131.0821,40.1813 192.4392,26.4933 12.1382,-2.7078 26.5251,-3.4532 45.1993,-2.3418 28.9891,1.7254 34.4779,-1.4994 7.639,-4.4881 -15.8571,-1.7658 -15.8571,-1.7658 15.6454,-17.8227 148.8565,-75.8725 241.8888,-329.70226 153.0344,-417.53946 -25.6397,-25.34611 -25.6877,-25.24265 14.5269,-31.32674 48.5246,-7.34133 97.6077,18.3301 121.2988,63.44164 16.2583,30.95846 3.8196,135.39391 -26.4496,222.07067 -6.5986,18.89542 -19.7251,31.1136 -63.0932,58.72769 -41.2857,26.2881 -30.8525,31.5112 13.6671,6.8421 25.9176,-14.3614 25.7962,-14.4315 12.9531,7.4794 -8.4124,14.3521 -13.2306,18.727 -37.666,34.2008 -47.0691,29.8066 -53.8579,39.6519 -11.7823,17.0868 36.4259,-19.5352 12.3302,9.528 -25.825,31.149 -33.4267,18.9415 -55.7887,33.7696 -53.8919,35.7354 1.9103,1.9798 26.6786,-9.7588 48.9396,-23.1942 27.6253,-16.6731 5.4997,5.3204 -30.6035,30.4206 -238.3975,165.7425 -467.8666,115.8815 -666.8494,-144.8988 -31.3313,-41.06166 -33.3417,-41.53502 -18.0235,-4.2437 32.7132,79.6384 44.0865,94.2958 121.881,157.0747 15.0665,12.1583 46.7182,39.303 70.3372,60.3216 45.2634,40.2798 58.9414,50.5408 93.2735,69.9727 30.6821,17.366 33.9714,25.1135 5.5875,13.1606 -43.0977,-18.1491 -96.9064,-60.684 -192.9019,-152.4854 -77.7706,-74.373 -90.4904,-85.552 -92.8468,-81.6005 -2.9356,4.9226 1.4908,13.2856 23.1601,43.7578 23.1379,32.5372 22.8197,35.5361 -1.2185,11.4851 -10.6023,-10.608 -20.0037,-18.534 -20.8921,-17.6134 -2.0646,2.1397 19.9535,29.5144 26.7882,33.3053 5.6342,3.125 7.3161,9.7965 1.7385,6.8962 -8.9592,-4.6587 34.3696,34.7554 61.6855,56.1123 71.8414,56.169 100.9262,74.1612 152.8815,94.5741 39.8032,15.6384 55.7252,30.3955 47.5627,44.0831 -2.0744,3.4786 10.9684,21.5448 14.6388,20.2769 8.9594,-3.0951 -7.2189,37.6427 -25.0951,63.1908 -11.8051,16.8716 -11.7207,16.1629 -3.0775,25.8282 7.278,8.1388 9.134,22.6492 4.1352,32.3293 -4.1792,8.0929 26.3819,17.6978 48.6398,15.2868 32.4514,-3.5152 42.7703,24.5119 11.6341,31.5993 -4.1226,0.9384 -8.747,4.5526 -10.2765,8.0314 -7.2596,16.5127 -34.9139,38.8197 -48.1252,38.8197 -2.0693,0 -10.4311,3.8095 -18.5816,8.4655 -20.196,11.537 -23.4183,10.9722 -64.1276,-11.2396 z m 63.017,-2.9239 c 0.9377,-1.5725 -0.5304,-3.6107 -3.2625,-4.5294 -2.7321,-0.9188 -10.9125,-4.1791 -18.1786,-7.2452 -19.7944,-8.3527 -22.012,-4.5438 -3.225,5.5392 17.8097,9.5585 22.0458,10.6293 24.6661,6.2354 z m 37.0656,-32.7486 c 5.5831,-6.9719 0.6411,-9.1888 -31.4977,-14.1292 -16.5174,-2.5391 -31.0018,-5.2378 -32.1874,-5.9972 -1.1856,-0.7594 -2.1556,-0.073 -2.1556,1.5259 0,1.5986 2.4654,4.2741 5.4787,5.9454 3.0133,1.6713 5.4787,2.4455 5.4787,1.7204 0,-0.7252 9.5535,2.3616 21.2299,6.8595 24.6769,9.5057 28.8956,10.0165 33.6534,4.0752 z m 318.462,-441.7151 c 17.5282,-9.1972 49.3235,-30.963 47.6955,-32.6503 -1.9631,-2.0344 -47.8727,22.8961 -58.0771,31.538 -10.1771,8.6187 -4.9844,9.175 10.3816,1.1123 z m 49.2537,-50.8781 c 8.5413,-7.8896 18.2966,-18.4294 21.6784,-23.4216 6.0502,-8.9314 -24.4882,17.1318 -37.2239,31.7689 -9.8185,11.2845 -5e-4,6.0126 15.5455,-8.3473 z m -831.2187,-40.3055 c -3.4696,-5.0747 -14.1093,-19.26008 -23.6436,-31.52305 -18.9358,-24.3549 -21.4326,-31.16721 -4.7269,-12.89639 12.4384,13.60368 11.335,14.89589 23.2811,-27.26493 4.8666,-17.17584 13.4615,-43.36546 19.0996,-58.19915 26.7126,-70.28014 19.9688,-93.31595 -35.7861,-122.2412 -58.2868,-30.23872 -59.3487,-30.2763 -27.3297,-0.96724 13.4739,12.3335 24.5903,23.11235 24.7031,23.953 0.5426,4.04296 -122.5743,-9.86189 -180.1109,-20.34176 -41.4646,-7.55247 -41.5086,-7.24006 -2.7074,19.22934 49.847,34.00455 65.434,46.95005 84.7694,70.40382 39.5501,47.97399 40.2519,52.51303 2.1994,14.22378 -44.6762,-44.95401 -71.6329,-63.94851 -47.5778,-33.52459 12.7622,16.14096 9.9116,15.88148 -4.5848,-0.41735 -16.9074,-19.00948 -22.0523,-15.97304 -6.0129,3.54873 17.815,21.68294 30.9595,39.41137 30.9595,41.75616 0,1.04668 -8.9372,-5.63314 -19.8603,-14.84405 -44.8851,-37.84917 -45.5194,-34.06111 -1.3697,8.17952 48.2852,46.19731 45.6519,47.3518 -10.6541,4.6709 -40.1496,-30.43407 -44.871,-32.03549 -18.7939,-6.3746 37.8401,37.23614 116.5021,98.15476 175.3183,135.77267 28.8785,18.47019 31.2568,19.18459 22.8277,6.85639 z m 218.664,-227.82843 c 1.0354,-6.46939 -0.7499,-11.5883 -7.4261,-21.29237 -8.7891,-12.77543 -8.7891,-12.77543 1.1175,-3.03304 10.2022,10.03316 15.482,10.19037 11.1038,0.33063 -5.271,-11.87002 -40.8205,-59.23858 -42.4311,-56.53789 -0.934,1.56626 -7.4289,-5.14446 -14.433,-14.9127 -16.5158,-23.03352 -16.1369,-19.31345 1.1475,11.26609 13.8824,24.56063 13.8824,24.56063 -3.1586,7.52674 -14.8333,-14.82722 -16.3239,-15.74667 -11.5063,-7.09746 12.4417,22.33676 30.9154,58.936 30.9154,61.24805 0,4.05021 -7.237,-7.81445 -32.6081,-53.45932 -30.1991,-54.33078 -44.8928,-78.69198 -47.4881,-78.73205 -2.9268,-0.0452 8.8021,24.4111 44.1857,92.13289 43.4475,83.15548 50.5662,93.72876 56.4556,83.8528 2.6976,-4.52358 6.8229,-3.29145 7.1288,2.12924 0.3039,5.38359 4.7905,-9.63488 6.997,-23.42161 z m -75.973,-38.79287 c -5.8151,-11.357 -35.8556,-51.10884 -37.4076,-49.50042 -0.8104,0.83991 0.641,4.87168 3.2255,8.95948 8.4698,13.39678 1.6826,11.16435 -13.9323,-4.58254 -17.1472,-17.29219 -15.2957,-9.39937 2.4845,10.5915 10.5834,11.89919 10.8401,12.61924 5.8556,16.42151 -5.102,3.8919 -5.0963,4.01303 0.2656,5.68496 3.0133,0.93959 13.4913,6.01073 23.2845,11.2692 19.7702,10.61568 21.1167,10.71165 16.2242,1.15631 z m 80.8666,-15.85756 c -16.3612,-29.31998 -32.2568,-53.05644 -33.3382,-49.78323 -1.5525,4.69871 34.8962,63.2684 39.3727,63.2684 0.8198,0 -1.8957,-6.06832 -6.0345,-13.48517 z m 23.4405,2.29679 c 0,-1.46929 -0.9509,-3.28051 -2.1131,-4.02493 -1.1622,-0.74442 -6.2026,-7.52691 -11.2008,-15.07221 -9.4551,-14.27344 -3.0166,-8.07269 12.3928,11.93515 4.7667,6.18911 9.3802,10.51718 10.2522,9.61795 1.652,-1.70345 -53.6861,-77.52292 -59.1231,-81.00539 -1.9981,-1.27982 -2.3391,-0.70753 -0.9582,1.6081 1.2168,2.04043 0.6826,4.53101 -1.2354,5.75949 -2.573,1.64808 -2.1728,4.11217 1.6776,10.32877 28.6124,46.19592 50.308,72.4391 50.308,60.85307 z M 1847.0608,241.74539 c -20.7712,-19.44805 -31.699,-27.46133 -32.7963,-24.04945 -1.4055,4.36978 22.8343,29.74119 33.5935,35.1618 12.2409,6.16713 11.8509,0.73006 -0.7972,-11.11235 z m 27.0376,4.41212 c 0,-3.89032 -43.9427,-42.7338 -48.3438,-42.7338 -6.324,0 -4.1753,4.00518 9.3081,17.3507 25.1616,24.9041 39.0357,33.92584 39.0357,25.3831 z m -26.1506,-43.88566 c -10.9945,-10.49643 -20.0999,-17.14941 -21.5349,-15.73473 -3.5473,3.49698 1.9478,9.41827 20.9347,22.55835 22.621,15.65517 22.7391,14.31254 0.6002,-6.82362 z m 34.3687,9.96291 c 0,-5.51443 -50.7112,-45.71783 -57.6669,-45.71783 -5.0034,0 6.0146,11.67331 29.7511,31.52063 18.6398,15.58573 27.9158,20.30323 27.9158,14.1972 z m 10.9574,-12.74741 c 0,-1.74186 -37.3845,-32.97042 -39.4698,-32.97042 -3.6129,0 15.878,22.85197 24.2118,28.38689 7.6385,5.07309 15.258,7.36201 15.258,4.58353 z m 49.3083,-5.92717 c 0,-0.74063 -3.4672,-3.20475 -7.7049,-5.47584 -4.2377,-2.27108 -13.7911,-9.79783 -21.2299,-16.7261 -26.8455,-25.00301 -61.4637,-48.77188 -61.4637,-42.20096 0,2.48563 35.7618,34.12831 51.5205,45.58616 4.9833,3.6233 8.4307,7.24058 7.6609,8.03839 -3.6079,3.73916 -21.3618,-3.28609 -36.0732,-14.27425 -13.0193,-9.72435 -31.3263,-16.96548 -31.3263,-12.39079 0,1.49586 40.2754,27.43404 42.5981,27.43404 1.1934,0 4.4241,2.11432 7.1793,4.69848 2.7553,2.58417 5.0096,3.40587 5.0096,1.82602 0,-1.84358 5.1513,-1.57922 14.3816,0.73804 14.8886,3.7378 29.448,5.09585 29.448,2.74681 z m 5.4787,-5.58494 c 0,-2.31468 -33.1919,-27.75126 -34.4759,-26.42056 -2.1353,2.21294 16.1593,19.58941 24.8881,23.63914 9.5189,4.41626 9.5878,4.43622 9.5878,2.78142 z m -87.5557,-38.60758 c -5.2164,-4.62087 -11.8935,-8.40157 -14.8382,-8.40157 -6.623,0 -6.0482,0.60019 9.256,9.66448 15.9177,9.42765 17.2979,9.11539 5.5822,-1.26291 z m 707.3463,-97.399751 c -12.546,-28.612806 -6.1715,-42.9033999 22.4718,-50.3781827 15.5689,-4.0629076 16.9413,-11.0850913 2.1693,-11.1003519 -12.3314,-0.012739 -27.0141,-8.6574864 -31.3133,-18.4362554 -1.7177,-3.907189 -5.0385,-7.103979 -7.3795,-7.103979 -3.7559,0 -3.729,-0.546466 0.2284,-4.647768 3.6056,-3.736824 3.8549,-5.718214 1.2718,-10.109346 -2.6023,-4.423808 -2.3467,-6.128584 1.3455,-8.971902 2.5071,-1.930678 4.9725,-7.282426 5.4787,-11.892772 0.6743,-6.141261 2.2021,-8.159412 5.7142,-7.548251 3.7373,0.650336 4.7939,-1.174695 4.7939,-8.280367 0,-5.013011 0.7191,-8.369332 1.598,-7.458491 0.8788,0.91084 3.9606,-0.79255 6.8483,-3.785311 2.8878,-2.992762 7.7159,-5.441382 10.7291,-5.441382 4.0177,0 5.4787,-1.89266 5.4787,-7.09746 0,-5.72415 1.4577,-7.19792 7.5332,-7.61667 27.0547,-1.86472 35.8344,3.54866 51.549,31.784125 7.852,14.108176 18.4087,28.011235 27.9874,36.85911 18.0817,16.702075 24.0915,18.64338 11.4229,3.689844 -15.453,-18.240122 -22.2547,-37.504363 -21.5209,-60.952759 0.9827,-31.39951 -14.2189,-42.81323 -54.8431,-41.17773 -8.8799,0.3575 -15.3052,2.00484 -15.9779,4.09648 -0.6978,2.16932 -3.6411,2.84413 -7.7469,1.77614 -3.653,-0.95017 -6.6217,-0.46599 -6.6217,1.07994 0,1.54128 -3.6981,4.38986 -8.2181,6.33016 -4.5199,1.94031 -8.218,5.28916 -8.218,7.44189 0,2.15273 -2.3646,3.91405 -5.2547,3.91405 -7.326,0 -14.1394,3.01453 -12.61,5.57916 0.7036,1.17987 -3.5843,4.41819 -9.5288,7.19626 -5.9444,2.77807 -10.2737,5.94709 -9.6206,7.04226 0.6531,1.09518 -2.554,4.857993 -7.1268,8.361814 -4.9017,3.755777 -7.7038,8.019497 -6.8268,10.387915 0.8181,2.209533 -0.096,4.017333 -2.0319,4.017333 -1.9356,0 -7.0476,7.650385 -11.3599,17.000855 -9.449,20.488854 -9.6145,20.426513 -6.538,-2.463168 3.2085,-23.870926 -0.2654,-36.331329 -14.0816,-50.508249 -11.7725,-12.07995 -37.4298,-28.84302 -30.3505,-19.82936 3.5142,4.47444 3.2327,4.64296 -3.3937,2.03199 -17.9727,-7.08178 -64.1114,-5.93722 -76.7266,1.90335 -1.2792,0.79504 12.4336,9.44571 30.473,19.22371 46.0403,24.955635 71.8391,40.901476 71.8391,44.402724 0,7.281773 -9.0974,21.809737 -15.5715,24.866838 -7.0894,3.347619 -7.0894,3.347619 -0.5528,10.590156 6.5365,7.242537 6.5365,7.242537 -9.8996,-0.378744 -9.0398,-4.191705 -26.6481,-11.521837 -39.1296,-16.289183 -22.6935,-8.667901 -22.6935,-8.667901 -5.4786,-18.549921 21.1652,-12.149752 31.8662,-20.517947 26.2376,-20.517947 -11.3238,0 -59.7008,20.860985 -59.7008,25.743981 0,8.181703 82.993,53.8846141 93.9194,51.719925 12.6092,-2.49808 21.2156,7.4342025 11.1689,12.8896456 -6.696,3.6359724 -7.0073,4.4226945 -2.9632,7.4873482 3.3648,2.5499442 3.7267,4.2454912 1.4168,6.6393952 -2.3099,2.393905 -1.98,3.661194 1.292,4.962432 2.4168,0.961131 3.7664,3.442682 2.9993,5.514557 -0.7789,2.103526 1.0012,4.555169 4.031,5.551755 2.9841,0.98159 9.545,5.547998 14.5796,10.147571 5.0347,4.599574 10.7829,8.383268 12.7738,8.408209 1.9909,0.02494 5.5954,2.092739 8.0099,4.595105 3.0332,3.143423 7.2253,4.072936 13.5625,3.007148 6.0403,-1.015851 8.5644,-0.523152 7.392,1.442869 -1.1782,1.975673 2.5073,2.632065 10.896,1.940615 7.2694,-0.599186 12.7686,0.174808 12.8927,1.814577 0.1189,1.572692 0.8785,1.136531 1.688,-0.969247 0.8094,-2.105778 0.2666,-6.577176 -1.2064,-9.93644 z m 62.992,-97.731013 c 6.5703,-5.979352 6.1682,-11.840531 -0.6849,-9.98323 -3.842,1.041245 -5.4787,0.08711 -5.4787,-3.193868 0,-6.18988 8.1161,-9.238808 11.1919,-4.204431 1.8379,3.008103 2.4311,2.488004 2.4629,-2.15951 0.032,-4.732333 -1.2016,-5.784893 -5.4367,-4.637106 -5.8317,1.580495 -7.9922,-5.749375 -2.6947,-9.142468 4.8965,-3.136265 -0.088,-7.068837 -8.9593,-7.068837 -5.5912,0 -11.2743,2.663954 -16.2745,7.628606 -19.9808,19.839086 5.1325,51.636778 25.874,32.760844 z M 2569.9634,1349.5008 c -0.039,-1.2604 1.3097,-7.9719 2.9965,-14.9145 2.4,-9.8779 2.2997,-13.5809 -0.461,-17.0284 -3.1361,-3.9161 -2.7161,-4.0221 3.7814,-0.954 4.0202,1.8983 7.3094,4.4381 7.3094,5.6439 0,3.0234 -13.5387,30.1012 -13.6263,27.253 z M 2350.1799,572.48213 c -1.0217,-18.2903 -2.9494,-26.09761 -9.8851,-40.03482 -8.616,-17.31359 -8.616,-17.31359 32.9841,-80.1919 22.88,-34.58307 45.6155,-69.00565 50.5232,-76.49462 4.9078,-7.48897 11.0472,-20.90316 13.6431,-29.80932 6.3167,-21.67188 9.0912,-24.35873 5.9551,-5.7671 -6.0802,36.04526 -48.434,107.86158 -97.262,164.92044 -9.144,10.68534 -9.144,10.68534 -1.8869,25.52732 6.6632,13.6274 13.4445,64.57123 8.5953,64.57123 -0.7687,0 -1.9688,-10.22455 -2.6668,-22.72123 z M 1741.6965,383.05095 c 7.9661,-25.99779 12.5245,-30.77558 14.8768,-15.59273 0.9002,5.80962 2.1329,11.8694 2.7394,13.46618 0.9916,2.61046 -19.4313,24.0671 -22.9076,24.0671 -0.7873,0 1.5938,-9.87325 5.2914,-21.94055 z"
         id="path57" /></g></g></svg>
